%TF.GenerationSoftware,KiCad,Pcbnew,(6.0.4)*%
%TF.CreationDate,2022-04-20T17:17:18+03:00*%
%TF.ProjectId,STM32F4_Buck_Converter,53544d33-3246-4345-9f42-75636b5f436f,rev?*%
%TF.SameCoordinates,Original*%
%TF.FileFunction,Legend,Top*%
%TF.FilePolarity,Positive*%
%FSLAX46Y46*%
G04 Gerber Fmt 4.6, Leading zero omitted, Abs format (unit mm)*
G04 Created by KiCad (PCBNEW (6.0.4)) date 2022-04-20 17:17:18*
%MOMM*%
%LPD*%
G01*
G04 APERTURE LIST*
%ADD10C,0.120000*%
G04 APERTURE END LIST*
D10*
%TO.C,R2*%
X134237258Y-108272500D02*
X133762742Y-108272500D01*
X134237258Y-107227500D02*
X133762742Y-107227500D01*
%TO.C,C2*%
X130711252Y-115090000D02*
X129288748Y-115090000D01*
X130711252Y-116910000D02*
X129288748Y-116910000D01*
%TO.C,R4*%
X139727500Y-107262742D02*
X139727500Y-107737258D01*
X140772500Y-107262742D02*
X140772500Y-107737258D01*
%TO.C,U2*%
X121610000Y-100360000D02*
X121610000Y-99410000D01*
X112340000Y-100360000D02*
X111390000Y-100360000D01*
X111390000Y-91090000D02*
X110050000Y-91090000D01*
X111390000Y-100360000D02*
X111390000Y-99410000D01*
X120660000Y-100360000D02*
X121610000Y-100360000D01*
X120660000Y-90140000D02*
X121610000Y-90140000D01*
X111390000Y-90140000D02*
X111390000Y-91090000D01*
X121610000Y-90140000D02*
X121610000Y-91090000D01*
X112340000Y-90140000D02*
X111390000Y-90140000D01*
%TO.C,C10*%
X109627836Y-85640000D02*
X109412164Y-85640000D01*
X109627836Y-86360000D02*
X109412164Y-86360000D01*
%TO.C,C5*%
X109783767Y-88010000D02*
X109491233Y-88010000D01*
X109783767Y-86990000D02*
X109491233Y-86990000D01*
%TO.C,D3*%
X129235000Y-89735000D02*
X129235000Y-88265000D01*
X129235000Y-88265000D02*
X126950000Y-88265000D01*
X126950000Y-89735000D02*
X129235000Y-89735000D01*
%TO.C,C16*%
X105527836Y-95440000D02*
X105312164Y-95440000D01*
X105527836Y-96160000D02*
X105312164Y-96160000D01*
%TO.C,U3*%
X141250000Y-97810000D02*
X143050000Y-97810000D01*
X141250000Y-94690000D02*
X142050000Y-94690000D01*
X141250000Y-94690000D02*
X140450000Y-94690000D01*
X141250000Y-97810000D02*
X140450000Y-97810000D01*
%TO.C,C7*%
X113837836Y-102640000D02*
X113622164Y-102640000D01*
X113837836Y-103360000D02*
X113622164Y-103360000D01*
%TO.C,C4*%
X129010000Y-106165580D02*
X129010000Y-105884420D01*
X127990000Y-106165580D02*
X127990000Y-105884420D01*
%TO.C,Q1*%
X137690000Y-111500000D02*
X137690000Y-112150000D01*
X140810000Y-111500000D02*
X140810000Y-109825000D01*
X140810000Y-111500000D02*
X140810000Y-112150000D01*
X137690000Y-111500000D02*
X137690000Y-110850000D01*
%TO.C,D1*%
X135750000Y-100500000D02*
X135750000Y-96600000D01*
X137750000Y-100500000D02*
X137750000Y-96600000D01*
X135750000Y-100500000D02*
X137750000Y-100500000D01*
%TO.C,R11*%
X108380000Y-102096359D02*
X108380000Y-102403641D01*
X107620000Y-102096359D02*
X107620000Y-102403641D01*
%TO.C,C1*%
X132288748Y-101340000D02*
X133711252Y-101340000D01*
X132288748Y-103160000D02*
X133711252Y-103160000D01*
%TO.C,J1*%
X144544000Y-105190000D02*
X154465000Y-105190000D01*
X147504000Y-115310000D02*
X147504000Y-105190000D01*
X154465000Y-115310000D02*
X154465000Y-105190000D01*
X154705000Y-115550000D02*
X154705000Y-115050000D01*
X150828000Y-108977000D02*
X150874000Y-109024000D01*
X144544000Y-115310000D02*
X144544000Y-105190000D01*
X148530000Y-106680000D02*
X148566000Y-106715000D01*
X152405000Y-115310000D02*
X152405000Y-105190000D01*
X148736000Y-106475000D02*
X148782000Y-106522000D01*
X153905000Y-115310000D02*
X153905000Y-105190000D01*
X144544000Y-115310000D02*
X154465000Y-115310000D01*
X151044000Y-108784000D02*
X151079000Y-108819000D01*
X153965000Y-115550000D02*
X154705000Y-115550000D01*
X149121000Y-114285000D02*
G75*
G03*
X150488042Y-114285427I684001J1534993D01*
G01*
X150489000Y-111214999D02*
G75*
G03*
X149121958Y-111214573I-684000J-1535001D01*
G01*
X151485000Y-112750000D02*
G75*
G03*
X151339756Y-112066682I-1680000J0D01*
G01*
X148270000Y-112066000D02*
G75*
G03*
X148269573Y-113433042I1534993J-684001D01*
G01*
X151340000Y-113434000D02*
G75*
G03*
X151485253Y-112721195I-1535001J683999D01*
G01*
X151485000Y-107750000D02*
G75*
G03*
X151485000Y-107750000I-1680000J0D01*
G01*
%TO.C,R6*%
X127512742Y-91772500D02*
X127987258Y-91772500D01*
X127512742Y-90727500D02*
X127987258Y-90727500D01*
%TO.C,R7*%
X114403641Y-86870000D02*
X114096359Y-86870000D01*
X114403641Y-87630000D02*
X114096359Y-87630000D01*
%TO.C,C3*%
X130711252Y-119910000D02*
X129288748Y-119910000D01*
X130711252Y-118090000D02*
X129288748Y-118090000D01*
%TO.C,J3*%
X112515000Y-76860000D02*
X112515000Y-71140000D01*
X116000000Y-76560000D02*
X113585000Y-76560000D01*
X118125000Y-77150000D02*
X118625000Y-77150000D01*
X118125000Y-76850000D02*
X118125000Y-77150000D01*
X112515000Y-71140000D02*
X116000000Y-71140000D01*
X119485000Y-76860000D02*
X119485000Y-71140000D01*
X118415000Y-76560000D02*
X118415000Y-76860000D01*
X119485000Y-71140000D02*
X116000000Y-71140000D01*
X118415000Y-76860000D02*
X119485000Y-76860000D01*
X113585000Y-76560000D02*
X113585000Y-76860000D01*
X116000000Y-76560000D02*
X118415000Y-76560000D01*
X113585000Y-76860000D02*
X112515000Y-76860000D01*
%TO.C,R8*%
X108236359Y-94430000D02*
X108543641Y-94430000D01*
X108236359Y-93670000D02*
X108543641Y-93670000D01*
%TO.C,SW1*%
X99730000Y-106100000D02*
X99520000Y-106300000D01*
X102030000Y-110950000D02*
X102820000Y-110950000D01*
X99730000Y-107400000D02*
X101020000Y-107400000D01*
X99730000Y-107400000D02*
X99520000Y-107200000D01*
X102820000Y-104050000D02*
X102030000Y-104050000D01*
X99520000Y-106300000D02*
X99520000Y-107200000D01*
X103870000Y-105900000D02*
X103870000Y-107600000D01*
X101020000Y-106100000D02*
X99730000Y-106100000D01*
X103870000Y-108900000D02*
X103870000Y-109100000D01*
X101020000Y-104650000D02*
X101020000Y-110350000D01*
%TO.C,R9*%
X116586359Y-84870000D02*
X116893641Y-84870000D01*
X116586359Y-85630000D02*
X116893641Y-85630000D01*
%TO.C,F1*%
X131590000Y-99102064D02*
X131590000Y-97897936D01*
X133410000Y-99102064D02*
X133410000Y-97897936D01*
%TO.C,C9*%
X122390000Y-89607836D02*
X122390000Y-89392164D01*
X123110000Y-89607836D02*
X123110000Y-89392164D01*
%TO.C,Y1*%
X107050000Y-90900000D02*
X103750000Y-90900000D01*
X103750000Y-90900000D02*
X103750000Y-94900000D01*
%TO.C,C15*%
X105312164Y-89690000D02*
X105527836Y-89690000D01*
X105312164Y-90410000D02*
X105527836Y-90410000D01*
%TO.C,D4*%
X110485000Y-103235000D02*
X110485000Y-100950000D01*
X109015000Y-100950000D02*
X109015000Y-103235000D01*
X109015000Y-103235000D02*
X110485000Y-103235000D01*
%TO.C,FB1*%
X127940000Y-97850378D02*
X127940000Y-98649622D01*
X129060000Y-97850378D02*
X129060000Y-98649622D01*
%TO.C,R3*%
X137522500Y-115737258D02*
X137522500Y-115262742D01*
X136477500Y-115737258D02*
X136477500Y-115262742D01*
%TO.C,C6*%
X109110000Y-91087836D02*
X109110000Y-90872164D01*
X108390000Y-91087836D02*
X108390000Y-90872164D01*
%TO.C,D2*%
X130750000Y-106500000D02*
X134650000Y-106500000D01*
X130750000Y-104500000D02*
X130750000Y-106500000D01*
X130750000Y-104500000D02*
X134650000Y-104500000D01*
%TO.C,J4*%
X115750000Y-119440000D02*
X118165000Y-119440000D01*
X113625000Y-118850000D02*
X113125000Y-118850000D01*
X118165000Y-119140000D02*
X119235000Y-119140000D01*
X113625000Y-119150000D02*
X113625000Y-118850000D01*
X112265000Y-124860000D02*
X115750000Y-124860000D01*
X112265000Y-119140000D02*
X112265000Y-124860000D01*
X119235000Y-119140000D02*
X119235000Y-124860000D01*
X113335000Y-119140000D02*
X112265000Y-119140000D01*
X113335000Y-119440000D02*
X113335000Y-119140000D01*
X119235000Y-124860000D02*
X115750000Y-124860000D01*
X115750000Y-119440000D02*
X113335000Y-119440000D01*
X118165000Y-119440000D02*
X118165000Y-119140000D01*
%TO.C,C8*%
X121640000Y-102142164D02*
X121640000Y-102357836D01*
X122360000Y-102142164D02*
X122360000Y-102357836D01*
%TO.C,U1*%
X132440000Y-111000000D02*
X132440000Y-112800000D01*
X135560000Y-111000000D02*
X135560000Y-110200000D01*
X132440000Y-111000000D02*
X132440000Y-110200000D01*
X135560000Y-111000000D02*
X135560000Y-111800000D01*
%TO.C,R10*%
X114633641Y-85630000D02*
X114326359Y-85630000D01*
X114633641Y-84870000D02*
X114326359Y-84870000D01*
%TO.C,R1*%
X135522500Y-115262742D02*
X135522500Y-115737258D01*
X134477500Y-115262742D02*
X134477500Y-115737258D01*
%TO.C,C12*%
X108640000Y-97607836D02*
X108640000Y-97392164D01*
X109360000Y-97607836D02*
X109360000Y-97392164D01*
%TO.C,J5*%
X150000000Y-99060000D02*
X149740000Y-99060000D01*
X145690000Y-99060000D02*
X145690000Y-98680000D01*
X145690000Y-91440000D02*
X145690000Y-91820000D01*
X149740000Y-91440000D02*
X150000000Y-91440000D01*
X147460000Y-99060000D02*
X145690000Y-99060000D01*
X145690000Y-91440000D02*
X147460000Y-91440000D01*
%TO.C,L1*%
X125500000Y-112524000D02*
X125500000Y-112651000D01*
X125500000Y-109349000D02*
X125500000Y-109476000D01*
X122380000Y-107880000D02*
X122380000Y-114120000D01*
X124150000Y-107880000D02*
X122380000Y-107880000D01*
X124150000Y-114120000D02*
X122380000Y-114120000D01*
X128620000Y-107880000D02*
X128620000Y-114120000D01*
X128620000Y-114120000D02*
X126850000Y-114120000D01*
X128620000Y-107880000D02*
X126850000Y-107880000D01*
X125500000Y-111762000D02*
G75*
G03*
X125500000Y-111000000I0J381000D01*
G01*
X125500000Y-112524000D02*
G75*
G03*
X125500000Y-111762000I0J381000D01*
G01*
X125500000Y-111000000D02*
G75*
G03*
X125500000Y-110238000I0J381000D01*
G01*
X125500000Y-110238000D02*
G75*
G03*
X125500000Y-109476000I0J381000D01*
G01*
%TO.C,R5*%
X135512742Y-119272500D02*
X135987258Y-119272500D01*
X135512742Y-118227500D02*
X135987258Y-118227500D01*
%TO.C,J2*%
X124830000Y-75985000D02*
X124765000Y-75985000D01*
X131235000Y-75985000D02*
X131170000Y-75985000D01*
X124765000Y-75985000D02*
X124765000Y-79515000D01*
X131235000Y-79515000D02*
X131170000Y-79515000D01*
X131170000Y-74660000D02*
X131170000Y-75985000D01*
X131235000Y-75985000D02*
X131235000Y-79515000D01*
X124830000Y-79515000D02*
X124765000Y-79515000D01*
%TO.C,F1*%
X140410000Y-115647936D02*
X140410000Y-116852064D01*
X138590000Y-115647936D02*
X138590000Y-116852064D01*
%TO.C,C11*%
X108110000Y-97607836D02*
X108110000Y-97392164D01*
X107390000Y-97607836D02*
X107390000Y-97392164D01*
%TD*%
M02*
