%TF.GenerationSoftware,KiCad,Pcbnew,(6.0.4)*%
%TF.CreationDate,2022-04-20T17:17:18+03:00*%
%TF.ProjectId,STM32F4_Buck_Converter,53544d33-3246-4345-9f42-75636b5f436f,rev?*%
%TF.SameCoordinates,Original*%
%TF.FileFunction,Soldermask,Bot*%
%TF.FilePolarity,Negative*%
%FSLAX46Y46*%
G04 Gerber Fmt 4.6, Leading zero omitted, Abs format (unit mm)*
G04 Created by KiCad (PCBNEW (6.0.4)) date 2022-04-20 17:17:18*
%MOMM*%
%LPD*%
G01*
G04 APERTURE LIST*
G04 Aperture macros list*
%AMRoundRect*
0 Rectangle with rounded corners*
0 $1 Rounding radius*
0 $2 $3 $4 $5 $6 $7 $8 $9 X,Y pos of 4 corners*
0 Add a 4 corners polygon primitive as box body*
4,1,4,$2,$3,$4,$5,$6,$7,$8,$9,$2,$3,0*
0 Add four circle primitives for the rounded corners*
1,1,$1+$1,$2,$3*
1,1,$1+$1,$4,$5*
1,1,$1+$1,$6,$7*
1,1,$1+$1,$8,$9*
0 Add four rect primitives between the rounded corners*
20,1,$1+$1,$2,$3,$4,$5,0*
20,1,$1+$1,$4,$5,$6,$7,0*
20,1,$1+$1,$6,$7,$8,$9,0*
20,1,$1+$1,$8,$9,$2,$3,0*%
G04 Aperture macros list end*
%ADD10C,0.900000*%
%ADD11C,8.600000*%
%ADD12R,2.600000X2.600000*%
%ADD13C,2.600000*%
%ADD14RoundRect,0.200000X0.200000X0.450000X-0.200000X0.450000X-0.200000X-0.450000X0.200000X-0.450000X0*%
%ADD15O,0.800000X1.300000*%
%ADD16RoundRect,0.200000X-0.200000X-0.450000X0.200000X-0.450000X0.200000X0.450000X-0.200000X0.450000X0*%
G04 APERTURE END LIST*
D10*
%TO.C,H4*%
X148750000Y-79725000D03*
X151030419Y-74219581D03*
D11*
X148750000Y-76500000D03*
D10*
X145525000Y-76500000D03*
X151030419Y-78780419D03*
X151975000Y-76500000D03*
X146469581Y-78780419D03*
X148750000Y-73275000D03*
X146469581Y-74219581D03*
%TD*%
D12*
%TO.C,J1*%
X149805000Y-112750000D03*
D13*
X149805000Y-107750000D03*
%TD*%
D14*
%TO.C,J3*%
X117875000Y-75700000D03*
D15*
X116625000Y-75700000D03*
X115375000Y-75700000D03*
X114125000Y-75700000D03*
%TD*%
D10*
%TO.C,SW1*%
X102420000Y-106000000D03*
X102420000Y-109000000D03*
%TD*%
%TO.C,H3*%
X146469581Y-119469581D03*
D11*
X148750000Y-121750000D03*
D10*
X145525000Y-121750000D03*
X146469581Y-124030419D03*
X151975000Y-121750000D03*
X148750000Y-124975000D03*
X148750000Y-118525000D03*
X151030419Y-119469581D03*
X151030419Y-124030419D03*
%TD*%
D16*
%TO.C,J4*%
X113875000Y-120300000D03*
D15*
X115125000Y-120300000D03*
X116375000Y-120300000D03*
X117625000Y-120300000D03*
%TD*%
D10*
%TO.C,H2*%
X101225000Y-76500000D03*
X100280419Y-74219581D03*
X94775000Y-76500000D03*
X95719581Y-78780419D03*
X100280419Y-78780419D03*
X98000000Y-73275000D03*
D11*
X98000000Y-76500000D03*
D10*
X98000000Y-79725000D03*
X95719581Y-74219581D03*
%TD*%
%TO.C,H1*%
X101225000Y-121750000D03*
X98000000Y-124975000D03*
X100280419Y-119469581D03*
X98000000Y-118525000D03*
X100280419Y-124030419D03*
D11*
X98000000Y-121750000D03*
D10*
X95719581Y-124030419D03*
X95719581Y-119469581D03*
X94775000Y-121750000D03*
%TD*%
M02*
