%TF.GenerationSoftware,KiCad,Pcbnew,(6.0.4)*%
%TF.CreationDate,2022-04-20T17:17:17+03:00*%
%TF.ProjectId,STM32F4_Buck_Converter,53544d33-3246-4345-9f42-75636b5f436f,rev?*%
%TF.SameCoordinates,Original*%
%TF.FileFunction,Copper,L3,Inr*%
%TF.FilePolarity,Positive*%
%FSLAX46Y46*%
G04 Gerber Fmt 4.6, Leading zero omitted, Abs format (unit mm)*
G04 Created by KiCad (PCBNEW (6.0.4)) date 2022-04-20 17:17:17*
%MOMM*%
%LPD*%
G01*
G04 APERTURE LIST*
G04 Aperture macros list*
%AMRoundRect*
0 Rectangle with rounded corners*
0 $1 Rounding radius*
0 $2 $3 $4 $5 $6 $7 $8 $9 X,Y pos of 4 corners*
0 Add a 4 corners polygon primitive as box body*
4,1,4,$2,$3,$4,$5,$6,$7,$8,$9,$2,$3,0*
0 Add four circle primitives for the rounded corners*
1,1,$1+$1,$2,$3*
1,1,$1+$1,$4,$5*
1,1,$1+$1,$6,$7*
1,1,$1+$1,$8,$9*
0 Add four rect primitives between the rounded corners*
20,1,$1+$1,$2,$3,$4,$5,0*
20,1,$1+$1,$4,$5,$6,$7,0*
20,1,$1+$1,$6,$7,$8,$9,0*
20,1,$1+$1,$8,$9,$2,$3,0*%
G04 Aperture macros list end*
%TA.AperFunction,ComponentPad*%
%ADD10C,0.900000*%
%TD*%
%TA.AperFunction,ComponentPad*%
%ADD11C,8.600000*%
%TD*%
%TA.AperFunction,ComponentPad*%
%ADD12R,2.600000X2.600000*%
%TD*%
%TA.AperFunction,ComponentPad*%
%ADD13C,2.600000*%
%TD*%
%TA.AperFunction,ComponentPad*%
%ADD14RoundRect,0.200000X0.200000X0.450000X-0.200000X0.450000X-0.200000X-0.450000X0.200000X-0.450000X0*%
%TD*%
%TA.AperFunction,ComponentPad*%
%ADD15O,0.800000X1.300000*%
%TD*%
%TA.AperFunction,ComponentPad*%
%ADD16RoundRect,0.200000X-0.200000X-0.450000X0.200000X-0.450000X0.200000X0.450000X-0.200000X0.450000X0*%
%TD*%
%TA.AperFunction,ViaPad*%
%ADD17C,0.800000*%
%TD*%
%TA.AperFunction,Conductor*%
%ADD18C,0.300000*%
%TD*%
G04 APERTURE END LIST*
D10*
%TO.N,GND*%
%TO.C,H4*%
X148750000Y-79725000D03*
X151030419Y-74219581D03*
D11*
X148750000Y-76500000D03*
D10*
X145525000Y-76500000D03*
X151030419Y-78780419D03*
X151975000Y-76500000D03*
X146469581Y-78780419D03*
X148750000Y-73275000D03*
X146469581Y-74219581D03*
%TD*%
D12*
%TO.N,+12V*%
%TO.C,J1*%
X149805000Y-112750000D03*
D13*
%TO.N,GND*%
X149805000Y-107750000D03*
%TD*%
D14*
%TO.N,+3V3*%
%TO.C,J3*%
X117875000Y-75700000D03*
D15*
%TO.N,I2C1_SCL*%
X116625000Y-75700000D03*
%TO.N,IC21_SDA*%
X115375000Y-75700000D03*
%TO.N,GND*%
X114125000Y-75700000D03*
%TD*%
D10*
%TO.N,GND*%
%TO.C,H3*%
X146469581Y-119469581D03*
D11*
X148750000Y-121750000D03*
D10*
X145525000Y-121750000D03*
X146469581Y-124030419D03*
X151975000Y-121750000D03*
X148750000Y-124975000D03*
X148750000Y-118525000D03*
X151030419Y-119469581D03*
X151030419Y-124030419D03*
%TD*%
D16*
%TO.N,+3V3*%
%TO.C,J4*%
X113875000Y-120300000D03*
D15*
%TO.N,USART3_RX*%
X115125000Y-120300000D03*
%TO.N,USART3_TX*%
X116375000Y-120300000D03*
%TO.N,GND*%
X117625000Y-120300000D03*
%TD*%
D10*
%TO.N,GND*%
%TO.C,H2*%
X101225000Y-76500000D03*
X100280419Y-74219581D03*
X94775000Y-76500000D03*
X95719581Y-78780419D03*
X100280419Y-78780419D03*
X98000000Y-73275000D03*
D11*
X98000000Y-76500000D03*
D10*
X98000000Y-79725000D03*
X95719581Y-74219581D03*
%TD*%
%TO.N,GND*%
%TO.C,H1*%
X101225000Y-121750000D03*
X98000000Y-124975000D03*
X100280419Y-119469581D03*
X98000000Y-118525000D03*
X100280419Y-124030419D03*
D11*
X98000000Y-121750000D03*
D10*
X95719581Y-124030419D03*
X95719581Y-119469581D03*
X94775000Y-121750000D03*
%TD*%
D17*
%TO.N,GND*%
X112522000Y-92456000D03*
X139207192Y-108747872D03*
X105918000Y-109728000D03*
X140462000Y-93726000D03*
X107696000Y-86360000D03*
X137668000Y-102362000D03*
X113538000Y-78994000D03*
X126492000Y-92250500D03*
X140200000Y-110562500D03*
X105918000Y-106680000D03*
X120396000Y-104648000D03*
X138176000Y-106426000D03*
X110744000Y-104648000D03*
%TO.N,+3V3*%
X125476000Y-90424000D03*
X122936000Y-85344000D03*
X109499500Y-88900000D03*
X107696000Y-91440000D03*
%TO.N,SWO*%
X119888000Y-83820000D03*
X117348000Y-87630000D03*
%TO.N,NRST*%
X123698000Y-80010000D03*
X108204000Y-95758000D03*
%TO.N,Net-(R7-Pad2)*%
X113792000Y-88138000D03*
X105918000Y-108204000D03*
%TD*%
D18*
%TO.N,GND*%
X106680000Y-106680000D02*
X106680000Y-109728000D01*
X106680000Y-109728000D02*
X105918000Y-109728000D01*
X105918000Y-106680000D02*
X106680000Y-106680000D01*
X112522000Y-92456000D02*
X126286500Y-92456000D01*
X126286500Y-92456000D02*
X126492000Y-92250500D01*
%TD*%
%TA.AperFunction,Conductor*%
%TO.N,+3V3*%
G36*
X146511162Y-72028502D02*
G01*
X146557655Y-72082158D01*
X146567759Y-72152432D01*
X146538265Y-72217012D01*
X146505755Y-72243784D01*
X146170880Y-72435957D01*
X146168577Y-72437566D01*
X146168570Y-72437571D01*
X145822129Y-72679701D01*
X145819820Y-72681315D01*
X145491961Y-72956909D01*
X145189899Y-73260557D01*
X144916025Y-73589855D01*
X144672508Y-73942194D01*
X144461276Y-74314786D01*
X144284002Y-74704680D01*
X144283080Y-74707306D01*
X144283075Y-74707318D01*
X144243633Y-74819634D01*
X144142089Y-75108790D01*
X144141398Y-75111510D01*
X144141397Y-75111514D01*
X144068355Y-75399120D01*
X144036661Y-75523914D01*
X143968552Y-75946768D01*
X143938302Y-76374001D01*
X143946151Y-76802233D01*
X143992036Y-77228071D01*
X144075594Y-77648144D01*
X144196163Y-78059127D01*
X144197190Y-78061740D01*
X144197190Y-78061741D01*
X144335651Y-78414145D01*
X144352789Y-78457765D01*
X144354044Y-78460276D01*
X144525829Y-78804072D01*
X144544231Y-78840901D01*
X144768974Y-79205502D01*
X145025239Y-79548682D01*
X145027100Y-79550760D01*
X145027101Y-79550761D01*
X145309127Y-79865637D01*
X145309133Y-79865643D01*
X145310995Y-79867722D01*
X145623981Y-80160098D01*
X145961719Y-80423493D01*
X146321533Y-80655822D01*
X146324012Y-80657126D01*
X146324015Y-80657128D01*
X146698077Y-80853932D01*
X146698083Y-80853935D01*
X146700577Y-80855247D01*
X146703175Y-80856331D01*
X146703179Y-80856333D01*
X147093263Y-81019109D01*
X147093268Y-81019111D01*
X147095847Y-81020187D01*
X147098512Y-81021030D01*
X147098518Y-81021032D01*
X147320561Y-81091254D01*
X147504214Y-81149336D01*
X147922446Y-81241673D01*
X147925220Y-81242031D01*
X147925221Y-81242031D01*
X148344460Y-81296109D01*
X148344467Y-81296110D01*
X148347230Y-81296466D01*
X148350017Y-81296576D01*
X148350023Y-81296576D01*
X148598238Y-81306328D01*
X148775203Y-81313281D01*
X148777995Y-81313142D01*
X148778000Y-81313142D01*
X149200172Y-81292125D01*
X149200181Y-81292124D01*
X149202976Y-81291985D01*
X149205753Y-81291597D01*
X149205755Y-81291597D01*
X149280066Y-81281219D01*
X149627163Y-81232747D01*
X150044404Y-81136036D01*
X150258307Y-81065915D01*
X150448744Y-81003487D01*
X150448750Y-81003485D01*
X150451397Y-81002617D01*
X150844918Y-80833547D01*
X150905020Y-80801118D01*
X150954040Y-80774668D01*
X151221852Y-80630164D01*
X151579214Y-80394080D01*
X151914175Y-80127162D01*
X152224082Y-79831525D01*
X152225919Y-79829431D01*
X152225927Y-79829422D01*
X152504635Y-79511616D01*
X152506482Y-79509510D01*
X152528937Y-79478774D01*
X152739750Y-79190206D01*
X152759139Y-79163666D01*
X152771045Y-79143891D01*
X152978601Y-78799142D01*
X152978606Y-78799133D01*
X152980052Y-78796731D01*
X153002204Y-78751212D01*
X153049998Y-78698712D01*
X153118589Y-78680386D01*
X153186199Y-78702052D01*
X153231362Y-78756831D01*
X153241500Y-78806348D01*
X153241500Y-119449348D01*
X153221498Y-119517469D01*
X153167842Y-119563962D01*
X153097568Y-119574066D01*
X153032988Y-119544572D01*
X153004300Y-119508598D01*
X152972730Y-119449348D01*
X152893050Y-119299807D01*
X152883264Y-119284824D01*
X152660381Y-118943573D01*
X152660378Y-118943569D01*
X152658840Y-118941214D01*
X152393680Y-118604860D01*
X152099670Y-118293409D01*
X152097579Y-118291556D01*
X152097571Y-118291548D01*
X151781237Y-118011188D01*
X151781235Y-118011186D01*
X151779137Y-118009327D01*
X151434621Y-117754863D01*
X151241733Y-117637355D01*
X151071237Y-117533487D01*
X151071230Y-117533483D01*
X151068848Y-117532032D01*
X150951514Y-117474169D01*
X150687228Y-117343838D01*
X150684714Y-117342598D01*
X150285262Y-117188062D01*
X150038678Y-117117122D01*
X149876335Y-117070417D01*
X149876329Y-117070415D01*
X149873654Y-117069646D01*
X149870917Y-117069117D01*
X149870911Y-117069115D01*
X149725828Y-117041046D01*
X149453148Y-116988289D01*
X149450374Y-116988005D01*
X149450362Y-116988003D01*
X149167111Y-116958982D01*
X149027076Y-116944634D01*
X149024286Y-116944597D01*
X149024278Y-116944597D01*
X148756825Y-116941096D01*
X148598809Y-116939028D01*
X148596009Y-116939241D01*
X148596008Y-116939241D01*
X148521364Y-116944919D01*
X148171740Y-116971514D01*
X147749249Y-117041836D01*
X147663671Y-117064048D01*
X147337400Y-117148731D01*
X147337389Y-117148734D01*
X147334682Y-117149437D01*
X147076575Y-117241599D01*
X146933964Y-117292520D01*
X146933959Y-117292522D01*
X146931321Y-117293464D01*
X146928781Y-117294635D01*
X146928776Y-117294637D01*
X146826930Y-117341589D01*
X146542361Y-117472777D01*
X146170880Y-117685957D01*
X146168577Y-117687566D01*
X146168570Y-117687571D01*
X145822129Y-117929701D01*
X145819820Y-117931315D01*
X145491961Y-118206909D01*
X145189899Y-118510557D01*
X144916025Y-118839855D01*
X144914431Y-118842162D01*
X144914429Y-118842164D01*
X144678247Y-119183891D01*
X144672508Y-119192194D01*
X144461276Y-119564786D01*
X144460117Y-119567335D01*
X144460115Y-119567339D01*
X144412201Y-119672721D01*
X144284002Y-119954680D01*
X144283080Y-119957306D01*
X144283075Y-119957318D01*
X144243633Y-120069634D01*
X144142089Y-120358790D01*
X144141398Y-120361510D01*
X144141397Y-120361514D01*
X144091022Y-120559865D01*
X144036661Y-120773914D01*
X143968552Y-121196768D01*
X143938302Y-121624001D01*
X143946151Y-122052233D01*
X143992036Y-122478071D01*
X144075594Y-122898144D01*
X144196163Y-123309127D01*
X144197190Y-123311740D01*
X144197190Y-123311741D01*
X144335651Y-123664145D01*
X144352789Y-123707765D01*
X144354044Y-123710276D01*
X144522161Y-124046731D01*
X144544231Y-124090901D01*
X144768974Y-124455502D01*
X145025239Y-124798682D01*
X145027100Y-124800760D01*
X145027101Y-124800761D01*
X145309127Y-125115637D01*
X145309133Y-125115643D01*
X145310995Y-125117722D01*
X145623981Y-125410098D01*
X145961719Y-125673493D01*
X146321533Y-125905822D01*
X146508125Y-126003993D01*
X146559096Y-126053411D01*
X146575259Y-126122544D01*
X146551480Y-126189440D01*
X146495309Y-126232860D01*
X146449456Y-126241500D01*
X100301042Y-126241500D01*
X100232921Y-126221498D01*
X100186428Y-126167842D01*
X100176324Y-126097568D01*
X100205818Y-126032988D01*
X100241210Y-126004612D01*
X100424299Y-125905822D01*
X100471852Y-125880164D01*
X100829214Y-125644080D01*
X101164175Y-125377162D01*
X101474082Y-125081525D01*
X101475919Y-125079431D01*
X101475927Y-125079422D01*
X101725113Y-124795279D01*
X101756482Y-124759510D01*
X102009139Y-124413666D01*
X102010585Y-124411265D01*
X102228601Y-124049142D01*
X102228606Y-124049133D01*
X102230052Y-124046731D01*
X102417471Y-123661611D01*
X102550724Y-123311741D01*
X102568918Y-123263971D01*
X102568920Y-123263964D01*
X102569914Y-123261355D01*
X102686173Y-122849132D01*
X102686689Y-122846389D01*
X102764811Y-122430954D01*
X102764813Y-122430942D01*
X102765327Y-122428207D01*
X102806750Y-122001911D01*
X102812836Y-121769528D01*
X102813289Y-121752234D01*
X102813289Y-121752220D01*
X102813347Y-121750000D01*
X102794291Y-121322121D01*
X102791242Y-121299417D01*
X102741257Y-120927279D01*
X102737275Y-120897630D01*
X102731774Y-120873315D01*
X102716023Y-120803705D01*
X112967001Y-120803705D01*
X112967264Y-120809454D01*
X112973132Y-120873315D01*
X112975743Y-120886351D01*
X113022715Y-121036243D01*
X113028921Y-121049988D01*
X113109824Y-121183574D01*
X113119131Y-121195443D01*
X113229557Y-121305869D01*
X113241426Y-121315176D01*
X113375012Y-121396079D01*
X113388757Y-121402285D01*
X113538644Y-121449256D01*
X113551694Y-121451869D01*
X113606586Y-121456913D01*
X113618124Y-121453525D01*
X113619329Y-121452135D01*
X113621000Y-121444452D01*
X113621000Y-121439884D01*
X114129000Y-121439884D01*
X114133475Y-121455123D01*
X114134865Y-121456328D01*
X114139294Y-121457291D01*
X114198315Y-121451868D01*
X114211351Y-121449257D01*
X114361243Y-121402285D01*
X114374988Y-121396079D01*
X114504578Y-121317596D01*
X114573208Y-121299417D01*
X114643911Y-121323436D01*
X114668248Y-121341118D01*
X114674276Y-121343802D01*
X114674278Y-121343803D01*
X114791693Y-121396079D01*
X114842712Y-121418794D01*
X114936112Y-121438647D01*
X115023056Y-121457128D01*
X115023061Y-121457128D01*
X115029513Y-121458500D01*
X115220487Y-121458500D01*
X115226939Y-121457128D01*
X115226944Y-121457128D01*
X115313888Y-121438647D01*
X115407288Y-121418794D01*
X115458307Y-121396079D01*
X115575722Y-121343803D01*
X115575724Y-121343802D01*
X115581752Y-121341118D01*
X115675939Y-121272687D01*
X115742807Y-121248828D01*
X115811958Y-121264909D01*
X115824061Y-121272687D01*
X115918248Y-121341118D01*
X115924276Y-121343802D01*
X115924278Y-121343803D01*
X116041693Y-121396079D01*
X116092712Y-121418794D01*
X116186112Y-121438647D01*
X116273056Y-121457128D01*
X116273061Y-121457128D01*
X116279513Y-121458500D01*
X116470487Y-121458500D01*
X116476939Y-121457128D01*
X116476944Y-121457128D01*
X116563888Y-121438647D01*
X116657288Y-121418794D01*
X116708307Y-121396079D01*
X116825722Y-121343803D01*
X116825724Y-121343802D01*
X116831752Y-121341118D01*
X116925939Y-121272687D01*
X116992807Y-121248828D01*
X117061958Y-121264909D01*
X117074061Y-121272687D01*
X117168248Y-121341118D01*
X117174276Y-121343802D01*
X117174278Y-121343803D01*
X117291693Y-121396079D01*
X117342712Y-121418794D01*
X117436112Y-121438647D01*
X117523056Y-121457128D01*
X117523061Y-121457128D01*
X117529513Y-121458500D01*
X117720487Y-121458500D01*
X117726939Y-121457128D01*
X117726944Y-121457128D01*
X117813888Y-121438647D01*
X117907288Y-121418794D01*
X117958307Y-121396079D01*
X118075722Y-121343803D01*
X118075724Y-121343802D01*
X118081752Y-121341118D01*
X118236253Y-121228866D01*
X118364040Y-121086944D01*
X118459527Y-120921556D01*
X118518542Y-120739928D01*
X118533500Y-120597610D01*
X118533500Y-120002390D01*
X118518542Y-119860072D01*
X118459527Y-119678444D01*
X118364040Y-119513056D01*
X118302517Y-119444727D01*
X118240675Y-119376045D01*
X118240674Y-119376044D01*
X118236253Y-119371134D01*
X118081752Y-119258882D01*
X118075724Y-119256198D01*
X118075722Y-119256197D01*
X117913319Y-119183891D01*
X117913318Y-119183891D01*
X117907288Y-119181206D01*
X117808068Y-119160116D01*
X117726944Y-119142872D01*
X117726939Y-119142872D01*
X117720487Y-119141500D01*
X117529513Y-119141500D01*
X117523061Y-119142872D01*
X117523056Y-119142872D01*
X117441932Y-119160116D01*
X117342712Y-119181206D01*
X117336682Y-119183891D01*
X117336681Y-119183891D01*
X117174278Y-119256197D01*
X117174276Y-119256198D01*
X117168248Y-119258882D01*
X117162907Y-119262762D01*
X117162906Y-119262763D01*
X117074061Y-119327313D01*
X117007193Y-119351172D01*
X116938042Y-119335091D01*
X116925939Y-119327313D01*
X116837094Y-119262763D01*
X116837093Y-119262762D01*
X116831752Y-119258882D01*
X116825724Y-119256198D01*
X116825722Y-119256197D01*
X116663319Y-119183891D01*
X116663318Y-119183891D01*
X116657288Y-119181206D01*
X116558068Y-119160116D01*
X116476944Y-119142872D01*
X116476939Y-119142872D01*
X116470487Y-119141500D01*
X116279513Y-119141500D01*
X116273061Y-119142872D01*
X116273056Y-119142872D01*
X116191932Y-119160116D01*
X116092712Y-119181206D01*
X116086682Y-119183891D01*
X116086681Y-119183891D01*
X115924278Y-119256197D01*
X115924276Y-119256198D01*
X115918248Y-119258882D01*
X115912907Y-119262762D01*
X115912906Y-119262763D01*
X115824061Y-119327313D01*
X115757193Y-119351172D01*
X115688042Y-119335091D01*
X115675939Y-119327313D01*
X115587094Y-119262763D01*
X115587093Y-119262762D01*
X115581752Y-119258882D01*
X115575724Y-119256198D01*
X115575722Y-119256197D01*
X115413319Y-119183891D01*
X115413318Y-119183891D01*
X115407288Y-119181206D01*
X115308068Y-119160116D01*
X115226944Y-119142872D01*
X115226939Y-119142872D01*
X115220487Y-119141500D01*
X115029513Y-119141500D01*
X115023061Y-119142872D01*
X115023056Y-119142872D01*
X114941932Y-119160116D01*
X114842712Y-119181206D01*
X114836682Y-119183891D01*
X114836681Y-119183891D01*
X114674278Y-119256197D01*
X114674276Y-119256198D01*
X114668248Y-119258882D01*
X114662907Y-119262762D01*
X114662906Y-119262763D01*
X114643911Y-119276564D01*
X114577044Y-119300422D01*
X114504578Y-119282404D01*
X114374988Y-119203921D01*
X114361243Y-119197715D01*
X114211356Y-119150744D01*
X114198306Y-119148131D01*
X114143414Y-119143087D01*
X114131876Y-119146475D01*
X114130671Y-119147865D01*
X114129000Y-119155548D01*
X114129000Y-121439884D01*
X113621000Y-121439884D01*
X113621000Y-120572115D01*
X113616525Y-120556876D01*
X113615135Y-120555671D01*
X113607452Y-120554000D01*
X112985116Y-120554000D01*
X112969877Y-120558475D01*
X112968672Y-120559865D01*
X112967001Y-120567548D01*
X112967001Y-120803705D01*
X102716023Y-120803705D01*
X102643368Y-120482618D01*
X102643368Y-120482617D01*
X102642750Y-120479887D01*
X102511463Y-120072202D01*
X102492697Y-120027885D01*
X112967000Y-120027885D01*
X112971475Y-120043124D01*
X112972865Y-120044329D01*
X112980548Y-120046000D01*
X113602885Y-120046000D01*
X113618124Y-120041525D01*
X113619329Y-120040135D01*
X113621000Y-120032452D01*
X113621000Y-119160116D01*
X113616525Y-119144877D01*
X113615135Y-119143672D01*
X113610706Y-119142709D01*
X113551685Y-119148132D01*
X113538649Y-119150743D01*
X113388757Y-119197715D01*
X113375012Y-119203921D01*
X113241426Y-119284824D01*
X113229557Y-119294131D01*
X113119131Y-119404557D01*
X113109824Y-119416426D01*
X113028921Y-119550012D01*
X113022715Y-119563757D01*
X112975744Y-119713644D01*
X112973131Y-119726694D01*
X112967266Y-119790521D01*
X112967000Y-119796309D01*
X112967000Y-120027885D01*
X102492697Y-120027885D01*
X102392187Y-119790521D01*
X102345550Y-119680384D01*
X102345548Y-119680379D01*
X102344456Y-119677801D01*
X102143050Y-119299807D01*
X102133264Y-119284824D01*
X101910381Y-118943573D01*
X101910378Y-118943569D01*
X101908840Y-118941214D01*
X101643680Y-118604860D01*
X101349670Y-118293409D01*
X101347579Y-118291556D01*
X101347571Y-118291548D01*
X101031237Y-118011188D01*
X101031235Y-118011186D01*
X101029137Y-118009327D01*
X100684621Y-117754863D01*
X100491733Y-117637355D01*
X100321237Y-117533487D01*
X100321230Y-117533483D01*
X100318848Y-117532032D01*
X100201514Y-117474169D01*
X99937228Y-117343838D01*
X99934714Y-117342598D01*
X99535262Y-117188062D01*
X99288678Y-117117122D01*
X99126335Y-117070417D01*
X99126329Y-117070415D01*
X99123654Y-117069646D01*
X99120917Y-117069117D01*
X99120911Y-117069115D01*
X98975828Y-117041046D01*
X98703148Y-116988289D01*
X98700374Y-116988005D01*
X98700362Y-116988003D01*
X98417111Y-116958982D01*
X98277076Y-116944634D01*
X98274286Y-116944597D01*
X98274278Y-116944597D01*
X98006825Y-116941096D01*
X97848809Y-116939028D01*
X97846009Y-116939241D01*
X97846008Y-116939241D01*
X97771364Y-116944919D01*
X97421740Y-116971514D01*
X96999249Y-117041836D01*
X96913671Y-117064048D01*
X96587400Y-117148731D01*
X96587389Y-117148734D01*
X96584682Y-117149437D01*
X96326575Y-117241599D01*
X96183964Y-117292520D01*
X96183959Y-117292522D01*
X96181321Y-117293464D01*
X96178781Y-117294635D01*
X96178776Y-117294637D01*
X96076930Y-117341589D01*
X95792361Y-117472777D01*
X95420880Y-117685957D01*
X95418577Y-117687566D01*
X95418570Y-117687571D01*
X95072129Y-117929701D01*
X95069820Y-117931315D01*
X94741961Y-118206909D01*
X94439899Y-118510557D01*
X94166025Y-118839855D01*
X94164431Y-118842162D01*
X94164429Y-118842164D01*
X93928247Y-119183891D01*
X93922508Y-119192194D01*
X93802114Y-119404557D01*
X93744111Y-119506868D01*
X93693114Y-119556263D01*
X93623508Y-119570247D01*
X93557392Y-119544378D01*
X93515757Y-119486871D01*
X93508500Y-119444727D01*
X93508500Y-114098134D01*
X147996500Y-114098134D01*
X148003255Y-114160316D01*
X148054385Y-114296705D01*
X148141739Y-114413261D01*
X148258295Y-114500615D01*
X148394684Y-114551745D01*
X148456866Y-114558500D01*
X151153134Y-114558500D01*
X151215316Y-114551745D01*
X151351705Y-114500615D01*
X151468261Y-114413261D01*
X151555615Y-114296705D01*
X151606745Y-114160316D01*
X151613500Y-114098134D01*
X151613500Y-111401866D01*
X151606745Y-111339684D01*
X151555615Y-111203295D01*
X151468261Y-111086739D01*
X151351705Y-110999385D01*
X151215316Y-110948255D01*
X151153134Y-110941500D01*
X148456866Y-110941500D01*
X148394684Y-110948255D01*
X148258295Y-110999385D01*
X148141739Y-111086739D01*
X148054385Y-111203295D01*
X148003255Y-111339684D01*
X147996500Y-111401866D01*
X147996500Y-114098134D01*
X93508500Y-114098134D01*
X93508500Y-109047064D01*
X101457707Y-109047064D01*
X101486825Y-109239599D01*
X101489028Y-109245585D01*
X101489029Y-109245591D01*
X101551860Y-109416360D01*
X101551862Y-109416365D01*
X101554063Y-109422346D01*
X101602355Y-109500233D01*
X101622798Y-109533203D01*
X101656674Y-109587840D01*
X101790466Y-109729322D01*
X101795696Y-109732984D01*
X101795697Y-109732985D01*
X101848098Y-109769676D01*
X101949975Y-109841011D01*
X101955838Y-109843548D01*
X102122825Y-109915810D01*
X102122829Y-109915811D01*
X102128684Y-109918345D01*
X102134931Y-109919650D01*
X102134934Y-109919651D01*
X102314557Y-109957176D01*
X102314562Y-109957177D01*
X102319293Y-109958165D01*
X102325685Y-109958500D01*
X102468663Y-109958500D01*
X102537951Y-109951462D01*
X102607378Y-109944410D01*
X102607379Y-109944410D01*
X102613727Y-109943765D01*
X102672598Y-109925316D01*
X102793451Y-109887444D01*
X102793456Y-109887442D01*
X102799541Y-109885535D01*
X102933665Y-109811188D01*
X102964271Y-109794223D01*
X102964274Y-109794221D01*
X102969850Y-109791130D01*
X102974691Y-109786981D01*
X102974695Y-109786978D01*
X103043505Y-109728000D01*
X105004496Y-109728000D01*
X105005186Y-109734565D01*
X105020854Y-109883634D01*
X105024458Y-109917928D01*
X105083473Y-110099556D01*
X105086776Y-110105278D01*
X105086777Y-110105279D01*
X105094198Y-110118133D01*
X105178960Y-110264944D01*
X105183378Y-110269851D01*
X105183379Y-110269852D01*
X105302325Y-110401955D01*
X105306747Y-110406866D01*
X105461248Y-110519118D01*
X105467276Y-110521802D01*
X105467278Y-110521803D01*
X105558686Y-110562500D01*
X105635712Y-110596794D01*
X105729112Y-110616647D01*
X105816056Y-110635128D01*
X105816061Y-110635128D01*
X105822513Y-110636500D01*
X106013487Y-110636500D01*
X106019939Y-110635128D01*
X106019944Y-110635128D01*
X106106888Y-110616647D01*
X106200288Y-110596794D01*
X106277314Y-110562500D01*
X139286496Y-110562500D01*
X139306458Y-110752428D01*
X139365473Y-110934056D01*
X139460960Y-111099444D01*
X139588747Y-111241366D01*
X139687843Y-111313364D01*
X139724070Y-111339684D01*
X139743248Y-111353618D01*
X139749276Y-111356302D01*
X139749278Y-111356303D01*
X139843985Y-111398469D01*
X139917712Y-111431294D01*
X140011113Y-111451147D01*
X140098056Y-111469628D01*
X140098061Y-111469628D01*
X140104513Y-111471000D01*
X140295487Y-111471000D01*
X140301939Y-111469628D01*
X140301944Y-111469628D01*
X140388887Y-111451147D01*
X140482288Y-111431294D01*
X140556015Y-111398469D01*
X140650722Y-111356303D01*
X140650724Y-111356302D01*
X140656752Y-111353618D01*
X140675931Y-111339684D01*
X140712157Y-111313364D01*
X140811253Y-111241366D01*
X140939040Y-111099444D01*
X141034527Y-110934056D01*
X141093542Y-110752428D01*
X141113504Y-110562500D01*
X141097535Y-110410564D01*
X141094232Y-110379135D01*
X141094232Y-110379133D01*
X141093542Y-110372572D01*
X141034527Y-110190944D01*
X140939040Y-110025556D01*
X140897379Y-109979286D01*
X140815675Y-109888545D01*
X140815674Y-109888544D01*
X140811253Y-109883634D01*
X140683933Y-109791130D01*
X140662094Y-109775263D01*
X140662093Y-109775262D01*
X140656752Y-109771382D01*
X140650724Y-109768698D01*
X140650722Y-109768697D01*
X140488319Y-109696391D01*
X140488318Y-109696391D01*
X140482288Y-109693706D01*
X140388887Y-109673853D01*
X140301944Y-109655372D01*
X140301939Y-109655372D01*
X140295487Y-109654000D01*
X140104513Y-109654000D01*
X140098061Y-109655372D01*
X140098056Y-109655372D01*
X140011113Y-109673853D01*
X139917712Y-109693706D01*
X139911685Y-109696389D01*
X139911677Y-109696392D01*
X139807503Y-109742773D01*
X139751165Y-109750326D01*
X139732539Y-109778712D01*
X139725007Y-109784635D01*
X139588747Y-109883634D01*
X139584326Y-109888544D01*
X139584325Y-109888545D01*
X139502622Y-109979286D01*
X139460960Y-110025556D01*
X139365473Y-110190944D01*
X139306458Y-110372572D01*
X139305768Y-110379133D01*
X139305768Y-110379135D01*
X139302465Y-110410564D01*
X139286496Y-110562500D01*
X106277314Y-110562500D01*
X106368722Y-110521803D01*
X106368724Y-110521802D01*
X106374752Y-110519118D01*
X106524163Y-110410564D01*
X106591031Y-110386706D01*
X106598224Y-110386500D01*
X106605845Y-110386500D01*
X106629454Y-110388732D01*
X106630538Y-110388939D01*
X106630540Y-110388939D01*
X106638324Y-110390424D01*
X106696736Y-110386749D01*
X106704647Y-110386500D01*
X106721432Y-110386500D01*
X106738090Y-110384396D01*
X106745966Y-110383652D01*
X106796461Y-110380475D01*
X106796463Y-110380475D01*
X106804371Y-110379977D01*
X106812951Y-110377189D01*
X106836105Y-110372014D01*
X106837203Y-110371875D01*
X106845064Y-110370882D01*
X106852429Y-110367966D01*
X106852433Y-110367965D01*
X106899506Y-110349327D01*
X106906956Y-110346645D01*
X106955061Y-110331015D01*
X106955062Y-110331015D01*
X106962604Y-110328564D01*
X106969298Y-110324316D01*
X106969304Y-110324313D01*
X106970232Y-110323724D01*
X106991355Y-110312961D01*
X106999756Y-110309635D01*
X107047116Y-110275226D01*
X107053663Y-110270777D01*
X107071864Y-110259226D01*
X107103080Y-110239416D01*
X107109268Y-110232827D01*
X107127051Y-110217149D01*
X107134357Y-110211841D01*
X107139412Y-110205731D01*
X107171665Y-110166745D01*
X107176896Y-110160811D01*
X107211547Y-110123910D01*
X107216972Y-110118133D01*
X107220788Y-110111191D01*
X107220792Y-110111186D01*
X107221325Y-110110216D01*
X107234652Y-110090605D01*
X107235356Y-110089754D01*
X107240409Y-110083646D01*
X107265331Y-110030685D01*
X107268924Y-110023633D01*
X107293304Y-109979286D01*
X107293305Y-109979285D01*
X107297124Y-109972337D01*
X107299370Y-109963590D01*
X107307403Y-109941278D01*
X107307873Y-109940280D01*
X107307874Y-109940277D01*
X107311249Y-109933105D01*
X107313816Y-109919651D01*
X107320913Y-109882442D01*
X107322219Y-109875596D01*
X107323945Y-109867875D01*
X107330191Y-109843548D01*
X107338500Y-109811188D01*
X107338500Y-109802155D01*
X107340732Y-109778546D01*
X107340939Y-109777462D01*
X107340939Y-109777460D01*
X107342424Y-109769676D01*
X107338749Y-109711264D01*
X107338500Y-109703353D01*
X107338500Y-108747872D01*
X138293688Y-108747872D01*
X138313650Y-108937800D01*
X138372665Y-109119428D01*
X138468152Y-109284816D01*
X138472570Y-109289723D01*
X138472571Y-109289724D01*
X138591517Y-109421827D01*
X138595939Y-109426738D01*
X138649918Y-109465956D01*
X138740836Y-109532012D01*
X138750440Y-109538990D01*
X138756468Y-109541674D01*
X138756470Y-109541675D01*
X138918871Y-109613980D01*
X138924904Y-109616666D01*
X139018304Y-109636519D01*
X139105248Y-109655000D01*
X139105253Y-109655000D01*
X139111705Y-109656372D01*
X139302679Y-109656372D01*
X139309131Y-109655000D01*
X139309136Y-109655000D01*
X139396080Y-109636519D01*
X139489480Y-109616666D01*
X139495507Y-109613983D01*
X139495515Y-109613980D01*
X139599689Y-109567599D01*
X139656027Y-109560046D01*
X139674653Y-109531660D01*
X139682185Y-109525737D01*
X139818445Y-109426738D01*
X139822867Y-109421827D01*
X139941813Y-109289724D01*
X139941814Y-109289723D01*
X139946232Y-109284816D01*
X140041719Y-109119428D01*
X140100734Y-108937800D01*
X140120696Y-108747872D01*
X140100734Y-108557944D01*
X140041719Y-108376316D01*
X139946232Y-108210928D01*
X139862162Y-108117558D01*
X139822867Y-108073917D01*
X139822866Y-108073916D01*
X139818445Y-108069006D01*
X139683578Y-107971019D01*
X139669286Y-107960635D01*
X139669285Y-107960634D01*
X139663944Y-107956754D01*
X139657916Y-107954070D01*
X139657914Y-107954069D01*
X139495511Y-107881763D01*
X139495510Y-107881763D01*
X139489480Y-107879078D01*
X139396080Y-107859225D01*
X139309136Y-107840744D01*
X139309131Y-107840744D01*
X139302679Y-107839372D01*
X139111705Y-107839372D01*
X139105253Y-107840744D01*
X139105248Y-107840744D01*
X139018305Y-107859225D01*
X138924904Y-107879078D01*
X138918874Y-107881763D01*
X138918873Y-107881763D01*
X138756470Y-107954069D01*
X138756468Y-107954070D01*
X138750440Y-107956754D01*
X138745099Y-107960634D01*
X138745098Y-107960635D01*
X138730806Y-107971019D01*
X138595939Y-108069006D01*
X138591518Y-108073916D01*
X138591517Y-108073917D01*
X138552223Y-108117558D01*
X138468152Y-108210928D01*
X138372665Y-108376316D01*
X138313650Y-108557944D01*
X138293688Y-108747872D01*
X107338500Y-108747872D01*
X107338500Y-107702526D01*
X147992050Y-107702526D01*
X148004947Y-107971019D01*
X148057388Y-108234656D01*
X148148220Y-108487646D01*
X148150432Y-108491762D01*
X148150433Y-108491765D01*
X148182619Y-108551666D01*
X148275450Y-108724431D01*
X148278241Y-108728168D01*
X148278245Y-108728175D01*
X148359887Y-108837506D01*
X148436281Y-108939810D01*
X148439590Y-108943090D01*
X148439595Y-108943096D01*
X148623247Y-109125151D01*
X148627180Y-109129050D01*
X148630942Y-109131808D01*
X148630945Y-109131811D01*
X148719544Y-109196774D01*
X148843954Y-109287995D01*
X148848089Y-109290171D01*
X148848093Y-109290173D01*
X149077698Y-109410975D01*
X149081840Y-109413154D01*
X149335613Y-109501775D01*
X149340206Y-109502647D01*
X149595109Y-109551042D01*
X149595112Y-109551042D01*
X149599698Y-109551913D01*
X149727370Y-109556929D01*
X149863625Y-109562283D01*
X149863630Y-109562283D01*
X149868293Y-109562466D01*
X149972607Y-109551042D01*
X150130844Y-109533713D01*
X150130850Y-109533712D01*
X150135497Y-109533203D01*
X150141358Y-109531660D01*
X150390918Y-109465956D01*
X150390920Y-109465955D01*
X150395441Y-109464765D01*
X150399738Y-109462919D01*
X150638120Y-109360502D01*
X150638122Y-109360501D01*
X150642414Y-109358657D01*
X150834810Y-109239599D01*
X150867017Y-109219669D01*
X150867021Y-109219666D01*
X150870990Y-109217210D01*
X151076149Y-109043530D01*
X151253382Y-108841434D01*
X151309341Y-108754437D01*
X151396269Y-108619291D01*
X151398797Y-108615361D01*
X151509199Y-108370278D01*
X151510469Y-108365775D01*
X151580893Y-108116072D01*
X151580894Y-108116069D01*
X151582163Y-108111568D01*
X151600043Y-107971019D01*
X151615688Y-107848045D01*
X151615688Y-107848041D01*
X151616086Y-107844915D01*
X151616196Y-107840744D01*
X151618488Y-107753160D01*
X151618571Y-107750000D01*
X151598650Y-107481937D01*
X151597619Y-107477379D01*
X151540361Y-107224331D01*
X151540360Y-107224326D01*
X151539327Y-107219763D01*
X151441902Y-106969238D01*
X151308518Y-106735864D01*
X151299706Y-106724685D01*
X151215595Y-106617991D01*
X151142105Y-106524769D01*
X150946317Y-106340591D01*
X150780621Y-106225643D01*
X150729299Y-106190039D01*
X150729296Y-106190037D01*
X150725457Y-106187374D01*
X150721264Y-106185306D01*
X150488564Y-106070551D01*
X150488561Y-106070550D01*
X150484376Y-106068486D01*
X150466851Y-106062876D01*
X150337591Y-106021500D01*
X150228370Y-105986538D01*
X150223763Y-105985788D01*
X150223760Y-105985787D01*
X149967674Y-105944081D01*
X149967675Y-105944081D01*
X149963063Y-105943330D01*
X149832719Y-105941624D01*
X149698961Y-105939873D01*
X149698958Y-105939873D01*
X149694284Y-105939812D01*
X149427937Y-105976060D01*
X149169874Y-106051278D01*
X149165621Y-106053238D01*
X149165620Y-106053239D01*
X149144716Y-106062876D01*
X148925763Y-106163815D01*
X148921854Y-106166378D01*
X148704881Y-106308631D01*
X148704876Y-106308635D01*
X148700968Y-106311197D01*
X148673370Y-106335829D01*
X148570362Y-106427768D01*
X148500426Y-106490188D01*
X148328544Y-106696854D01*
X148326121Y-106700847D01*
X148195678Y-106915810D01*
X148189096Y-106926656D01*
X148187287Y-106930970D01*
X148187285Y-106930974D01*
X148173879Y-106962944D01*
X148085148Y-107174545D01*
X148018981Y-107435077D01*
X147992050Y-107702526D01*
X107338500Y-107702526D01*
X107338500Y-106754155D01*
X107340732Y-106730546D01*
X107340939Y-106729462D01*
X107340939Y-106729460D01*
X107342424Y-106721676D01*
X107338749Y-106663264D01*
X107338500Y-106655353D01*
X107338500Y-106638568D01*
X107336396Y-106621910D01*
X107335652Y-106614034D01*
X107332475Y-106563539D01*
X107332475Y-106563537D01*
X107331977Y-106555629D01*
X107329189Y-106547049D01*
X107324014Y-106523895D01*
X107323875Y-106522797D01*
X107322882Y-106514936D01*
X107319966Y-106507571D01*
X107319965Y-106507567D01*
X107301327Y-106460494D01*
X107298645Y-106453044D01*
X107289858Y-106426000D01*
X137262496Y-106426000D01*
X137263186Y-106432565D01*
X137274028Y-106535717D01*
X137282458Y-106615928D01*
X137341473Y-106797556D01*
X137344776Y-106803278D01*
X137344777Y-106803279D01*
X137378686Y-106862010D01*
X137436960Y-106962944D01*
X137441378Y-106967851D01*
X137441379Y-106967852D01*
X137560325Y-107099955D01*
X137564747Y-107104866D01*
X137719248Y-107217118D01*
X137725276Y-107219802D01*
X137725278Y-107219803D01*
X137887681Y-107292109D01*
X137893712Y-107294794D01*
X137987113Y-107314647D01*
X138074056Y-107333128D01*
X138074061Y-107333128D01*
X138080513Y-107334500D01*
X138271487Y-107334500D01*
X138277939Y-107333128D01*
X138277944Y-107333128D01*
X138364887Y-107314647D01*
X138458288Y-107294794D01*
X138464319Y-107292109D01*
X138626722Y-107219803D01*
X138626724Y-107219802D01*
X138632752Y-107217118D01*
X138787253Y-107104866D01*
X138791675Y-107099955D01*
X138910621Y-106967852D01*
X138910622Y-106967851D01*
X138915040Y-106962944D01*
X138973314Y-106862010D01*
X139007223Y-106803279D01*
X139007224Y-106803278D01*
X139010527Y-106797556D01*
X139069542Y-106615928D01*
X139077973Y-106535717D01*
X139088814Y-106432565D01*
X139089504Y-106426000D01*
X139077809Y-106314729D01*
X139070232Y-106242635D01*
X139070232Y-106242633D01*
X139069542Y-106236072D01*
X139010527Y-106054444D01*
X138915040Y-105889056D01*
X138793804Y-105754409D01*
X138791675Y-105752045D01*
X138791674Y-105752044D01*
X138787253Y-105747134D01*
X138632752Y-105634882D01*
X138626724Y-105632198D01*
X138626722Y-105632197D01*
X138464319Y-105559891D01*
X138464318Y-105559891D01*
X138458288Y-105557206D01*
X138364887Y-105537353D01*
X138277944Y-105518872D01*
X138277939Y-105518872D01*
X138271487Y-105517500D01*
X138080513Y-105517500D01*
X138074061Y-105518872D01*
X138074056Y-105518872D01*
X137987112Y-105537353D01*
X137893712Y-105557206D01*
X137887682Y-105559891D01*
X137887681Y-105559891D01*
X137725278Y-105632197D01*
X137725276Y-105632198D01*
X137719248Y-105634882D01*
X137564747Y-105747134D01*
X137560326Y-105752044D01*
X137560325Y-105752045D01*
X137558197Y-105754409D01*
X137436960Y-105889056D01*
X137341473Y-106054444D01*
X137282458Y-106236072D01*
X137281768Y-106242633D01*
X137281768Y-106242635D01*
X137274191Y-106314729D01*
X137262496Y-106426000D01*
X107289858Y-106426000D01*
X107283015Y-106404939D01*
X107283015Y-106404938D01*
X107280564Y-106397396D01*
X107276316Y-106390702D01*
X107276313Y-106390696D01*
X107275724Y-106389768D01*
X107264960Y-106368643D01*
X107264554Y-106367618D01*
X107261635Y-106360244D01*
X107227226Y-106312884D01*
X107222777Y-106306337D01*
X107195665Y-106263616D01*
X107191416Y-106256920D01*
X107184827Y-106250732D01*
X107169149Y-106232949D01*
X107168500Y-106232056D01*
X107163841Y-106225643D01*
X107157731Y-106220588D01*
X107118745Y-106188335D01*
X107112811Y-106183104D01*
X107075910Y-106148453D01*
X107075911Y-106148453D01*
X107070133Y-106143028D01*
X107063191Y-106139212D01*
X107063186Y-106139208D01*
X107062216Y-106138675D01*
X107042605Y-106125348D01*
X107041754Y-106124644D01*
X107035646Y-106119591D01*
X106982685Y-106094669D01*
X106975633Y-106091076D01*
X106931286Y-106066696D01*
X106931285Y-106066695D01*
X106924337Y-106062876D01*
X106916659Y-106060905D01*
X106916657Y-106060904D01*
X106916124Y-106060767D01*
X106915590Y-106060630D01*
X106893278Y-106052597D01*
X106892280Y-106052127D01*
X106892277Y-106052126D01*
X106885105Y-106048751D01*
X106877318Y-106047266D01*
X106877316Y-106047265D01*
X106842810Y-106040683D01*
X106827596Y-106037781D01*
X106819880Y-106036056D01*
X106763188Y-106021500D01*
X106754155Y-106021500D01*
X106730546Y-106019268D01*
X106729462Y-106019061D01*
X106729460Y-106019061D01*
X106721676Y-106017576D01*
X106663265Y-106021251D01*
X106655353Y-106021500D01*
X106598224Y-106021500D01*
X106530103Y-106001498D01*
X106524163Y-105997436D01*
X106523909Y-105997251D01*
X106462914Y-105952936D01*
X106380094Y-105892763D01*
X106380093Y-105892762D01*
X106374752Y-105888882D01*
X106368724Y-105886198D01*
X106368722Y-105886197D01*
X106206319Y-105813891D01*
X106206318Y-105813891D01*
X106200288Y-105811206D01*
X106106888Y-105791353D01*
X106019944Y-105772872D01*
X106019939Y-105772872D01*
X106013487Y-105771500D01*
X105822513Y-105771500D01*
X105816061Y-105772872D01*
X105816056Y-105772872D01*
X105729113Y-105791353D01*
X105635712Y-105811206D01*
X105629682Y-105813891D01*
X105629681Y-105813891D01*
X105467278Y-105886197D01*
X105467276Y-105886198D01*
X105461248Y-105888882D01*
X105306747Y-106001134D01*
X105302326Y-106006044D01*
X105302325Y-106006045D01*
X105258747Y-106054444D01*
X105178960Y-106143056D01*
X105153373Y-106187374D01*
X105109355Y-106263616D01*
X105083473Y-106308444D01*
X105024458Y-106490072D01*
X105023768Y-106496633D01*
X105023768Y-106496635D01*
X105017568Y-106555629D01*
X105004496Y-106680000D01*
X105005186Y-106686565D01*
X105021034Y-106837346D01*
X105024458Y-106869928D01*
X105083473Y-107051556D01*
X105178960Y-107216944D01*
X105183378Y-107221851D01*
X105183379Y-107221852D01*
X105305688Y-107357690D01*
X105336406Y-107421697D01*
X105327641Y-107492151D01*
X105305688Y-107526310D01*
X105178960Y-107667056D01*
X105083473Y-107832444D01*
X105024458Y-108014072D01*
X105023768Y-108020633D01*
X105023768Y-108020635D01*
X105019826Y-108058144D01*
X105004496Y-108204000D01*
X105005186Y-108210565D01*
X105018857Y-108340634D01*
X105024458Y-108393928D01*
X105083473Y-108575556D01*
X105178960Y-108740944D01*
X105183378Y-108745851D01*
X105183379Y-108745852D01*
X105305688Y-108881690D01*
X105336406Y-108945697D01*
X105327641Y-109016151D01*
X105305688Y-109050310D01*
X105178960Y-109191056D01*
X105163860Y-109217210D01*
X105092069Y-109341556D01*
X105083473Y-109356444D01*
X105024458Y-109538072D01*
X105023768Y-109544633D01*
X105023768Y-109544635D01*
X105012129Y-109655372D01*
X105004496Y-109728000D01*
X103043505Y-109728000D01*
X103112855Y-109668560D01*
X103117698Y-109664409D01*
X103124997Y-109655000D01*
X103197168Y-109561957D01*
X103237046Y-109510547D01*
X103240934Y-109502647D01*
X103320200Y-109341556D01*
X103323018Y-109335829D01*
X103334911Y-109290173D01*
X103370492Y-109153575D01*
X103370492Y-109153572D01*
X103372102Y-109147393D01*
X103377694Y-109040683D01*
X103381959Y-108959317D01*
X103381959Y-108959313D01*
X103382293Y-108952936D01*
X103353175Y-108760401D01*
X103350972Y-108754415D01*
X103350971Y-108754409D01*
X103288140Y-108583640D01*
X103288138Y-108583635D01*
X103285937Y-108577654D01*
X103183326Y-108412160D01*
X103143721Y-108370278D01*
X103053919Y-108275315D01*
X103049534Y-108270678D01*
X102991553Y-108230079D01*
X102895259Y-108162654D01*
X102890025Y-108158989D01*
X102842013Y-108138212D01*
X102717175Y-108084190D01*
X102717171Y-108084189D01*
X102711316Y-108081655D01*
X102705069Y-108080350D01*
X102705066Y-108080349D01*
X102525443Y-108042824D01*
X102525438Y-108042823D01*
X102520707Y-108041835D01*
X102514315Y-108041500D01*
X102371337Y-108041500D01*
X102302049Y-108048538D01*
X102232622Y-108055590D01*
X102232621Y-108055590D01*
X102226273Y-108056235D01*
X102197911Y-108065123D01*
X102046549Y-108112556D01*
X102046544Y-108112558D01*
X102040459Y-108114465D01*
X101964713Y-108156452D01*
X101875729Y-108205777D01*
X101875726Y-108205779D01*
X101870150Y-108208870D01*
X101865309Y-108213019D01*
X101865305Y-108213022D01*
X101834937Y-108239051D01*
X101722302Y-108335591D01*
X101718391Y-108340633D01*
X101718390Y-108340634D01*
X101692088Y-108374542D01*
X101602954Y-108489453D01*
X101600138Y-108495176D01*
X101600136Y-108495179D01*
X101539066Y-108619291D01*
X101516982Y-108664171D01*
X101515373Y-108670349D01*
X101515372Y-108670351D01*
X101471832Y-108837506D01*
X101467898Y-108852607D01*
X101457707Y-109047064D01*
X93508500Y-109047064D01*
X93508500Y-106047064D01*
X101457707Y-106047064D01*
X101486825Y-106239599D01*
X101489028Y-106245585D01*
X101489029Y-106245591D01*
X101551860Y-106416360D01*
X101551862Y-106416365D01*
X101554063Y-106422346D01*
X101557425Y-106427768D01*
X101632032Y-106548096D01*
X101656674Y-106587840D01*
X101661055Y-106592473D01*
X101661056Y-106592474D01*
X101724312Y-106659366D01*
X101790466Y-106729322D01*
X101949975Y-106841011D01*
X101955838Y-106843548D01*
X102122825Y-106915810D01*
X102122829Y-106915811D01*
X102128684Y-106918345D01*
X102134931Y-106919650D01*
X102134934Y-106919651D01*
X102314557Y-106957176D01*
X102314562Y-106957177D01*
X102319293Y-106958165D01*
X102325685Y-106958500D01*
X102468663Y-106958500D01*
X102537951Y-106951462D01*
X102607378Y-106944410D01*
X102607379Y-106944410D01*
X102613727Y-106943765D01*
X102694843Y-106918345D01*
X102793451Y-106887444D01*
X102793456Y-106887442D01*
X102799541Y-106885535D01*
X102886475Y-106837346D01*
X102964271Y-106794223D01*
X102964274Y-106794221D01*
X102969850Y-106791130D01*
X102974691Y-106786981D01*
X102974695Y-106786978D01*
X103112855Y-106668560D01*
X103117698Y-106664409D01*
X103137743Y-106638568D01*
X103233131Y-106515594D01*
X103237046Y-106510547D01*
X103250211Y-106483794D01*
X103320200Y-106341556D01*
X103323018Y-106335829D01*
X103329434Y-106311197D01*
X103370492Y-106153575D01*
X103370492Y-106153572D01*
X103372102Y-106147393D01*
X103377273Y-106048721D01*
X103381959Y-105959317D01*
X103381959Y-105959313D01*
X103382293Y-105952936D01*
X103353175Y-105760401D01*
X103350972Y-105754415D01*
X103350971Y-105754409D01*
X103288140Y-105583640D01*
X103288138Y-105583635D01*
X103285937Y-105577654D01*
X103200041Y-105439118D01*
X103186688Y-105417582D01*
X103186687Y-105417581D01*
X103183326Y-105412160D01*
X103049534Y-105270678D01*
X102890025Y-105158989D01*
X102842013Y-105138212D01*
X102717175Y-105084190D01*
X102717171Y-105084189D01*
X102711316Y-105081655D01*
X102705069Y-105080350D01*
X102705066Y-105080349D01*
X102525443Y-105042824D01*
X102525438Y-105042823D01*
X102520707Y-105041835D01*
X102514315Y-105041500D01*
X102371337Y-105041500D01*
X102302049Y-105048538D01*
X102232622Y-105055590D01*
X102232621Y-105055590D01*
X102226273Y-105056235D01*
X102169939Y-105073889D01*
X102046549Y-105112556D01*
X102046544Y-105112558D01*
X102040459Y-105114465D01*
X101964713Y-105156452D01*
X101875729Y-105205777D01*
X101875726Y-105205779D01*
X101870150Y-105208870D01*
X101865309Y-105213019D01*
X101865305Y-105213022D01*
X101802311Y-105267015D01*
X101722302Y-105335591D01*
X101602954Y-105489453D01*
X101600138Y-105495176D01*
X101600136Y-105495179D01*
X101556608Y-105583640D01*
X101516982Y-105664171D01*
X101515373Y-105670349D01*
X101515372Y-105670351D01*
X101479040Y-105809834D01*
X101467898Y-105852607D01*
X101467564Y-105858986D01*
X101459047Y-106021500D01*
X101457707Y-106047064D01*
X93508500Y-106047064D01*
X93508500Y-104648000D01*
X109830496Y-104648000D01*
X109850458Y-104837928D01*
X109909473Y-105019556D01*
X110004960Y-105184944D01*
X110009378Y-105189851D01*
X110009379Y-105189852D01*
X110078857Y-105267015D01*
X110132747Y-105326866D01*
X110139043Y-105331440D01*
X110243766Y-105407526D01*
X110287248Y-105439118D01*
X110293276Y-105441802D01*
X110293278Y-105441803D01*
X110455681Y-105514109D01*
X110461712Y-105516794D01*
X110555113Y-105536647D01*
X110642056Y-105555128D01*
X110642061Y-105555128D01*
X110648513Y-105556500D01*
X110839487Y-105556500D01*
X110845939Y-105555128D01*
X110845944Y-105555128D01*
X110932888Y-105536647D01*
X111026288Y-105516794D01*
X111032319Y-105514109D01*
X111194722Y-105441803D01*
X111194724Y-105441802D01*
X111200752Y-105439118D01*
X111244235Y-105407526D01*
X111348957Y-105331440D01*
X111355253Y-105326866D01*
X111409143Y-105267015D01*
X111478621Y-105189852D01*
X111478622Y-105189851D01*
X111483040Y-105184944D01*
X111578527Y-105019556D01*
X111637542Y-104837928D01*
X111657504Y-104648000D01*
X119482496Y-104648000D01*
X119502458Y-104837928D01*
X119561473Y-105019556D01*
X119656960Y-105184944D01*
X119661378Y-105189851D01*
X119661379Y-105189852D01*
X119730857Y-105267015D01*
X119784747Y-105326866D01*
X119791043Y-105331440D01*
X119895766Y-105407526D01*
X119939248Y-105439118D01*
X119945276Y-105441802D01*
X119945278Y-105441803D01*
X120107681Y-105514109D01*
X120113712Y-105516794D01*
X120207113Y-105536647D01*
X120294056Y-105555128D01*
X120294061Y-105555128D01*
X120300513Y-105556500D01*
X120491487Y-105556500D01*
X120497939Y-105555128D01*
X120497944Y-105555128D01*
X120584888Y-105536647D01*
X120678288Y-105516794D01*
X120684319Y-105514109D01*
X120846722Y-105441803D01*
X120846724Y-105441802D01*
X120852752Y-105439118D01*
X120896235Y-105407526D01*
X121000957Y-105331440D01*
X121007253Y-105326866D01*
X121061143Y-105267015D01*
X121130621Y-105189852D01*
X121130622Y-105189851D01*
X121135040Y-105184944D01*
X121230527Y-105019556D01*
X121289542Y-104837928D01*
X121309504Y-104648000D01*
X121289542Y-104458072D01*
X121230527Y-104276444D01*
X121135040Y-104111056D01*
X121007253Y-103969134D01*
X120852752Y-103856882D01*
X120846724Y-103854198D01*
X120846722Y-103854197D01*
X120684319Y-103781891D01*
X120684318Y-103781891D01*
X120678288Y-103779206D01*
X120584887Y-103759353D01*
X120497944Y-103740872D01*
X120497939Y-103740872D01*
X120491487Y-103739500D01*
X120300513Y-103739500D01*
X120294061Y-103740872D01*
X120294056Y-103740872D01*
X120207113Y-103759353D01*
X120113712Y-103779206D01*
X120107682Y-103781891D01*
X120107681Y-103781891D01*
X119945278Y-103854197D01*
X119945276Y-103854198D01*
X119939248Y-103856882D01*
X119784747Y-103969134D01*
X119656960Y-104111056D01*
X119561473Y-104276444D01*
X119502458Y-104458072D01*
X119482496Y-104648000D01*
X111657504Y-104648000D01*
X111637542Y-104458072D01*
X111578527Y-104276444D01*
X111483040Y-104111056D01*
X111355253Y-103969134D01*
X111200752Y-103856882D01*
X111194724Y-103854198D01*
X111194722Y-103854197D01*
X111032319Y-103781891D01*
X111032318Y-103781891D01*
X111026288Y-103779206D01*
X110932887Y-103759353D01*
X110845944Y-103740872D01*
X110845939Y-103740872D01*
X110839487Y-103739500D01*
X110648513Y-103739500D01*
X110642061Y-103740872D01*
X110642056Y-103740872D01*
X110555113Y-103759353D01*
X110461712Y-103779206D01*
X110455682Y-103781891D01*
X110455681Y-103781891D01*
X110293278Y-103854197D01*
X110293276Y-103854198D01*
X110287248Y-103856882D01*
X110132747Y-103969134D01*
X110004960Y-104111056D01*
X109909473Y-104276444D01*
X109850458Y-104458072D01*
X109830496Y-104648000D01*
X93508500Y-104648000D01*
X93508500Y-102362000D01*
X136754496Y-102362000D01*
X136774458Y-102551928D01*
X136833473Y-102733556D01*
X136928960Y-102898944D01*
X137056747Y-103040866D01*
X137211248Y-103153118D01*
X137217276Y-103155802D01*
X137217278Y-103155803D01*
X137379681Y-103228109D01*
X137385712Y-103230794D01*
X137479112Y-103250647D01*
X137566056Y-103269128D01*
X137566061Y-103269128D01*
X137572513Y-103270500D01*
X137763487Y-103270500D01*
X137769939Y-103269128D01*
X137769944Y-103269128D01*
X137856887Y-103250647D01*
X137950288Y-103230794D01*
X137956319Y-103228109D01*
X138118722Y-103155803D01*
X138118724Y-103155802D01*
X138124752Y-103153118D01*
X138279253Y-103040866D01*
X138407040Y-102898944D01*
X138502527Y-102733556D01*
X138561542Y-102551928D01*
X138581504Y-102362000D01*
X138561542Y-102172072D01*
X138502527Y-101990444D01*
X138407040Y-101825056D01*
X138279253Y-101683134D01*
X138124752Y-101570882D01*
X138118724Y-101568198D01*
X138118722Y-101568197D01*
X137956319Y-101495891D01*
X137956318Y-101495891D01*
X137950288Y-101493206D01*
X137856887Y-101473353D01*
X137769944Y-101454872D01*
X137769939Y-101454872D01*
X137763487Y-101453500D01*
X137572513Y-101453500D01*
X137566061Y-101454872D01*
X137566056Y-101454872D01*
X137479112Y-101473353D01*
X137385712Y-101493206D01*
X137379682Y-101495891D01*
X137379681Y-101495891D01*
X137217278Y-101568197D01*
X137217276Y-101568198D01*
X137211248Y-101570882D01*
X137056747Y-101683134D01*
X136928960Y-101825056D01*
X136833473Y-101990444D01*
X136774458Y-102172072D01*
X136754496Y-102362000D01*
X93508500Y-102362000D01*
X93508500Y-95758000D01*
X107290496Y-95758000D01*
X107310458Y-95947928D01*
X107369473Y-96129556D01*
X107464960Y-96294944D01*
X107592747Y-96436866D01*
X107747248Y-96549118D01*
X107753276Y-96551802D01*
X107753278Y-96551803D01*
X107915681Y-96624109D01*
X107921712Y-96626794D01*
X108015112Y-96646647D01*
X108102056Y-96665128D01*
X108102061Y-96665128D01*
X108108513Y-96666500D01*
X108299487Y-96666500D01*
X108305939Y-96665128D01*
X108305944Y-96665128D01*
X108392887Y-96646647D01*
X108486288Y-96626794D01*
X108492319Y-96624109D01*
X108654722Y-96551803D01*
X108654724Y-96551802D01*
X108660752Y-96549118D01*
X108815253Y-96436866D01*
X108943040Y-96294944D01*
X109038527Y-96129556D01*
X109097542Y-95947928D01*
X109117504Y-95758000D01*
X109097542Y-95568072D01*
X109038527Y-95386444D01*
X108943040Y-95221056D01*
X108815253Y-95079134D01*
X108660752Y-94966882D01*
X108654724Y-94964198D01*
X108654722Y-94964197D01*
X108492319Y-94891891D01*
X108492318Y-94891891D01*
X108486288Y-94889206D01*
X108392888Y-94869353D01*
X108305944Y-94850872D01*
X108305939Y-94850872D01*
X108299487Y-94849500D01*
X108108513Y-94849500D01*
X108102061Y-94850872D01*
X108102056Y-94850872D01*
X108015112Y-94869353D01*
X107921712Y-94889206D01*
X107915682Y-94891891D01*
X107915681Y-94891891D01*
X107753278Y-94964197D01*
X107753276Y-94964198D01*
X107747248Y-94966882D01*
X107592747Y-95079134D01*
X107464960Y-95221056D01*
X107369473Y-95386444D01*
X107310458Y-95568072D01*
X107290496Y-95758000D01*
X93508500Y-95758000D01*
X93508500Y-93726000D01*
X139548496Y-93726000D01*
X139568458Y-93915928D01*
X139627473Y-94097556D01*
X139722960Y-94262944D01*
X139850747Y-94404866D01*
X140005248Y-94517118D01*
X140011276Y-94519802D01*
X140011278Y-94519803D01*
X140173681Y-94592109D01*
X140179712Y-94594794D01*
X140273113Y-94614647D01*
X140360056Y-94633128D01*
X140360061Y-94633128D01*
X140366513Y-94634500D01*
X140557487Y-94634500D01*
X140563939Y-94633128D01*
X140563944Y-94633128D01*
X140650887Y-94614647D01*
X140744288Y-94594794D01*
X140750319Y-94592109D01*
X140912722Y-94519803D01*
X140912724Y-94519802D01*
X140918752Y-94517118D01*
X141073253Y-94404866D01*
X141201040Y-94262944D01*
X141296527Y-94097556D01*
X141355542Y-93915928D01*
X141375504Y-93726000D01*
X141355542Y-93536072D01*
X141296527Y-93354444D01*
X141201040Y-93189056D01*
X141173978Y-93159000D01*
X141077675Y-93052045D01*
X141077674Y-93052044D01*
X141073253Y-93047134D01*
X140918752Y-92934882D01*
X140912724Y-92932198D01*
X140912722Y-92932197D01*
X140750319Y-92859891D01*
X140750318Y-92859891D01*
X140744288Y-92857206D01*
X140631721Y-92833279D01*
X140563944Y-92818872D01*
X140563939Y-92818872D01*
X140557487Y-92817500D01*
X140366513Y-92817500D01*
X140360061Y-92818872D01*
X140360056Y-92818872D01*
X140292279Y-92833279D01*
X140179712Y-92857206D01*
X140173682Y-92859891D01*
X140173681Y-92859891D01*
X140011278Y-92932197D01*
X140011276Y-92932198D01*
X140005248Y-92934882D01*
X139850747Y-93047134D01*
X139846326Y-93052044D01*
X139846325Y-93052045D01*
X139750023Y-93159000D01*
X139722960Y-93189056D01*
X139627473Y-93354444D01*
X139568458Y-93536072D01*
X139548496Y-93726000D01*
X93508500Y-93726000D01*
X93508500Y-92456000D01*
X111608496Y-92456000D01*
X111628458Y-92645928D01*
X111687473Y-92827556D01*
X111782960Y-92992944D01*
X111787378Y-92997851D01*
X111787379Y-92997852D01*
X111829204Y-93044303D01*
X111910747Y-93134866D01*
X112065248Y-93247118D01*
X112071276Y-93249802D01*
X112071278Y-93249803D01*
X112233681Y-93322109D01*
X112239712Y-93324794D01*
X112333113Y-93344647D01*
X112420056Y-93363128D01*
X112420061Y-93363128D01*
X112426513Y-93364500D01*
X112617487Y-93364500D01*
X112623939Y-93363128D01*
X112623944Y-93363128D01*
X112710887Y-93344647D01*
X112804288Y-93324794D01*
X112810319Y-93322109D01*
X112972722Y-93249803D01*
X112972724Y-93249802D01*
X112978752Y-93247118D01*
X113128163Y-93138564D01*
X113195031Y-93114706D01*
X113202224Y-93114500D01*
X126177233Y-93114500D01*
X126209640Y-93119632D01*
X126209712Y-93119294D01*
X126390056Y-93157628D01*
X126390061Y-93157628D01*
X126396513Y-93159000D01*
X126587487Y-93159000D01*
X126593939Y-93157628D01*
X126593944Y-93157628D01*
X126683630Y-93138564D01*
X126774288Y-93119294D01*
X126785056Y-93114500D01*
X126942722Y-93044303D01*
X126942724Y-93044302D01*
X126948752Y-93041618D01*
X127103253Y-92929366D01*
X127168226Y-92857206D01*
X127226621Y-92792352D01*
X127226622Y-92792351D01*
X127231040Y-92787444D01*
X127309120Y-92652206D01*
X127323223Y-92627779D01*
X127323224Y-92627778D01*
X127326527Y-92622056D01*
X127385542Y-92440428D01*
X127405504Y-92250500D01*
X127385542Y-92060572D01*
X127326527Y-91878944D01*
X127231040Y-91713556D01*
X127103253Y-91571634D01*
X126948752Y-91459382D01*
X126942724Y-91456698D01*
X126942722Y-91456697D01*
X126780319Y-91384391D01*
X126780318Y-91384391D01*
X126774288Y-91381706D01*
X126680888Y-91361853D01*
X126593944Y-91343372D01*
X126593939Y-91343372D01*
X126587487Y-91342000D01*
X126396513Y-91342000D01*
X126390061Y-91343372D01*
X126390056Y-91343372D01*
X126303112Y-91361853D01*
X126209712Y-91381706D01*
X126203682Y-91384391D01*
X126203681Y-91384391D01*
X126041278Y-91456697D01*
X126041276Y-91456698D01*
X126035248Y-91459382D01*
X125880747Y-91571634D01*
X125752960Y-91713556D01*
X125749659Y-91719274D01*
X125740868Y-91734500D01*
X125689486Y-91783493D01*
X125631749Y-91797500D01*
X113202224Y-91797500D01*
X113134103Y-91777498D01*
X113128163Y-91773436D01*
X113127909Y-91773251D01*
X113045746Y-91713556D01*
X112984094Y-91668763D01*
X112984093Y-91668762D01*
X112978752Y-91664882D01*
X112972724Y-91662198D01*
X112972722Y-91662197D01*
X112810319Y-91589891D01*
X112810318Y-91589891D01*
X112804288Y-91587206D01*
X112710887Y-91567353D01*
X112623944Y-91548872D01*
X112623939Y-91548872D01*
X112617487Y-91547500D01*
X112426513Y-91547500D01*
X112420061Y-91548872D01*
X112420056Y-91548872D01*
X112333113Y-91567353D01*
X112239712Y-91587206D01*
X112233682Y-91589891D01*
X112233681Y-91589891D01*
X112071278Y-91662197D01*
X112071276Y-91662198D01*
X112065248Y-91664882D01*
X111910747Y-91777134D01*
X111782960Y-91919056D01*
X111779659Y-91924774D01*
X111701256Y-92060572D01*
X111687473Y-92084444D01*
X111628458Y-92266072D01*
X111608496Y-92456000D01*
X93508500Y-92456000D01*
X93508500Y-88138000D01*
X112878496Y-88138000D01*
X112879186Y-88144565D01*
X112896863Y-88312749D01*
X112898458Y-88327928D01*
X112957473Y-88509556D01*
X113052960Y-88674944D01*
X113180747Y-88816866D01*
X113335248Y-88929118D01*
X113341276Y-88931802D01*
X113341278Y-88931803D01*
X113503681Y-89004109D01*
X113509712Y-89006794D01*
X113603113Y-89026647D01*
X113690056Y-89045128D01*
X113690061Y-89045128D01*
X113696513Y-89046500D01*
X113887487Y-89046500D01*
X113893939Y-89045128D01*
X113893944Y-89045128D01*
X113980887Y-89026647D01*
X114074288Y-89006794D01*
X114080319Y-89004109D01*
X114242722Y-88931803D01*
X114242724Y-88931802D01*
X114248752Y-88929118D01*
X114403253Y-88816866D01*
X114531040Y-88674944D01*
X114626527Y-88509556D01*
X114685542Y-88327928D01*
X114687138Y-88312749D01*
X114704814Y-88144565D01*
X114705504Y-88138000D01*
X114685542Y-87948072D01*
X114626527Y-87766444D01*
X114547751Y-87630000D01*
X116434496Y-87630000D01*
X116454458Y-87819928D01*
X116513473Y-88001556D01*
X116608960Y-88166944D01*
X116736747Y-88308866D01*
X116891248Y-88421118D01*
X116897276Y-88423802D01*
X116897278Y-88423803D01*
X117059681Y-88496109D01*
X117065712Y-88498794D01*
X117159113Y-88518647D01*
X117246056Y-88537128D01*
X117246061Y-88537128D01*
X117252513Y-88538500D01*
X117443487Y-88538500D01*
X117449939Y-88537128D01*
X117449944Y-88537128D01*
X117536887Y-88518647D01*
X117630288Y-88498794D01*
X117636319Y-88496109D01*
X117798722Y-88423803D01*
X117798724Y-88423802D01*
X117804752Y-88421118D01*
X117959253Y-88308866D01*
X118087040Y-88166944D01*
X118182527Y-88001556D01*
X118241542Y-87819928D01*
X118261504Y-87630000D01*
X118244062Y-87464045D01*
X118242232Y-87446635D01*
X118242232Y-87446633D01*
X118241542Y-87440072D01*
X118182527Y-87258444D01*
X118087040Y-87093056D01*
X118041744Y-87042749D01*
X117963675Y-86956045D01*
X117963674Y-86956044D01*
X117959253Y-86951134D01*
X117804752Y-86838882D01*
X117798724Y-86836198D01*
X117798722Y-86836197D01*
X117636319Y-86763891D01*
X117636318Y-86763891D01*
X117630288Y-86761206D01*
X117517721Y-86737279D01*
X117449944Y-86722872D01*
X117449939Y-86722872D01*
X117443487Y-86721500D01*
X117252513Y-86721500D01*
X117246061Y-86722872D01*
X117246056Y-86722872D01*
X117178279Y-86737279D01*
X117065712Y-86761206D01*
X117059682Y-86763891D01*
X117059681Y-86763891D01*
X116897278Y-86836197D01*
X116897276Y-86836198D01*
X116891248Y-86838882D01*
X116736747Y-86951134D01*
X116732326Y-86956044D01*
X116732325Y-86956045D01*
X116654257Y-87042749D01*
X116608960Y-87093056D01*
X116513473Y-87258444D01*
X116454458Y-87440072D01*
X116453768Y-87446633D01*
X116453768Y-87446635D01*
X116451938Y-87464045D01*
X116434496Y-87630000D01*
X114547751Y-87630000D01*
X114531040Y-87601056D01*
X114403253Y-87459134D01*
X114248752Y-87346882D01*
X114242724Y-87344198D01*
X114242722Y-87344197D01*
X114080319Y-87271891D01*
X114080318Y-87271891D01*
X114074288Y-87269206D01*
X113980887Y-87249353D01*
X113893944Y-87230872D01*
X113893939Y-87230872D01*
X113887487Y-87229500D01*
X113696513Y-87229500D01*
X113690061Y-87230872D01*
X113690056Y-87230872D01*
X113603113Y-87249353D01*
X113509712Y-87269206D01*
X113503682Y-87271891D01*
X113503681Y-87271891D01*
X113341278Y-87344197D01*
X113341276Y-87344198D01*
X113335248Y-87346882D01*
X113180747Y-87459134D01*
X113052960Y-87601056D01*
X112957473Y-87766444D01*
X112898458Y-87948072D01*
X112878496Y-88138000D01*
X93508500Y-88138000D01*
X93508500Y-86360000D01*
X106782496Y-86360000D01*
X106802458Y-86549928D01*
X106861473Y-86731556D01*
X106956960Y-86896944D01*
X106961378Y-86901851D01*
X106961379Y-86901852D01*
X107005753Y-86951134D01*
X107084747Y-87038866D01*
X107239248Y-87151118D01*
X107245276Y-87153802D01*
X107245278Y-87153803D01*
X107407681Y-87226109D01*
X107413712Y-87228794D01*
X107507113Y-87248647D01*
X107594056Y-87267128D01*
X107594061Y-87267128D01*
X107600513Y-87268500D01*
X107791487Y-87268500D01*
X107797939Y-87267128D01*
X107797944Y-87267128D01*
X107884887Y-87248647D01*
X107978288Y-87228794D01*
X107984319Y-87226109D01*
X108146722Y-87153803D01*
X108146724Y-87153802D01*
X108152752Y-87151118D01*
X108307253Y-87038866D01*
X108386247Y-86951134D01*
X108430621Y-86901852D01*
X108430622Y-86901851D01*
X108435040Y-86896944D01*
X108530527Y-86731556D01*
X108589542Y-86549928D01*
X108609504Y-86360000D01*
X108589542Y-86170072D01*
X108530527Y-85988444D01*
X108435040Y-85823056D01*
X108307253Y-85681134D01*
X108152752Y-85568882D01*
X108146724Y-85566198D01*
X108146722Y-85566197D01*
X107984319Y-85493891D01*
X107984318Y-85493891D01*
X107978288Y-85491206D01*
X107884887Y-85471353D01*
X107797944Y-85452872D01*
X107797939Y-85452872D01*
X107791487Y-85451500D01*
X107600513Y-85451500D01*
X107594061Y-85452872D01*
X107594056Y-85452872D01*
X107507113Y-85471353D01*
X107413712Y-85491206D01*
X107407682Y-85493891D01*
X107407681Y-85493891D01*
X107245278Y-85566197D01*
X107245276Y-85566198D01*
X107239248Y-85568882D01*
X107084747Y-85681134D01*
X106956960Y-85823056D01*
X106861473Y-85988444D01*
X106802458Y-86170072D01*
X106782496Y-86360000D01*
X93508500Y-86360000D01*
X93508500Y-83820000D01*
X118974496Y-83820000D01*
X118994458Y-84009928D01*
X119053473Y-84191556D01*
X119148960Y-84356944D01*
X119276747Y-84498866D01*
X119431248Y-84611118D01*
X119437276Y-84613802D01*
X119437278Y-84613803D01*
X119599681Y-84686109D01*
X119605712Y-84688794D01*
X119699113Y-84708647D01*
X119786056Y-84727128D01*
X119786061Y-84727128D01*
X119792513Y-84728500D01*
X119983487Y-84728500D01*
X119989939Y-84727128D01*
X119989944Y-84727128D01*
X120076887Y-84708647D01*
X120170288Y-84688794D01*
X120176319Y-84686109D01*
X120338722Y-84613803D01*
X120338724Y-84613802D01*
X120344752Y-84611118D01*
X120499253Y-84498866D01*
X120627040Y-84356944D01*
X120722527Y-84191556D01*
X120781542Y-84009928D01*
X120801504Y-83820000D01*
X120781542Y-83630072D01*
X120722527Y-83448444D01*
X120627040Y-83283056D01*
X120499253Y-83141134D01*
X120344752Y-83028882D01*
X120338724Y-83026198D01*
X120338722Y-83026197D01*
X120176319Y-82953891D01*
X120176318Y-82953891D01*
X120170288Y-82951206D01*
X120076888Y-82931353D01*
X119989944Y-82912872D01*
X119989939Y-82912872D01*
X119983487Y-82911500D01*
X119792513Y-82911500D01*
X119786061Y-82912872D01*
X119786056Y-82912872D01*
X119699112Y-82931353D01*
X119605712Y-82951206D01*
X119599682Y-82953891D01*
X119599681Y-82953891D01*
X119437278Y-83026197D01*
X119437276Y-83026198D01*
X119431248Y-83028882D01*
X119276747Y-83141134D01*
X119148960Y-83283056D01*
X119053473Y-83448444D01*
X118994458Y-83630072D01*
X118974496Y-83820000D01*
X93508500Y-83820000D01*
X93508500Y-78803122D01*
X93528502Y-78735001D01*
X93582158Y-78688508D01*
X93652432Y-78678404D01*
X93717012Y-78707898D01*
X93747213Y-78746803D01*
X93775829Y-78804072D01*
X93794231Y-78840901D01*
X94018974Y-79205502D01*
X94275239Y-79548682D01*
X94277100Y-79550760D01*
X94277101Y-79550761D01*
X94559127Y-79865637D01*
X94559133Y-79865643D01*
X94560995Y-79867722D01*
X94873981Y-80160098D01*
X95211719Y-80423493D01*
X95571533Y-80655822D01*
X95574012Y-80657126D01*
X95574015Y-80657128D01*
X95948077Y-80853932D01*
X95948083Y-80853935D01*
X95950577Y-80855247D01*
X95953175Y-80856331D01*
X95953179Y-80856333D01*
X96343263Y-81019109D01*
X96343268Y-81019111D01*
X96345847Y-81020187D01*
X96348512Y-81021030D01*
X96348518Y-81021032D01*
X96570561Y-81091254D01*
X96754214Y-81149336D01*
X97172446Y-81241673D01*
X97175220Y-81242031D01*
X97175221Y-81242031D01*
X97594460Y-81296109D01*
X97594467Y-81296110D01*
X97597230Y-81296466D01*
X97600017Y-81296576D01*
X97600023Y-81296576D01*
X97848238Y-81306328D01*
X98025203Y-81313281D01*
X98027995Y-81313142D01*
X98028000Y-81313142D01*
X98450172Y-81292125D01*
X98450181Y-81292124D01*
X98452976Y-81291985D01*
X98455753Y-81291597D01*
X98455755Y-81291597D01*
X98530066Y-81281219D01*
X98877163Y-81232747D01*
X99294404Y-81136036D01*
X99508307Y-81065915D01*
X99698744Y-81003487D01*
X99698750Y-81003485D01*
X99701397Y-81002617D01*
X100094918Y-80833547D01*
X100155020Y-80801118D01*
X100204040Y-80774668D01*
X100471852Y-80630164D01*
X100829214Y-80394080D01*
X101164175Y-80127162D01*
X101286992Y-80010000D01*
X122784496Y-80010000D01*
X122804458Y-80199928D01*
X122863473Y-80381556D01*
X122958960Y-80546944D01*
X122963378Y-80551851D01*
X122963379Y-80551852D01*
X123035088Y-80631493D01*
X123086747Y-80688866D01*
X123241248Y-80801118D01*
X123247276Y-80803802D01*
X123247278Y-80803803D01*
X123409681Y-80876109D01*
X123415712Y-80878794D01*
X123509112Y-80898647D01*
X123596056Y-80917128D01*
X123596061Y-80917128D01*
X123602513Y-80918500D01*
X123793487Y-80918500D01*
X123799939Y-80917128D01*
X123799944Y-80917128D01*
X123886888Y-80898647D01*
X123980288Y-80878794D01*
X123986319Y-80876109D01*
X124148722Y-80803803D01*
X124148724Y-80803802D01*
X124154752Y-80801118D01*
X124309253Y-80688866D01*
X124360912Y-80631493D01*
X124432621Y-80551852D01*
X124432622Y-80551851D01*
X124437040Y-80546944D01*
X124532527Y-80381556D01*
X124591542Y-80199928D01*
X124611504Y-80010000D01*
X124610814Y-80003435D01*
X124592232Y-79826635D01*
X124592232Y-79826633D01*
X124591542Y-79820072D01*
X124532527Y-79638444D01*
X124437040Y-79473056D01*
X124309253Y-79331134D01*
X124154752Y-79218882D01*
X124148724Y-79216198D01*
X124148722Y-79216197D01*
X123986319Y-79143891D01*
X123986318Y-79143891D01*
X123980288Y-79141206D01*
X123886887Y-79121353D01*
X123799944Y-79102872D01*
X123799939Y-79102872D01*
X123793487Y-79101500D01*
X123602513Y-79101500D01*
X123596061Y-79102872D01*
X123596056Y-79102872D01*
X123509113Y-79121353D01*
X123415712Y-79141206D01*
X123409682Y-79143891D01*
X123409681Y-79143891D01*
X123247278Y-79216197D01*
X123247276Y-79216198D01*
X123241248Y-79218882D01*
X123086747Y-79331134D01*
X122958960Y-79473056D01*
X122863473Y-79638444D01*
X122804458Y-79820072D01*
X122803768Y-79826633D01*
X122803768Y-79826635D01*
X122785186Y-80003435D01*
X122784496Y-80010000D01*
X101286992Y-80010000D01*
X101474082Y-79831525D01*
X101475919Y-79829431D01*
X101475927Y-79829422D01*
X101754635Y-79511616D01*
X101756482Y-79509510D01*
X101778937Y-79478774D01*
X101989750Y-79190206D01*
X102009139Y-79163666D01*
X102021045Y-79143891D01*
X102111287Y-78994000D01*
X112624496Y-78994000D01*
X112625186Y-79000565D01*
X112642566Y-79165923D01*
X112644458Y-79183928D01*
X112703473Y-79365556D01*
X112798960Y-79530944D01*
X112926747Y-79672866D01*
X113081248Y-79785118D01*
X113087276Y-79787802D01*
X113087278Y-79787803D01*
X113185480Y-79831525D01*
X113255712Y-79862794D01*
X113349113Y-79882647D01*
X113436056Y-79901128D01*
X113436061Y-79901128D01*
X113442513Y-79902500D01*
X113633487Y-79902500D01*
X113639939Y-79901128D01*
X113639944Y-79901128D01*
X113726887Y-79882647D01*
X113820288Y-79862794D01*
X113890520Y-79831525D01*
X113988722Y-79787803D01*
X113988724Y-79787802D01*
X113994752Y-79785118D01*
X114149253Y-79672866D01*
X114277040Y-79530944D01*
X114372527Y-79365556D01*
X114431542Y-79183928D01*
X114433435Y-79165923D01*
X114450814Y-79000565D01*
X114451504Y-78994000D01*
X114435413Y-78840901D01*
X114432232Y-78810635D01*
X114432232Y-78810633D01*
X114431542Y-78804072D01*
X114372527Y-78622444D01*
X114277040Y-78457056D01*
X114149253Y-78315134D01*
X113994752Y-78202882D01*
X113988724Y-78200198D01*
X113988722Y-78200197D01*
X113826319Y-78127891D01*
X113826318Y-78127891D01*
X113820288Y-78125206D01*
X113726887Y-78105353D01*
X113639944Y-78086872D01*
X113639939Y-78086872D01*
X113633487Y-78085500D01*
X113442513Y-78085500D01*
X113436061Y-78086872D01*
X113436056Y-78086872D01*
X113349113Y-78105353D01*
X113255712Y-78125206D01*
X113249682Y-78127891D01*
X113249681Y-78127891D01*
X113087278Y-78200197D01*
X113087276Y-78200198D01*
X113081248Y-78202882D01*
X112926747Y-78315134D01*
X112798960Y-78457056D01*
X112703473Y-78622444D01*
X112644458Y-78804072D01*
X112643768Y-78810633D01*
X112643768Y-78810635D01*
X112640587Y-78840901D01*
X112624496Y-78994000D01*
X102111287Y-78994000D01*
X102228601Y-78799142D01*
X102228606Y-78799133D01*
X102230052Y-78796731D01*
X102341110Y-78568523D01*
X102416238Y-78414145D01*
X102416239Y-78414142D01*
X102417471Y-78411611D01*
X102527075Y-78123834D01*
X102568918Y-78013971D01*
X102568920Y-78013964D01*
X102569914Y-78011355D01*
X102686173Y-77599132D01*
X102755433Y-77230822D01*
X102764811Y-77180954D01*
X102764813Y-77180942D01*
X102765327Y-77178207D01*
X102806750Y-76751911D01*
X102810848Y-76595443D01*
X102813289Y-76502234D01*
X102813289Y-76502220D01*
X102813347Y-76500000D01*
X102794291Y-76072121D01*
X102784283Y-75997610D01*
X113216500Y-75997610D01*
X113231458Y-76139928D01*
X113290473Y-76321556D01*
X113385960Y-76486944D01*
X113390378Y-76491851D01*
X113390379Y-76491852D01*
X113472966Y-76583574D01*
X113513747Y-76628866D01*
X113668248Y-76741118D01*
X113674276Y-76743802D01*
X113674278Y-76743803D01*
X113697471Y-76754129D01*
X113842712Y-76818794D01*
X113936113Y-76838647D01*
X114023056Y-76857128D01*
X114023061Y-76857128D01*
X114029513Y-76858500D01*
X114220487Y-76858500D01*
X114226939Y-76857128D01*
X114226944Y-76857128D01*
X114313887Y-76838647D01*
X114407288Y-76818794D01*
X114552529Y-76754129D01*
X114575722Y-76743803D01*
X114575724Y-76743802D01*
X114581752Y-76741118D01*
X114675939Y-76672687D01*
X114742807Y-76648828D01*
X114811958Y-76664909D01*
X114824061Y-76672687D01*
X114918248Y-76741118D01*
X114924276Y-76743802D01*
X114924278Y-76743803D01*
X114947471Y-76754129D01*
X115092712Y-76818794D01*
X115186113Y-76838647D01*
X115273056Y-76857128D01*
X115273061Y-76857128D01*
X115279513Y-76858500D01*
X115470487Y-76858500D01*
X115476939Y-76857128D01*
X115476944Y-76857128D01*
X115563887Y-76838647D01*
X115657288Y-76818794D01*
X115802529Y-76754129D01*
X115825722Y-76743803D01*
X115825724Y-76743802D01*
X115831752Y-76741118D01*
X115925939Y-76672687D01*
X115992807Y-76648828D01*
X116061958Y-76664909D01*
X116074061Y-76672687D01*
X116168248Y-76741118D01*
X116174276Y-76743802D01*
X116174278Y-76743803D01*
X116197471Y-76754129D01*
X116342712Y-76818794D01*
X116436113Y-76838647D01*
X116523056Y-76857128D01*
X116523061Y-76857128D01*
X116529513Y-76858500D01*
X116720487Y-76858500D01*
X116726939Y-76857128D01*
X116726944Y-76857128D01*
X116813887Y-76838647D01*
X116907288Y-76818794D01*
X117052529Y-76754129D01*
X117075722Y-76743803D01*
X117075724Y-76743802D01*
X117081752Y-76741118D01*
X117106089Y-76723436D01*
X117172956Y-76699578D01*
X117245422Y-76717596D01*
X117375012Y-76796079D01*
X117388757Y-76802285D01*
X117538644Y-76849256D01*
X117551694Y-76851869D01*
X117606586Y-76856913D01*
X117618124Y-76853525D01*
X117619329Y-76852135D01*
X117621000Y-76844452D01*
X117621000Y-76839884D01*
X118129000Y-76839884D01*
X118133475Y-76855123D01*
X118134865Y-76856328D01*
X118139294Y-76857291D01*
X118198315Y-76851868D01*
X118211351Y-76849257D01*
X118361243Y-76802285D01*
X118374988Y-76796079D01*
X118508574Y-76715176D01*
X118520443Y-76705869D01*
X118630869Y-76595443D01*
X118640176Y-76583574D01*
X118721079Y-76449988D01*
X118727285Y-76436243D01*
X118774256Y-76286356D01*
X118776869Y-76273306D01*
X118782734Y-76209479D01*
X118783000Y-76203691D01*
X118783000Y-75972115D01*
X118778525Y-75956876D01*
X118777135Y-75955671D01*
X118769452Y-75954000D01*
X118147115Y-75954000D01*
X118131876Y-75958475D01*
X118130671Y-75959865D01*
X118129000Y-75967548D01*
X118129000Y-76839884D01*
X117621000Y-76839884D01*
X117621000Y-75427885D01*
X118129000Y-75427885D01*
X118133475Y-75443124D01*
X118134865Y-75444329D01*
X118142548Y-75446000D01*
X118764884Y-75446000D01*
X118780123Y-75441525D01*
X118781328Y-75440135D01*
X118782999Y-75432452D01*
X118782999Y-75196295D01*
X118782736Y-75190546D01*
X118776868Y-75126685D01*
X118774257Y-75113649D01*
X118727285Y-74963757D01*
X118721079Y-74950012D01*
X118640176Y-74816426D01*
X118630869Y-74804557D01*
X118520443Y-74694131D01*
X118508574Y-74684824D01*
X118374988Y-74603921D01*
X118361243Y-74597715D01*
X118211356Y-74550744D01*
X118198306Y-74548131D01*
X118143414Y-74543087D01*
X118131876Y-74546475D01*
X118130671Y-74547865D01*
X118129000Y-74555548D01*
X118129000Y-75427885D01*
X117621000Y-75427885D01*
X117621000Y-74560116D01*
X117616525Y-74544877D01*
X117615135Y-74543672D01*
X117610706Y-74542709D01*
X117551685Y-74548132D01*
X117538649Y-74550743D01*
X117388757Y-74597715D01*
X117375012Y-74603921D01*
X117245422Y-74682404D01*
X117176792Y-74700583D01*
X117106089Y-74676564D01*
X117087094Y-74662763D01*
X117087093Y-74662762D01*
X117081752Y-74658882D01*
X117075724Y-74656198D01*
X117075722Y-74656197D01*
X116913319Y-74583891D01*
X116913318Y-74583891D01*
X116907288Y-74581206D01*
X116808068Y-74560116D01*
X116726944Y-74542872D01*
X116726939Y-74542872D01*
X116720487Y-74541500D01*
X116529513Y-74541500D01*
X116523061Y-74542872D01*
X116523056Y-74542872D01*
X116441932Y-74560116D01*
X116342712Y-74581206D01*
X116336682Y-74583891D01*
X116336681Y-74583891D01*
X116174278Y-74656197D01*
X116174276Y-74656198D01*
X116168248Y-74658882D01*
X116162907Y-74662762D01*
X116162906Y-74662763D01*
X116074061Y-74727313D01*
X116007193Y-74751172D01*
X115938042Y-74735091D01*
X115925939Y-74727313D01*
X115837094Y-74662763D01*
X115837093Y-74662762D01*
X115831752Y-74658882D01*
X115825724Y-74656198D01*
X115825722Y-74656197D01*
X115663319Y-74583891D01*
X115663318Y-74583891D01*
X115657288Y-74581206D01*
X115558068Y-74560116D01*
X115476944Y-74542872D01*
X115476939Y-74542872D01*
X115470487Y-74541500D01*
X115279513Y-74541500D01*
X115273061Y-74542872D01*
X115273056Y-74542872D01*
X115191932Y-74560116D01*
X115092712Y-74581206D01*
X115086682Y-74583891D01*
X115086681Y-74583891D01*
X114924278Y-74656197D01*
X114924276Y-74656198D01*
X114918248Y-74658882D01*
X114912907Y-74662762D01*
X114912906Y-74662763D01*
X114824061Y-74727313D01*
X114757193Y-74751172D01*
X114688042Y-74735091D01*
X114675939Y-74727313D01*
X114587094Y-74662763D01*
X114587093Y-74662762D01*
X114581752Y-74658882D01*
X114575724Y-74656198D01*
X114575722Y-74656197D01*
X114413319Y-74583891D01*
X114413318Y-74583891D01*
X114407288Y-74581206D01*
X114308068Y-74560116D01*
X114226944Y-74542872D01*
X114226939Y-74542872D01*
X114220487Y-74541500D01*
X114029513Y-74541500D01*
X114023061Y-74542872D01*
X114023056Y-74542872D01*
X113941932Y-74560116D01*
X113842712Y-74581206D01*
X113836682Y-74583891D01*
X113836681Y-74583891D01*
X113674278Y-74656197D01*
X113674276Y-74656198D01*
X113668248Y-74658882D01*
X113513747Y-74771134D01*
X113509326Y-74776044D01*
X113509325Y-74776045D01*
X113465376Y-74824856D01*
X113385960Y-74913056D01*
X113290473Y-75078444D01*
X113231458Y-75260072D01*
X113216500Y-75402390D01*
X113216500Y-75997610D01*
X102784283Y-75997610D01*
X102737275Y-75647630D01*
X102708666Y-75521193D01*
X102643368Y-75232618D01*
X102643368Y-75232617D01*
X102642750Y-75229887D01*
X102511463Y-74822202D01*
X102344456Y-74427801D01*
X102143050Y-74049807D01*
X101908840Y-73691214D01*
X101643680Y-73354860D01*
X101349670Y-73043409D01*
X101347579Y-73041556D01*
X101347571Y-73041548D01*
X101031237Y-72761188D01*
X101031235Y-72761186D01*
X101029137Y-72759327D01*
X100684621Y-72504863D01*
X100491733Y-72387355D01*
X100321237Y-72283487D01*
X100321230Y-72283483D01*
X100318848Y-72282032D01*
X100248836Y-72247506D01*
X100196587Y-72199438D01*
X100178620Y-72130752D01*
X100200639Y-72063257D01*
X100255654Y-72018380D01*
X100304564Y-72008500D01*
X146443041Y-72008500D01*
X146511162Y-72028502D01*
G37*
%TD.AperFunction*%
%TD*%
M02*
