M48
; DRILL file {KiCad (6.0.4)} date Wed Apr 20 17:17:14 2022
; FORMAT={-:-/ absolute / inch / decimal}
; #@! TF.CreationDate,2022-04-20T17:17:14+03:00
; #@! TF.GenerationSoftware,Kicad,Pcbnew,(6.0.4)
; #@! TF.FileFunction,Plated,1,4,PTH
FMAT,2
INCH
; #@! TA.AperFunction,Plated,PTH,ViaDrill
T1C0.0157
; #@! TA.AperFunction,Plated,PTH,ComponentDrill
T2C0.0197
; #@! TA.AperFunction,Plated,PTH,ComponentDrill
T3C0.0236
; #@! TA.AperFunction,Plated,PTH,ComponentDrill
T4C0.0512
; #@! TA.AperFunction,Plated,PTH,ComponentDrill
T5C0.1693
%
G90
G05
T1
X4.17Y-4.2
X4.17Y-4.26
X4.17Y-4.32
X4.24Y-3.4
X4.24Y-3.6
X4.26Y-3.77
X4.311Y-3.5
X4.36Y-4.12
X4.43Y-3.64
X4.47Y-3.11
X4.48Y-3.47
X4.62Y-3.45
X4.72Y-3.3
X4.74Y-4.12
X4.84Y-3.36
X4.87Y-3.15
X4.94Y-3.56
X4.98Y-3.6319
X5.42Y-4.03
X5.44Y-4.19
X5.4806Y-4.2814
X5.5197Y-4.3529
X5.53Y-3.69
T2
X4.4833Y-4.7362
X4.4931Y-2.9803
X4.5325Y-4.7362
X4.5423Y-2.9803
X4.5817Y-4.7362
X4.5915Y-2.9803
X4.6309Y-4.7362
X4.6407Y-2.9803
T3
X3.7313Y-3.0118
X3.7313Y-4.7933
X3.7685Y-2.922
X3.7685Y-3.1016
X3.7685Y-4.7035
X3.7685Y-4.8831
X3.8583Y-2.8848
X3.8583Y-3.1388
X3.8583Y-4.6663
X3.8583Y-4.9203
X3.948Y-2.922
X3.948Y-3.1016
X3.948Y-4.7035
X3.948Y-4.8831
X3.9852Y-3.0118
X3.9852Y-4.7933
X5.7293Y-3.0118
X5.7293Y-4.7933
X5.7665Y-2.922
X5.7665Y-3.1016
X5.7665Y-4.7035
X5.7665Y-4.8831
X5.8563Y-2.8848
X5.8563Y-3.1388
X5.8563Y-4.6663
X5.8563Y-4.9203
X5.9461Y-2.922
X5.9461Y-3.1016
X5.9461Y-4.7035
X5.9461Y-4.8831
X5.9833Y-3.0118
X5.9833Y-4.7933
T4
X5.8978Y-4.2421
X5.8978Y-4.439
T5
X3.8583Y-3.0118
X3.8583Y-4.7933
X5.8563Y-3.0118
X5.8563Y-4.7933
T0
M30
