%TF.GenerationSoftware,KiCad,Pcbnew,(6.0.4)*%
%TF.CreationDate,2022-04-20T17:17:18+03:00*%
%TF.ProjectId,STM32F4_Buck_Converter,53544d33-3246-4345-9f42-75636b5f436f,rev?*%
%TF.SameCoordinates,Original*%
%TF.FileFunction,Copper,L4,Bot*%
%TF.FilePolarity,Positive*%
%FSLAX46Y46*%
G04 Gerber Fmt 4.6, Leading zero omitted, Abs format (unit mm)*
G04 Created by KiCad (PCBNEW (6.0.4)) date 2022-04-20 17:17:18*
%MOMM*%
%LPD*%
G01*
G04 APERTURE LIST*
G04 Aperture macros list*
%AMRoundRect*
0 Rectangle with rounded corners*
0 $1 Rounding radius*
0 $2 $3 $4 $5 $6 $7 $8 $9 X,Y pos of 4 corners*
0 Add a 4 corners polygon primitive as box body*
4,1,4,$2,$3,$4,$5,$6,$7,$8,$9,$2,$3,0*
0 Add four circle primitives for the rounded corners*
1,1,$1+$1,$2,$3*
1,1,$1+$1,$4,$5*
1,1,$1+$1,$6,$7*
1,1,$1+$1,$8,$9*
0 Add four rect primitives between the rounded corners*
20,1,$1+$1,$2,$3,$4,$5,0*
20,1,$1+$1,$4,$5,$6,$7,0*
20,1,$1+$1,$6,$7,$8,$9,0*
20,1,$1+$1,$8,$9,$2,$3,0*%
G04 Aperture macros list end*
%TA.AperFunction,ComponentPad*%
%ADD10C,0.900000*%
%TD*%
%TA.AperFunction,ComponentPad*%
%ADD11C,8.600000*%
%TD*%
%TA.AperFunction,ComponentPad*%
%ADD12R,2.600000X2.600000*%
%TD*%
%TA.AperFunction,ComponentPad*%
%ADD13C,2.600000*%
%TD*%
%TA.AperFunction,ComponentPad*%
%ADD14RoundRect,0.200000X0.200000X0.450000X-0.200000X0.450000X-0.200000X-0.450000X0.200000X-0.450000X0*%
%TD*%
%TA.AperFunction,ComponentPad*%
%ADD15O,0.800000X1.300000*%
%TD*%
%TA.AperFunction,ComponentPad*%
%ADD16RoundRect,0.200000X-0.200000X-0.450000X0.200000X-0.450000X0.200000X0.450000X-0.200000X0.450000X0*%
%TD*%
%TA.AperFunction,ViaPad*%
%ADD17C,0.800000*%
%TD*%
G04 APERTURE END LIST*
D10*
%TO.P,H4,1,1*%
%TO.N,GND*%
X148750000Y-79725000D03*
X151030419Y-74219581D03*
D11*
X148750000Y-76500000D03*
D10*
X145525000Y-76500000D03*
X151030419Y-78780419D03*
X151975000Y-76500000D03*
X146469581Y-78780419D03*
X148750000Y-73275000D03*
X146469581Y-74219581D03*
%TD*%
D12*
%TO.P,J1,1,Pin_1*%
%TO.N,+12V*%
X149805000Y-112750000D03*
D13*
%TO.P,J1,2,Pin_2*%
%TO.N,GND*%
X149805000Y-107750000D03*
%TD*%
D14*
%TO.P,J3,1,Pin_1*%
%TO.N,+3V3*%
X117875000Y-75700000D03*
D15*
%TO.P,J3,2,Pin_2*%
%TO.N,I2C1_SCL*%
X116625000Y-75700000D03*
%TO.P,J3,3,Pin_3*%
%TO.N,IC21_SDA*%
X115375000Y-75700000D03*
%TO.P,J3,4,Pin_4*%
%TO.N,GND*%
X114125000Y-75700000D03*
%TD*%
D10*
%TO.P,H3,1,1*%
%TO.N,GND*%
X146469581Y-119469581D03*
D11*
X148750000Y-121750000D03*
D10*
X145525000Y-121750000D03*
X146469581Y-124030419D03*
X151975000Y-121750000D03*
X148750000Y-124975000D03*
X148750000Y-118525000D03*
X151030419Y-119469581D03*
X151030419Y-124030419D03*
%TD*%
D16*
%TO.P,J4,1,Pin_1*%
%TO.N,+3V3*%
X113875000Y-120300000D03*
D15*
%TO.P,J4,2,Pin_2*%
%TO.N,USART3_RX*%
X115125000Y-120300000D03*
%TO.P,J4,3,Pin_3*%
%TO.N,USART3_TX*%
X116375000Y-120300000D03*
%TO.P,J4,4,Pin_4*%
%TO.N,GND*%
X117625000Y-120300000D03*
%TD*%
D10*
%TO.P,H2,1,1*%
%TO.N,GND*%
X101225000Y-76500000D03*
X100280419Y-74219581D03*
X94775000Y-76500000D03*
X95719581Y-78780419D03*
X100280419Y-78780419D03*
X98000000Y-73275000D03*
D11*
X98000000Y-76500000D03*
D10*
X98000000Y-79725000D03*
X95719581Y-74219581D03*
%TD*%
%TO.P,H1,1,1*%
%TO.N,GND*%
X101225000Y-121750000D03*
X98000000Y-124975000D03*
X100280419Y-119469581D03*
X98000000Y-118525000D03*
X100280419Y-124030419D03*
D11*
X98000000Y-121750000D03*
D10*
X95719581Y-124030419D03*
X95719581Y-119469581D03*
X94775000Y-121750000D03*
%TD*%
D17*
%TO.N,GND*%
X112522000Y-92456000D03*
X139207192Y-108747872D03*
X105918000Y-109728000D03*
X140462000Y-93726000D03*
X107696000Y-86360000D03*
X137668000Y-102362000D03*
X113538000Y-78994000D03*
X126492000Y-92250500D03*
X140200000Y-110562500D03*
X105918000Y-106680000D03*
X120396000Y-104648000D03*
X138176000Y-106426000D03*
X110744000Y-104648000D03*
%TO.N,+3V3*%
X125476000Y-90424000D03*
X122936000Y-85344000D03*
X109499500Y-88900000D03*
X107696000Y-91440000D03*
%TO.N,SWO*%
X119888000Y-83820000D03*
X117348000Y-87630000D03*
%TO.N,NRST*%
X123698000Y-80010000D03*
X108204000Y-95758000D03*
%TO.N,Net-(R7-Pad2)*%
X113792000Y-88138000D03*
X105918000Y-108204000D03*
%TD*%
M02*
