%TF.GenerationSoftware,KiCad,Pcbnew,(6.0.4)*%
%TF.CreationDate,2022-04-20T17:17:17+03:00*%
%TF.ProjectId,STM32F4_Buck_Converter,53544d33-3246-4345-9f42-75636b5f436f,rev?*%
%TF.SameCoordinates,Original*%
%TF.FileFunction,Copper,L1,Top*%
%TF.FilePolarity,Positive*%
%FSLAX46Y46*%
G04 Gerber Fmt 4.6, Leading zero omitted, Abs format (unit mm)*
G04 Created by KiCad (PCBNEW (6.0.4)) date 2022-04-20 17:17:17*
%MOMM*%
%LPD*%
G01*
G04 APERTURE LIST*
G04 Aperture macros list*
%AMRoundRect*
0 Rectangle with rounded corners*
0 $1 Rounding radius*
0 $2 $3 $4 $5 $6 $7 $8 $9 X,Y pos of 4 corners*
0 Add a 4 corners polygon primitive as box body*
4,1,4,$2,$3,$4,$5,$6,$7,$8,$9,$2,$3,0*
0 Add four circle primitives for the rounded corners*
1,1,$1+$1,$2,$3*
1,1,$1+$1,$4,$5*
1,1,$1+$1,$6,$7*
1,1,$1+$1,$8,$9*
0 Add four rect primitives between the rounded corners*
20,1,$1+$1,$2,$3,$4,$5,0*
20,1,$1+$1,$4,$5,$6,$7,0*
20,1,$1+$1,$6,$7,$8,$9,0*
20,1,$1+$1,$8,$9,$2,$3,0*%
G04 Aperture macros list end*
%TA.AperFunction,SMDPad,CuDef*%
%ADD10RoundRect,0.200000X0.200000X0.275000X-0.200000X0.275000X-0.200000X-0.275000X0.200000X-0.275000X0*%
%TD*%
%TA.AperFunction,SMDPad,CuDef*%
%ADD11RoundRect,0.250000X0.325000X0.650000X-0.325000X0.650000X-0.325000X-0.650000X0.325000X-0.650000X0*%
%TD*%
%TA.AperFunction,SMDPad,CuDef*%
%ADD12RoundRect,0.200000X-0.275000X0.200000X-0.275000X-0.200000X0.275000X-0.200000X0.275000X0.200000X0*%
%TD*%
%TA.AperFunction,ComponentPad*%
%ADD13C,0.900000*%
%TD*%
%TA.AperFunction,ComponentPad*%
%ADD14C,8.600000*%
%TD*%
%TA.AperFunction,SMDPad,CuDef*%
%ADD15RoundRect,0.075000X-0.700000X-0.075000X0.700000X-0.075000X0.700000X0.075000X-0.700000X0.075000X0*%
%TD*%
%TA.AperFunction,SMDPad,CuDef*%
%ADD16RoundRect,0.075000X-0.075000X-0.700000X0.075000X-0.700000X0.075000X0.700000X-0.075000X0.700000X0*%
%TD*%
%TA.AperFunction,SMDPad,CuDef*%
%ADD17RoundRect,0.140000X0.140000X0.170000X-0.140000X0.170000X-0.140000X-0.170000X0.140000X-0.170000X0*%
%TD*%
%TA.AperFunction,SMDPad,CuDef*%
%ADD18RoundRect,0.237500X0.300000X0.237500X-0.300000X0.237500X-0.300000X-0.237500X0.300000X-0.237500X0*%
%TD*%
%TA.AperFunction,SMDPad,CuDef*%
%ADD19RoundRect,0.218750X0.218750X0.256250X-0.218750X0.256250X-0.218750X-0.256250X0.218750X-0.256250X0*%
%TD*%
%TA.AperFunction,SMDPad,CuDef*%
%ADD20RoundRect,0.150000X0.512500X0.150000X-0.512500X0.150000X-0.512500X-0.150000X0.512500X-0.150000X0*%
%TD*%
%TA.AperFunction,SMDPad,CuDef*%
%ADD21RoundRect,0.225000X0.250000X-0.225000X0.250000X0.225000X-0.250000X0.225000X-0.250000X-0.225000X0*%
%TD*%
%TA.AperFunction,SMDPad,CuDef*%
%ADD22RoundRect,0.150000X-0.150000X0.587500X-0.150000X-0.587500X0.150000X-0.587500X0.150000X0.587500X0*%
%TD*%
%TA.AperFunction,SMDPad,CuDef*%
%ADD23R,1.200000X0.900000*%
%TD*%
%TA.AperFunction,SMDPad,CuDef*%
%ADD24RoundRect,0.135000X-0.185000X0.135000X-0.185000X-0.135000X0.185000X-0.135000X0.185000X0.135000X0*%
%TD*%
%TA.AperFunction,SMDPad,CuDef*%
%ADD25RoundRect,0.250000X-0.325000X-0.650000X0.325000X-0.650000X0.325000X0.650000X-0.325000X0.650000X0*%
%TD*%
%TA.AperFunction,ComponentPad*%
%ADD26R,2.600000X2.600000*%
%TD*%
%TA.AperFunction,ComponentPad*%
%ADD27C,2.600000*%
%TD*%
%TA.AperFunction,SMDPad,CuDef*%
%ADD28RoundRect,0.200000X-0.200000X-0.275000X0.200000X-0.275000X0.200000X0.275000X-0.200000X0.275000X0*%
%TD*%
%TA.AperFunction,SMDPad,CuDef*%
%ADD29RoundRect,0.135000X0.135000X0.185000X-0.135000X0.185000X-0.135000X-0.185000X0.135000X-0.185000X0*%
%TD*%
%TA.AperFunction,ComponentPad*%
%ADD30RoundRect,0.200000X0.200000X0.450000X-0.200000X0.450000X-0.200000X-0.450000X0.200000X-0.450000X0*%
%TD*%
%TA.AperFunction,ComponentPad*%
%ADD31O,0.800000X1.300000*%
%TD*%
%TA.AperFunction,SMDPad,CuDef*%
%ADD32RoundRect,0.100000X0.100000X-0.130000X0.100000X0.130000X-0.100000X0.130000X-0.100000X-0.130000X0*%
%TD*%
%TA.AperFunction,SMDPad,CuDef*%
%ADD33RoundRect,0.135000X-0.135000X-0.185000X0.135000X-0.185000X0.135000X0.185000X-0.135000X0.185000X0*%
%TD*%
%TA.AperFunction,SMDPad,CuDef*%
%ADD34R,0.800000X1.000000*%
%TD*%
%TA.AperFunction,SMDPad,CuDef*%
%ADD35R,1.500000X0.700000*%
%TD*%
%TA.AperFunction,SMDPad,CuDef*%
%ADD36RoundRect,0.100000X-0.130000X-0.100000X0.130000X-0.100000X0.130000X0.100000X-0.130000X0.100000X0*%
%TD*%
%TA.AperFunction,SMDPad,CuDef*%
%ADD37RoundRect,0.250000X0.625000X-0.375000X0.625000X0.375000X-0.625000X0.375000X-0.625000X-0.375000X0*%
%TD*%
%TA.AperFunction,SMDPad,CuDef*%
%ADD38RoundRect,0.140000X0.170000X-0.140000X0.170000X0.140000X-0.170000X0.140000X-0.170000X-0.140000X0*%
%TD*%
%TA.AperFunction,SMDPad,CuDef*%
%ADD39R,1.200000X1.400000*%
%TD*%
%TA.AperFunction,SMDPad,CuDef*%
%ADD40RoundRect,0.140000X-0.140000X-0.170000X0.140000X-0.170000X0.140000X0.170000X-0.140000X0.170000X0*%
%TD*%
%TA.AperFunction,SMDPad,CuDef*%
%ADD41RoundRect,0.218750X0.256250X-0.218750X0.256250X0.218750X-0.256250X0.218750X-0.256250X-0.218750X0*%
%TD*%
%TA.AperFunction,SMDPad,CuDef*%
%ADD42RoundRect,0.218750X-0.381250X0.218750X-0.381250X-0.218750X0.381250X-0.218750X0.381250X0.218750X0*%
%TD*%
%TA.AperFunction,SMDPad,CuDef*%
%ADD43RoundRect,0.200000X0.275000X-0.200000X0.275000X0.200000X-0.275000X0.200000X-0.275000X-0.200000X0*%
%TD*%
%TA.AperFunction,SMDPad,CuDef*%
%ADD44R,0.900000X1.200000*%
%TD*%
%TA.AperFunction,ComponentPad*%
%ADD45RoundRect,0.200000X-0.200000X-0.450000X0.200000X-0.450000X0.200000X0.450000X-0.200000X0.450000X0*%
%TD*%
%TA.AperFunction,SMDPad,CuDef*%
%ADD46RoundRect,0.140000X-0.170000X0.140000X-0.170000X-0.140000X0.170000X-0.140000X0.170000X0.140000X0*%
%TD*%
%TA.AperFunction,SMDPad,CuDef*%
%ADD47RoundRect,0.150000X0.150000X-0.512500X0.150000X0.512500X-0.150000X0.512500X-0.150000X-0.512500X0*%
%TD*%
%TA.AperFunction,SMDPad,CuDef*%
%ADD48RoundRect,0.147500X-0.147500X-0.172500X0.147500X-0.172500X0.147500X0.172500X-0.147500X0.172500X0*%
%TD*%
%TA.AperFunction,SMDPad,CuDef*%
%ADD49R,1.380000X0.450000*%
%TD*%
%TA.AperFunction,SMDPad,CuDef*%
%ADD50R,1.550000X1.425000*%
%TD*%
%TA.AperFunction,SMDPad,CuDef*%
%ADD51R,1.300000X1.650000*%
%TD*%
%TA.AperFunction,SMDPad,CuDef*%
%ADD52R,1.900000X1.000000*%
%TD*%
%TA.AperFunction,SMDPad,CuDef*%
%ADD53R,1.900000X1.800000*%
%TD*%
%TA.AperFunction,SMDPad,CuDef*%
%ADD54RoundRect,0.375000X-0.725000X0.375000X-0.725000X-0.375000X0.725000X-0.375000X0.725000X0.375000X0*%
%TD*%
%TA.AperFunction,SMDPad,CuDef*%
%ADD55R,0.740000X2.400000*%
%TD*%
%TA.AperFunction,SMDPad,CuDef*%
%ADD56RoundRect,0.250000X-0.625000X0.375000X-0.625000X-0.375000X0.625000X-0.375000X0.625000X0.375000X0*%
%TD*%
%TA.AperFunction,ViaPad*%
%ADD57C,0.800000*%
%TD*%
%TA.AperFunction,Conductor*%
%ADD58C,0.300000*%
%TD*%
%TA.AperFunction,Conductor*%
%ADD59C,0.500000*%
%TD*%
%TA.AperFunction,Conductor*%
%ADD60C,0.750000*%
%TD*%
G04 APERTURE END LIST*
D10*
%TO.P,R2,1*%
%TO.N,BUCK_EN*%
X134825000Y-107750000D03*
%TO.P,R2,2*%
%TO.N,BUCK_IN*%
X133175000Y-107750000D03*
%TD*%
D11*
%TO.P,C2,1*%
%TO.N,GND*%
X131475000Y-116000000D03*
%TO.P,C2,2*%
%TO.N,+3V3*%
X128525000Y-116000000D03*
%TD*%
D12*
%TO.P,R4,1*%
%TO.N,GND*%
X140250000Y-106675000D03*
%TO.P,R4,2*%
%TO.N,BUCK_EN*%
X140250000Y-108325000D03*
%TD*%
D13*
%TO.P,H4,1,1*%
%TO.N,GND*%
X148750000Y-79725000D03*
X151030419Y-74219581D03*
D14*
X148750000Y-76500000D03*
D13*
X145525000Y-76500000D03*
X151030419Y-78780419D03*
X151975000Y-76500000D03*
X146469581Y-78780419D03*
X148750000Y-73275000D03*
X146469581Y-74219581D03*
%TD*%
D15*
%TO.P,U2,1,VBAT*%
%TO.N,+3V3*%
X110825000Y-91500000D03*
%TO.P,U2,2,PC13*%
%TO.N,unconnected-(U2-Pad2)*%
X110825000Y-92000000D03*
%TO.P,U2,3,PC14*%
%TO.N,unconnected-(U2-Pad3)*%
X110825000Y-92500000D03*
%TO.P,U2,4,PC15*%
%TO.N,unconnected-(U2-Pad4)*%
X110825000Y-93000000D03*
%TO.P,U2,5,PH0*%
%TO.N,HSE_IN*%
X110825000Y-93500000D03*
%TO.P,U2,6,PH1*%
%TO.N,HSE_OUT*%
X110825000Y-94000000D03*
%TO.P,U2,7,NRST*%
%TO.N,NRST*%
X110825000Y-94500000D03*
%TO.P,U2,8,PC0*%
%TO.N,unconnected-(U2-Pad8)*%
X110825000Y-95000000D03*
%TO.P,U2,9,PC1*%
%TO.N,unconnected-(U2-Pad9)*%
X110825000Y-95500000D03*
%TO.P,U2,10,PC2*%
%TO.N,unconnected-(U2-Pad10)*%
X110825000Y-96000000D03*
%TO.P,U2,11,PC3*%
%TO.N,unconnected-(U2-Pad11)*%
X110825000Y-96500000D03*
%TO.P,U2,12,VSSA*%
%TO.N,GND*%
X110825000Y-97000000D03*
%TO.P,U2,13,VDDA*%
%TO.N,+3.3VA*%
X110825000Y-97500000D03*
%TO.P,U2,14,PA0*%
%TO.N,unconnected-(U2-Pad14)*%
X110825000Y-98000000D03*
%TO.P,U2,15,PA1*%
%TO.N,LED_STATUS*%
X110825000Y-98500000D03*
%TO.P,U2,16,PA2*%
%TO.N,unconnected-(U2-Pad16)*%
X110825000Y-99000000D03*
D16*
%TO.P,U2,17,PA3*%
%TO.N,unconnected-(U2-Pad17)*%
X112750000Y-100925000D03*
%TO.P,U2,18,VSS*%
%TO.N,GND*%
X113250000Y-100925000D03*
%TO.P,U2,19,VDD*%
%TO.N,+3V3*%
X113750000Y-100925000D03*
%TO.P,U2,20,PA4*%
%TO.N,unconnected-(U2-Pad20)*%
X114250000Y-100925000D03*
%TO.P,U2,21,PA5*%
%TO.N,unconnected-(U2-Pad21)*%
X114750000Y-100925000D03*
%TO.P,U2,22,PA6*%
%TO.N,unconnected-(U2-Pad22)*%
X115250000Y-100925000D03*
%TO.P,U2,23,PA7*%
%TO.N,unconnected-(U2-Pad23)*%
X115750000Y-100925000D03*
%TO.P,U2,24,PC4*%
%TO.N,unconnected-(U2-Pad24)*%
X116250000Y-100925000D03*
%TO.P,U2,25,PC5*%
%TO.N,unconnected-(U2-Pad25)*%
X116750000Y-100925000D03*
%TO.P,U2,26,PB0*%
%TO.N,unconnected-(U2-Pad26)*%
X117250000Y-100925000D03*
%TO.P,U2,27,PB1*%
%TO.N,unconnected-(U2-Pad27)*%
X117750000Y-100925000D03*
%TO.P,U2,28,PB2*%
%TO.N,unconnected-(U2-Pad28)*%
X118250000Y-100925000D03*
%TO.P,U2,29,PB10*%
%TO.N,USART3_RX*%
X118750000Y-100925000D03*
%TO.P,U2,30,PB11*%
%TO.N,USART3_TX*%
X119250000Y-100925000D03*
%TO.P,U2,31,VCAP_1*%
%TO.N,Net-(C13-Pad1)*%
X119750000Y-100925000D03*
%TO.P,U2,32,VDD*%
%TO.N,+3V3*%
X120250000Y-100925000D03*
D15*
%TO.P,U2,33,PB12*%
%TO.N,unconnected-(U2-Pad33)*%
X122175000Y-99000000D03*
%TO.P,U2,34,PB13*%
%TO.N,unconnected-(U2-Pad34)*%
X122175000Y-98500000D03*
%TO.P,U2,35,PB14*%
%TO.N,unconnected-(U2-Pad35)*%
X122175000Y-98000000D03*
%TO.P,U2,36,PB15*%
%TO.N,unconnected-(U2-Pad36)*%
X122175000Y-97500000D03*
%TO.P,U2,37,PC6*%
%TO.N,unconnected-(U2-Pad37)*%
X122175000Y-97000000D03*
%TO.P,U2,38,PC7*%
%TO.N,unconnected-(U2-Pad38)*%
X122175000Y-96500000D03*
%TO.P,U2,39,PC8*%
%TO.N,unconnected-(U2-Pad39)*%
X122175000Y-96000000D03*
%TO.P,U2,40,PC9*%
%TO.N,unconnected-(U2-Pad40)*%
X122175000Y-95500000D03*
%TO.P,U2,41,PA8*%
%TO.N,unconnected-(U2-Pad41)*%
X122175000Y-95000000D03*
%TO.P,U2,42,PA9*%
%TO.N,unconnected-(U2-Pad42)*%
X122175000Y-94500000D03*
%TO.P,U2,43,PA10*%
%TO.N,unconnected-(U2-Pad43)*%
X122175000Y-94000000D03*
%TO.P,U2,44,PA11*%
%TO.N,USB_D-*%
X122175000Y-93500000D03*
%TO.P,U2,45,PA12*%
%TO.N,USB_D+*%
X122175000Y-93000000D03*
%TO.P,U2,46,PA13*%
%TO.N,SWDIO*%
X122175000Y-92500000D03*
%TO.P,U2,47,VCAP_2*%
%TO.N,Net-(C14-Pad1)*%
X122175000Y-92000000D03*
%TO.P,U2,48,VDD*%
%TO.N,+3V3*%
X122175000Y-91500000D03*
D16*
%TO.P,U2,49,PA14*%
%TO.N,SWCLK*%
X120250000Y-89575000D03*
%TO.P,U2,50,PA15*%
%TO.N,unconnected-(U2-Pad50)*%
X119750000Y-89575000D03*
%TO.P,U2,51,PC10*%
%TO.N,unconnected-(U2-Pad51)*%
X119250000Y-89575000D03*
%TO.P,U2,52,PC11*%
%TO.N,unconnected-(U2-Pad52)*%
X118750000Y-89575000D03*
%TO.P,U2,53,PC12*%
%TO.N,unconnected-(U2-Pad53)*%
X118250000Y-89575000D03*
%TO.P,U2,54,PD2*%
%TO.N,unconnected-(U2-Pad54)*%
X117750000Y-89575000D03*
%TO.P,U2,55,PB3*%
%TO.N,SWO*%
X117250000Y-89575000D03*
%TO.P,U2,56,PB4*%
%TO.N,unconnected-(U2-Pad56)*%
X116750000Y-89575000D03*
%TO.P,U2,57,PB5*%
%TO.N,unconnected-(U2-Pad57)*%
X116250000Y-89575000D03*
%TO.P,U2,58,PB6*%
%TO.N,I2C1_SCL*%
X115750000Y-89575000D03*
%TO.P,U2,59,PB7*%
%TO.N,IC21_SDA*%
X115250000Y-89575000D03*
%TO.P,U2,60,BOOT0*%
%TO.N,BOOT0*%
X114750000Y-89575000D03*
%TO.P,U2,61,PB8*%
%TO.N,unconnected-(U2-Pad61)*%
X114250000Y-89575000D03*
%TO.P,U2,62,PB9*%
%TO.N,unconnected-(U2-Pad62)*%
X113750000Y-89575000D03*
%TO.P,U2,63,VSS*%
%TO.N,GND*%
X113250000Y-89575000D03*
%TO.P,U2,64,VDD*%
%TO.N,+3V3*%
X112750000Y-89575000D03*
%TD*%
D17*
%TO.P,C10,1*%
%TO.N,+3V3*%
X110000000Y-86000000D03*
%TO.P,C10,2*%
%TO.N,GND*%
X109040000Y-86000000D03*
%TD*%
D18*
%TO.P,C5,1*%
%TO.N,+3V3*%
X110500000Y-87500000D03*
%TO.P,C5,2*%
%TO.N,GND*%
X108775000Y-87500000D03*
%TD*%
D19*
%TO.P,D3,1,K*%
%TO.N,Net-(D3-Pad1)*%
X128537500Y-89000000D03*
%TO.P,D3,2,A*%
%TO.N,+3V3*%
X126962500Y-89000000D03*
%TD*%
D17*
%TO.P,C16,1*%
%TO.N,Net-(C16-Pad1)*%
X105900000Y-95800000D03*
%TO.P,C16,2*%
%TO.N,GND*%
X104940000Y-95800000D03*
%TD*%
D20*
%TO.P,U3,1,I/O1*%
%TO.N,USB_CONN_D-*%
X142387500Y-97200000D03*
%TO.P,U3,2,GND*%
%TO.N,GND*%
X142387500Y-96250000D03*
%TO.P,U3,3,I/O2*%
%TO.N,USB_CONN_D+*%
X142387500Y-95300000D03*
%TO.P,U3,4,I/O2*%
%TO.N,USB_D+*%
X140112500Y-95300000D03*
%TO.P,U3,5,VBUS*%
%TO.N,+5V*%
X140112500Y-96250000D03*
%TO.P,U3,6,I/O1*%
%TO.N,USB_D-*%
X140112500Y-97200000D03*
%TD*%
D17*
%TO.P,C7,1*%
%TO.N,+3V3*%
X114210000Y-103000000D03*
%TO.P,C7,2*%
%TO.N,GND*%
X113250000Y-103000000D03*
%TD*%
D21*
%TO.P,C4,1*%
%TO.N,BUCK_BST*%
X128500000Y-106800000D03*
%TO.P,C4,2*%
%TO.N,BUCK_SW*%
X128500000Y-105250000D03*
%TD*%
D22*
%TO.P,Q1,1,G*%
%TO.N,GND*%
X140200000Y-110562500D03*
%TO.P,Q1,2,S*%
%TO.N,Net-(D1-Pad1)*%
X138300000Y-110562500D03*
%TO.P,Q1,3,D*%
%TO.N,+12V*%
X139250000Y-112437500D03*
%TD*%
D23*
%TO.P,D1,1,K*%
%TO.N,Net-(D1-Pad1)*%
X136750000Y-99900000D03*
%TO.P,D1,2,A*%
%TO.N,+5V*%
X136750000Y-96600000D03*
%TD*%
D24*
%TO.P,R11,1*%
%TO.N,GND*%
X108000000Y-101740000D03*
%TO.P,R11,2*%
%TO.N,Net-(D4-Pad1)*%
X108000000Y-102760000D03*
%TD*%
D25*
%TO.P,C1,1*%
%TO.N,BUCK_IN*%
X131525000Y-102250000D03*
%TO.P,C1,2*%
%TO.N,GND*%
X134475000Y-102250000D03*
%TD*%
D26*
%TO.P,J1,1,Pin_1*%
%TO.N,+12V*%
X149805000Y-112750000D03*
D27*
%TO.P,J1,2,Pin_2*%
%TO.N,GND*%
X149805000Y-107750000D03*
%TD*%
D28*
%TO.P,R6,1*%
%TO.N,GND*%
X126925000Y-91250000D03*
%TO.P,R6,2*%
%TO.N,Net-(D3-Pad1)*%
X128575000Y-91250000D03*
%TD*%
D29*
%TO.P,R7,1*%
%TO.N,BOOT0*%
X114760000Y-87250000D03*
%TO.P,R7,2*%
%TO.N,Net-(R7-Pad2)*%
X113740000Y-87250000D03*
%TD*%
D11*
%TO.P,C3,1*%
%TO.N,GND*%
X131475000Y-119000000D03*
%TO.P,C3,2*%
%TO.N,+3V3*%
X128525000Y-119000000D03*
%TD*%
D30*
%TO.P,J3,1,Pin_1*%
%TO.N,+3V3*%
X117875000Y-75700000D03*
D31*
%TO.P,J3,2,Pin_2*%
%TO.N,I2C1_SCL*%
X116625000Y-75700000D03*
%TO.P,J3,3,Pin_3*%
%TO.N,IC21_SDA*%
X115375000Y-75700000D03*
%TO.P,J3,4,Pin_4*%
%TO.N,GND*%
X114125000Y-75700000D03*
%TD*%
D32*
%TO.P,C14,1*%
%TO.N,Net-(C14-Pad1)*%
X124000000Y-91820000D03*
%TO.P,C14,2*%
%TO.N,GND*%
X124000000Y-91180000D03*
%TD*%
D33*
%TO.P,R8,1*%
%TO.N,Net-(C16-Pad1)*%
X107880000Y-94050000D03*
%TO.P,R8,2*%
%TO.N,HSE_OUT*%
X108900000Y-94050000D03*
%TD*%
D34*
%TO.P,SW1,*%
%TO.N,*%
X103530000Y-111150000D03*
X103530000Y-103850000D03*
X101320000Y-103850000D03*
X101320000Y-111150000D03*
D35*
%TO.P,SW1,1,A*%
%TO.N,+3V3*%
X104180000Y-105250000D03*
%TO.P,SW1,2,B*%
%TO.N,Net-(R7-Pad2)*%
X104180000Y-108250000D03*
%TO.P,SW1,3,C*%
%TO.N,GND*%
X104180000Y-109750000D03*
%TD*%
D36*
%TO.P,C13,1*%
%TO.N,Net-(C13-Pad1)*%
X119775000Y-102750000D03*
%TO.P,C13,2*%
%TO.N,GND*%
X120415000Y-102750000D03*
%TD*%
D33*
%TO.P,R9,1*%
%TO.N,I2C1_SCL*%
X116230000Y-85250000D03*
%TO.P,R9,2*%
%TO.N,+3V3*%
X117250000Y-85250000D03*
%TD*%
D37*
%TO.P,F1,1*%
%TO.N,Net-(D1-Pad1)*%
X132500000Y-99900000D03*
%TO.P,F1,2*%
%TO.N,Net-(FB1-Pad1)*%
X132500000Y-97100000D03*
%TD*%
D38*
%TO.P,C9,1*%
%TO.N,+3V3*%
X122750000Y-89980000D03*
%TO.P,C9,2*%
%TO.N,GND*%
X122750000Y-89020000D03*
%TD*%
D39*
%TO.P,Y1,1,1*%
%TO.N,HSE_IN*%
X104550000Y-91800000D03*
%TO.P,Y1,2,2*%
%TO.N,GND*%
X104550000Y-94000000D03*
%TO.P,Y1,3,3*%
%TO.N,Net-(C16-Pad1)*%
X106250000Y-94000000D03*
%TO.P,Y1,4,4*%
%TO.N,GND*%
X106250000Y-91800000D03*
%TD*%
D13*
%TO.P,H3,1,1*%
%TO.N,GND*%
X146469581Y-119469581D03*
D14*
X148750000Y-121750000D03*
D13*
X145525000Y-121750000D03*
X146469581Y-124030419D03*
X151975000Y-121750000D03*
X148750000Y-124975000D03*
X148750000Y-118525000D03*
X151030419Y-119469581D03*
X151030419Y-124030419D03*
%TD*%
D40*
%TO.P,C15,1*%
%TO.N,HSE_IN*%
X104940000Y-90050000D03*
%TO.P,C15,2*%
%TO.N,GND*%
X105900000Y-90050000D03*
%TD*%
D41*
%TO.P,D4,1,K*%
%TO.N,Net-(D4-Pad1)*%
X109750000Y-102537500D03*
%TO.P,D4,2,A*%
%TO.N,LED_STATUS*%
X109750000Y-100962500D03*
%TD*%
D42*
%TO.P,FB1,1*%
%TO.N,Net-(FB1-Pad1)*%
X128500000Y-97187500D03*
%TO.P,FB1,2*%
%TO.N,BUCK_IN*%
X128500000Y-99312500D03*
%TD*%
D43*
%TO.P,R3,1*%
%TO.N,Net-(R3-Pad1)*%
X137000000Y-116325000D03*
%TO.P,R3,2*%
%TO.N,BUCK_FB*%
X137000000Y-114675000D03*
%TD*%
D38*
%TO.P,C6,1*%
%TO.N,+3V3*%
X108750000Y-91460000D03*
%TO.P,C6,2*%
%TO.N,GND*%
X108750000Y-90500000D03*
%TD*%
D44*
%TO.P,D2,1,K*%
%TO.N,BUCK_SW*%
X131350000Y-105500000D03*
%TO.P,D2,2,A*%
%TO.N,GND*%
X134650000Y-105500000D03*
%TD*%
D45*
%TO.P,J4,1,Pin_1*%
%TO.N,+3V3*%
X113875000Y-120300000D03*
D31*
%TO.P,J4,2,Pin_2*%
%TO.N,USART3_RX*%
X115125000Y-120300000D03*
%TO.P,J4,3,Pin_3*%
%TO.N,USART3_TX*%
X116375000Y-120300000D03*
%TO.P,J4,4,Pin_4*%
%TO.N,GND*%
X117625000Y-120300000D03*
%TD*%
D13*
%TO.P,H2,1,1*%
%TO.N,GND*%
X101225000Y-76500000D03*
X100280419Y-74219581D03*
X94775000Y-76500000D03*
X95719581Y-78780419D03*
X100280419Y-78780419D03*
X98000000Y-73275000D03*
D14*
X98000000Y-76500000D03*
D13*
X98000000Y-79725000D03*
X95719581Y-74219581D03*
%TD*%
D46*
%TO.P,C8,1*%
%TO.N,+3V3*%
X122000000Y-101770000D03*
%TO.P,C8,2*%
%TO.N,GND*%
X122000000Y-102730000D03*
%TD*%
D13*
%TO.P,H1,1,1*%
%TO.N,GND*%
X101225000Y-121750000D03*
X98000000Y-124975000D03*
X100280419Y-119469581D03*
X98000000Y-118525000D03*
X100280419Y-124030419D03*
D14*
X98000000Y-121750000D03*
D13*
X95719581Y-124030419D03*
X95719581Y-119469581D03*
X94775000Y-121750000D03*
%TD*%
D47*
%TO.P,U1,1,BST*%
%TO.N,BUCK_BST*%
X133050000Y-112137500D03*
%TO.P,U1,2,GND*%
%TO.N,GND*%
X134000000Y-112137500D03*
%TO.P,U1,3,FB*%
%TO.N,BUCK_FB*%
X134950000Y-112137500D03*
%TO.P,U1,4,EN*%
%TO.N,BUCK_EN*%
X134950000Y-109862500D03*
%TO.P,U1,5,IN*%
%TO.N,BUCK_IN*%
X134000000Y-109862500D03*
%TO.P,U1,6,SW*%
%TO.N,BUCK_SW*%
X133050000Y-109862500D03*
%TD*%
D48*
%TO.P,L2,1*%
%TO.N,+3V3*%
X105780000Y-99250000D03*
%TO.P,L2,2*%
%TO.N,+3.3VA*%
X106750000Y-99250000D03*
%TD*%
D29*
%TO.P,R10,1*%
%TO.N,IC21_SDA*%
X114990000Y-85250000D03*
%TO.P,R10,2*%
%TO.N,+3V3*%
X113970000Y-85250000D03*
%TD*%
D12*
%TO.P,R1,1*%
%TO.N,BUCK_FB*%
X135000000Y-114675000D03*
%TO.P,R1,2*%
%TO.N,+3V3*%
X135000000Y-116325000D03*
%TD*%
D38*
%TO.P,C12,1*%
%TO.N,+3.3VA*%
X109000000Y-97980000D03*
%TO.P,C12,2*%
%TO.N,GND*%
X109000000Y-97020000D03*
%TD*%
D49*
%TO.P,J5,1,VBUS*%
%TO.N,+5V*%
X145940000Y-96550000D03*
%TO.P,J5,2,D-*%
%TO.N,USB_CONN_D-*%
X145940000Y-95900000D03*
%TO.P,J5,3,D+*%
%TO.N,USB_CONN_D+*%
X145940000Y-95250000D03*
%TO.P,J5,4,ID*%
%TO.N,unconnected-(J5-Pad4)*%
X145940000Y-94600000D03*
%TO.P,J5,5,GND*%
%TO.N,GND*%
X145940000Y-93950000D03*
D50*
%TO.P,J5,6,Shield*%
%TO.N,unconnected-(J5-Pad6)*%
X146025000Y-97737500D03*
X146025000Y-92762500D03*
D51*
X148600000Y-98625000D03*
X148600000Y-91875000D03*
D52*
X148600000Y-93700000D03*
D53*
X148600000Y-96400000D03*
%TD*%
D54*
%TO.P,L1,1*%
%TO.N,BUCK_SW*%
X125500000Y-108250000D03*
%TO.P,L1,2*%
%TO.N,+3V3*%
X125500000Y-113750000D03*
%TD*%
D28*
%TO.P,R5,1*%
%TO.N,GND*%
X134925000Y-118750000D03*
%TO.P,R5,2*%
%TO.N,Net-(R3-Pad1)*%
X136575000Y-118750000D03*
%TD*%
D55*
%TO.P,J2,1,Pin_1*%
%TO.N,+3V3*%
X130540000Y-75800000D03*
%TO.P,J2,2,Pin_2*%
%TO.N,SWDIO*%
X130540000Y-79700000D03*
%TO.P,J2,3,Pin_3*%
%TO.N,GND*%
X129270000Y-75800000D03*
%TO.P,J2,4,Pin_4*%
%TO.N,SWCLK*%
X129270000Y-79700000D03*
%TO.P,J2,5,Pin_5*%
%TO.N,GND*%
X128000000Y-75800000D03*
%TO.P,J2,6,Pin_6*%
%TO.N,SWO*%
X128000000Y-79700000D03*
%TO.P,J2,7,Pin_7*%
%TO.N,unconnected-(J2-Pad7)*%
X126730000Y-75800000D03*
%TO.P,J2,8,Pin_8*%
%TO.N,unconnected-(J2-Pad8)*%
X126730000Y-79700000D03*
%TO.P,J2,9,Pin_9*%
%TO.N,GND*%
X125460000Y-75800000D03*
%TO.P,J2,10,Pin_10*%
%TO.N,NRST*%
X125460000Y-79700000D03*
%TD*%
D56*
%TO.P,F1,1*%
%TO.N,+12V*%
X139500000Y-114850000D03*
%TO.P,F1,2*%
%TO.N,Net-(F1-Pad2)*%
X139500000Y-117650000D03*
%TD*%
D38*
%TO.P,C11,1*%
%TO.N,+3.3VA*%
X107750000Y-97980000D03*
%TO.P,C11,2*%
%TO.N,GND*%
X107750000Y-97020000D03*
%TD*%
D57*
%TO.N,GND*%
X112522000Y-92456000D03*
X139207192Y-108747872D03*
X105918000Y-109728000D03*
X140462000Y-93726000D03*
X107696000Y-86360000D03*
X137668000Y-102362000D03*
X113538000Y-78994000D03*
X126492000Y-92250500D03*
X140200000Y-110562500D03*
X105918000Y-106680000D03*
X120396000Y-104648000D03*
X138176000Y-106426000D03*
X110744000Y-104648000D03*
%TO.N,+3V3*%
X125476000Y-90424000D03*
X122936000Y-85344000D03*
X109499500Y-88900000D03*
X107696000Y-91440000D03*
%TO.N,SWO*%
X119888000Y-83820000D03*
X117348000Y-87630000D03*
%TO.N,NRST*%
X123698000Y-80010000D03*
X108204000Y-95758000D03*
%TO.N,Net-(R7-Pad2)*%
X113792000Y-88138000D03*
X105918000Y-108204000D03*
%TD*%
D58*
%TO.N,BUCK_IN*%
X134000000Y-109862500D02*
X134000000Y-108575000D01*
X133175000Y-103900000D02*
X131525000Y-102250000D01*
X134000000Y-108575000D02*
X133175000Y-107750000D01*
X131525000Y-102250000D02*
X131437500Y-102250000D01*
X131437500Y-102250000D02*
X128500000Y-99312500D01*
X133175000Y-107750000D02*
X133175000Y-103900000D01*
%TO.N,GND*%
X109020000Y-97000000D02*
X110825000Y-97000000D01*
X145940000Y-93950000D02*
X142368573Y-93950000D01*
X129270000Y-77708000D02*
X129270000Y-75800000D01*
X124000000Y-91180000D02*
X126855000Y-91180000D01*
X116867019Y-72898000D02*
X132080000Y-72898000D01*
X134650000Y-105500000D02*
X134650000Y-102425000D01*
X134000000Y-111718573D02*
X134593093Y-111125480D01*
X109040000Y-86000000D02*
X109040000Y-87235000D01*
X135825480Y-117849520D02*
X134925000Y-118750000D01*
X139075000Y-105500000D02*
X140250000Y-106675000D01*
X135575480Y-115575480D02*
X135825480Y-115825480D01*
X106250000Y-91800000D02*
X107550000Y-90500000D01*
X112392000Y-103000000D02*
X110744000Y-104648000D01*
X122750000Y-89020000D02*
X123594520Y-88175480D01*
X127416635Y-88175480D02*
X127749520Y-88508365D01*
X107550000Y-90500000D02*
X108750000Y-90500000D01*
X134475000Y-102250000D02*
X137556000Y-102250000D01*
X114125000Y-75640019D02*
X116867019Y-72898000D01*
X132080000Y-72898000D02*
X132080000Y-76708000D01*
X108750000Y-90500000D02*
X108750000Y-87525000D01*
X126492000Y-91683000D02*
X126925000Y-91250000D01*
X110825000Y-97000000D02*
X111700361Y-97000000D01*
X133786431Y-116286431D02*
X134497382Y-115575480D01*
X105918000Y-109728000D02*
X104202000Y-109728000D01*
X126492000Y-92250500D02*
X126492000Y-91683000D01*
X131475000Y-118597862D02*
X133786431Y-116286431D01*
X109040000Y-87235000D02*
X108775000Y-87500000D01*
X113042500Y-92964000D02*
X113042500Y-94475500D01*
X113250000Y-90458000D02*
X113250000Y-89575000D01*
X142368573Y-93950000D02*
X141375480Y-94943093D01*
X134000000Y-112137500D02*
X134000000Y-116072862D01*
X108750000Y-90500000D02*
X108949520Y-90699520D01*
X105900000Y-90050000D02*
X105900000Y-91450000D01*
X103600489Y-90387226D02*
X106487715Y-87500000D01*
X141375480Y-94943093D02*
X141375480Y-95656907D01*
X127749520Y-90425480D02*
X126925000Y-91250000D01*
X135254520Y-111125480D02*
X137160000Y-109220000D01*
X134000000Y-116072862D02*
X133786431Y-116286431D01*
X123594520Y-88175480D02*
X127416635Y-88175480D01*
X137556000Y-102250000D02*
X137668000Y-102362000D01*
X106810000Y-87500000D02*
X108775000Y-87500000D01*
X134497382Y-115575480D02*
X135575480Y-115575480D01*
X127346000Y-77724000D02*
X129270000Y-75800000D01*
X141668093Y-95949520D02*
X142387500Y-95949520D01*
X108750000Y-87525000D02*
X108775000Y-87500000D01*
X131475000Y-119000000D02*
X131475000Y-116000000D01*
X127749520Y-88508365D02*
X127749520Y-90425480D01*
X113250000Y-98549639D02*
X113250000Y-100925000D01*
X113042500Y-92976500D02*
X112522000Y-92456000D01*
X106522000Y-109728000D02*
X105918000Y-109728000D01*
X141375480Y-95656907D02*
X141668093Y-95949520D01*
X129286000Y-77724000D02*
X129270000Y-77708000D01*
X113250000Y-103000000D02*
X106522000Y-109728000D01*
X105900000Y-91450000D02*
X106250000Y-91800000D01*
X113250000Y-100925000D02*
X113250000Y-103000000D01*
X135825480Y-115825480D02*
X135825480Y-117849520D01*
X113042500Y-94475500D02*
X113042500Y-92976500D01*
X104940000Y-95842285D02*
X106117715Y-97020000D01*
X109000000Y-97020000D02*
X109020000Y-97000000D01*
X113042500Y-94475500D02*
X113042500Y-98342139D01*
X104550000Y-94000000D02*
X103600489Y-93050489D01*
X120396000Y-104648000D02*
X120396000Y-102769000D01*
X106487715Y-87500000D02*
X106810000Y-87500000D01*
X134650000Y-105500000D02*
X139075000Y-105500000D01*
X125460000Y-77200000D02*
X125984000Y-77724000D01*
X106934000Y-102806000D02*
X106934000Y-105664000D01*
X113250000Y-89575000D02*
X113250000Y-92756500D01*
X106117715Y-97020000D02*
X107750000Y-97020000D01*
X134593093Y-111125480D02*
X135254520Y-111125480D01*
X108000000Y-101740000D02*
X106934000Y-102806000D01*
X137160000Y-109220000D02*
X138735064Y-109220000D01*
X108949520Y-90699520D02*
X113008480Y-90699520D01*
X129270000Y-75800000D02*
X128000000Y-75800000D01*
X114125000Y-78407000D02*
X114125000Y-75700000D01*
X104940000Y-95800000D02*
X104940000Y-95842285D01*
X104550000Y-94000000D02*
X104550000Y-93700000D01*
X140686000Y-93950000D02*
X145940000Y-93950000D01*
X104940000Y-95800000D02*
X104940000Y-94390000D01*
X140462000Y-93726000D02*
X140686000Y-93950000D01*
X131064000Y-77724000D02*
X129286000Y-77724000D01*
X104940000Y-94390000D02*
X104550000Y-94000000D01*
X106250000Y-92000000D02*
X106250000Y-91800000D01*
X113538000Y-78994000D02*
X114125000Y-78407000D01*
X140001000Y-106426000D02*
X140250000Y-106675000D01*
X107750000Y-97020000D02*
X109000000Y-97020000D01*
X125460000Y-75800000D02*
X125460000Y-77200000D01*
X134650000Y-102425000D02*
X134475000Y-102250000D01*
X107696000Y-86614000D02*
X107696000Y-86360000D01*
X111700361Y-97000000D02*
X113250000Y-98549639D01*
X106934000Y-105664000D02*
X105918000Y-106680000D01*
X125984000Y-77724000D02*
X127346000Y-77724000D01*
X131475000Y-119000000D02*
X131475000Y-118597862D01*
X114125000Y-75700000D02*
X114125000Y-75640019D01*
X120396000Y-102769000D02*
X120415000Y-102750000D01*
X104202000Y-109728000D02*
X104180000Y-109750000D01*
X126855000Y-91180000D02*
X126925000Y-91250000D01*
X138735064Y-109220000D02*
X139207192Y-108747872D01*
X132080000Y-76708000D02*
X131064000Y-77724000D01*
X134000000Y-112137500D02*
X134000000Y-111718573D01*
X103600489Y-93050489D02*
X103600489Y-90387226D01*
X121980000Y-102750000D02*
X122000000Y-102730000D01*
X113250000Y-103000000D02*
X112392000Y-103000000D01*
X113042500Y-98342139D02*
X113250000Y-98549639D01*
X106810000Y-87500000D02*
X107696000Y-86614000D01*
X138176000Y-106426000D02*
X140001000Y-106426000D01*
X113008480Y-90699520D02*
X113250000Y-90458000D01*
X113250000Y-92756500D02*
X113042500Y-92964000D01*
X120415000Y-102750000D02*
X121980000Y-102750000D01*
%TO.N,+3V3*%
X114210000Y-103000000D02*
X114210000Y-102260361D01*
X105780000Y-103650000D02*
X104180000Y-105250000D01*
X124250000Y-90000000D02*
X122770000Y-90000000D01*
X113750000Y-99500000D02*
X113750000Y-100925000D01*
X114000000Y-99250000D02*
X113750000Y-99500000D01*
X122000000Y-101770000D02*
X121095000Y-101770000D01*
X122175000Y-91500000D02*
X122175000Y-90555000D01*
X122175000Y-90555000D02*
X122750000Y-89980000D01*
D59*
X130540000Y-75800000D02*
X130540000Y-74100000D01*
D58*
X105780000Y-99250000D02*
X105780000Y-97987715D01*
X101570479Y-109351884D02*
X101570479Y-108233521D01*
X119450361Y-99250000D02*
X114000000Y-99250000D01*
X121095000Y-101770000D02*
X120250000Y-100925000D01*
X112750000Y-89575000D02*
X112750000Y-86470000D01*
X125476000Y-90424000D02*
X124968000Y-90424000D01*
X135000000Y-117297849D02*
X132048329Y-120249520D01*
X110000000Y-86000000D02*
X113220000Y-86000000D01*
X102616000Y-89916000D02*
X107282000Y-85250000D01*
X126962500Y-89000000D02*
X125250000Y-89000000D01*
X105780000Y-97987715D02*
X102616000Y-94823715D01*
X122842000Y-85250000D02*
X122936000Y-85344000D01*
X107716000Y-91460000D02*
X107696000Y-91440000D01*
X117250000Y-85250000D02*
X122842000Y-85250000D01*
X109499500Y-88900000D02*
X109499500Y-88500500D01*
X113220000Y-86000000D02*
X113970000Y-85250000D01*
X104180000Y-105624000D02*
X104180000Y-105250000D01*
X122659520Y-110909520D02*
X122659520Y-102085520D01*
X105252774Y-111999511D02*
X102780489Y-111999511D01*
X110500000Y-87500000D02*
X110500000Y-86500000D01*
X127750000Y-116000000D02*
X125500000Y-113750000D01*
X113750000Y-101800361D02*
X113750000Y-100925000D01*
X135000000Y-116325000D02*
X135000000Y-117297849D01*
D59*
X117510000Y-76065000D02*
X117875000Y-75700000D01*
D58*
X125500000Y-113750000D02*
X122659520Y-110909520D01*
X114210000Y-103042285D02*
X105252774Y-111999511D01*
D59*
X130440000Y-74000000D02*
X119575000Y-74000000D01*
X130540000Y-74100000D02*
X130440000Y-74000000D01*
D58*
X102780489Y-111999511D02*
X102780489Y-110561894D01*
X124397000Y-89853000D02*
X124250000Y-90000000D01*
X129774520Y-120249520D02*
X128525000Y-119000000D01*
X114210000Y-102260361D02*
X113750000Y-101800361D01*
X122770000Y-90000000D02*
X122750000Y-89980000D01*
X132048329Y-120249520D02*
X129774520Y-120249520D01*
X110785000Y-91460000D02*
X110825000Y-91500000D01*
X102616000Y-94823715D02*
X102616000Y-89916000D01*
X108750000Y-91460000D02*
X110785000Y-91460000D01*
X109499500Y-88500500D02*
X110500000Y-87500000D01*
X101570479Y-108233521D02*
X104180000Y-105624000D01*
X112750000Y-86470000D02*
X113970000Y-85250000D01*
X124968000Y-90424000D02*
X124397000Y-89853000D01*
X120250000Y-100049639D02*
X119450361Y-99250000D01*
X107282000Y-85250000D02*
X113970000Y-85250000D01*
X122344000Y-101770000D02*
X122000000Y-101770000D01*
X128525000Y-119000000D02*
X128525000Y-116000000D01*
X125250000Y-89000000D02*
X124397000Y-89853000D01*
X117875000Y-84625000D02*
X117875000Y-75700000D01*
X110500000Y-86500000D02*
X110000000Y-86000000D01*
X117250000Y-85250000D02*
X117875000Y-84625000D01*
X122659520Y-102085520D02*
X122344000Y-101770000D01*
X114210000Y-103000000D02*
X114210000Y-103042285D01*
X120250000Y-100925000D02*
X120250000Y-100049639D01*
X108750000Y-91460000D02*
X107716000Y-91460000D01*
D59*
X119575000Y-74000000D02*
X117875000Y-75700000D01*
D58*
X102780489Y-110561894D02*
X101570479Y-109351884D01*
X128525000Y-116000000D02*
X127750000Y-116000000D01*
X105780000Y-99250000D02*
X105780000Y-103650000D01*
%TO.N,BUCK_BST*%
X128500000Y-106800000D02*
X128500000Y-107587500D01*
X128500000Y-107587500D02*
X133050000Y-112137500D01*
%TO.N,BUCK_SW*%
X128500000Y-105250000D02*
X131100000Y-105250000D01*
X131100000Y-105250000D02*
X131350000Y-105500000D01*
X125500000Y-108250000D02*
X128500000Y-105250000D01*
X133050000Y-109862500D02*
X131350000Y-108162500D01*
X131350000Y-108162500D02*
X131350000Y-105500000D01*
%TO.N,+3.3VA*%
X109000000Y-97980000D02*
X109469639Y-97980000D01*
D59*
X106750000Y-99250000D02*
X106750000Y-98980000D01*
D58*
X109469639Y-97980000D02*
X109949639Y-97500000D01*
D59*
X106750000Y-98980000D02*
X107750000Y-97980000D01*
D58*
X109000000Y-97980000D02*
X107750000Y-97980000D01*
X109949639Y-97500000D02*
X110825000Y-97500000D01*
%TO.N,Net-(C13-Pad1)*%
X119750000Y-102725000D02*
X119750000Y-100925000D01*
X119775000Y-102750000D02*
X119750000Y-102725000D01*
%TO.N,Net-(C14-Pad1)*%
X123820000Y-92000000D02*
X124000000Y-91820000D01*
X122175000Y-92000000D02*
X123820000Y-92000000D01*
%TO.N,HSE_IN*%
X108704725Y-92849511D02*
X105499511Y-92849511D01*
X109355214Y-93500000D02*
X108704725Y-92849511D01*
X104550000Y-90440000D02*
X104940000Y-90050000D01*
X110825000Y-93500000D02*
X109355214Y-93500000D01*
X104550000Y-91900000D02*
X104550000Y-91800000D01*
X104550000Y-91800000D02*
X104550000Y-90440000D01*
X105499511Y-92849511D02*
X104550000Y-91900000D01*
%TO.N,Net-(C16-Pad1)*%
X105900000Y-94350000D02*
X106250000Y-94000000D01*
X105900000Y-95800000D02*
X105900000Y-94350000D01*
X106300000Y-94050000D02*
X106250000Y-94000000D01*
X107880000Y-94050000D02*
X106300000Y-94050000D01*
%TO.N,Net-(D1-Pad1)*%
X139387020Y-109475480D02*
X140351658Y-109475480D01*
X138300000Y-110562500D02*
X139387020Y-109475480D01*
X141250000Y-108577138D02*
X141250000Y-104400000D01*
X140351658Y-109475480D02*
X141250000Y-108577138D01*
X132500000Y-99900000D02*
X136750000Y-99900000D01*
X141250000Y-104400000D02*
X136750000Y-99900000D01*
%TO.N,+5V*%
X145025978Y-96550000D02*
X143575978Y-98000000D01*
X145940000Y-96550000D02*
X145025978Y-96550000D01*
X136750000Y-96600000D02*
X137100000Y-96250000D01*
X141124520Y-96624520D02*
X140750000Y-96250000D01*
X140750000Y-96250000D02*
X140112500Y-96250000D01*
X141124520Y-97624520D02*
X141124520Y-96624520D01*
X141500000Y-98000000D02*
X141124520Y-97624520D01*
X137100000Y-96250000D02*
X140112500Y-96250000D01*
X143575978Y-98000000D02*
X141500000Y-98000000D01*
%TO.N,Net-(D3-Pad1)*%
X128575000Y-91250000D02*
X128575000Y-89037500D01*
X128575000Y-89037500D02*
X128537500Y-89000000D01*
D59*
%TO.N,Net-(D4-Pad1)*%
X108222500Y-102537500D02*
X108000000Y-102760000D01*
X109750000Y-102537500D02*
X108222500Y-102537500D01*
D58*
%TO.N,LED_STATUS*%
X109700480Y-98749159D02*
X109949639Y-98500000D01*
X109700480Y-100912980D02*
X109700480Y-98749159D01*
X109750000Y-100962500D02*
X109700480Y-100912980D01*
X109949639Y-98500000D02*
X110825000Y-98500000D01*
D60*
%TO.N,+12V*%
X139500000Y-112687500D02*
X139250000Y-112437500D01*
X139500000Y-114850000D02*
X139500000Y-112687500D01*
X149805000Y-112750000D02*
X141600000Y-112750000D01*
X141600000Y-112750000D02*
X139500000Y-114850000D01*
D58*
%TO.N,BUCK_FB*%
X137000000Y-114675000D02*
X135000000Y-114675000D01*
X135000000Y-112187500D02*
X134950000Y-112137500D01*
X135000000Y-114675000D02*
X135000000Y-112187500D01*
%TO.N,BUCK_EN*%
X134825000Y-107750000D02*
X139675000Y-107750000D01*
X134950000Y-109862500D02*
X134950000Y-107875000D01*
X139675000Y-107750000D02*
X140250000Y-108325000D01*
X140200000Y-108375000D02*
X140250000Y-108325000D01*
X134950000Y-107875000D02*
X134825000Y-107750000D01*
%TO.N,SWDIO*%
X121299639Y-92500000D02*
X121050480Y-92250841D01*
X121050480Y-92250841D02*
X121050480Y-89717235D01*
X129518204Y-81249511D02*
X130250489Y-81249511D01*
X130540000Y-80960000D02*
X130540000Y-79700000D01*
X121050480Y-89717235D02*
X129518204Y-81249511D01*
X122175000Y-92500000D02*
X121299639Y-92500000D01*
X130250489Y-81249511D02*
X130540000Y-80960000D01*
%TO.N,SWCLK*%
X121000000Y-88250000D02*
X121550000Y-88250000D01*
X121550000Y-88250000D02*
X129270000Y-80530000D01*
X120250000Y-89575000D02*
X120250000Y-89000000D01*
X120250000Y-89000000D02*
X121000000Y-88250000D01*
X129270000Y-80530000D02*
X129270000Y-79700000D01*
%TO.N,SWO*%
X128000000Y-79700000D02*
X128000000Y-80530000D01*
X117174511Y-87803489D02*
X117174511Y-88624150D01*
X117250000Y-87728000D02*
X117348000Y-87630000D01*
X117250000Y-89575000D02*
X117250000Y-87728000D01*
X117348000Y-87630000D02*
X117174511Y-87803489D01*
X128000000Y-80530000D02*
X124710000Y-83820000D01*
X124710000Y-83820000D02*
X119888000Y-83820000D01*
%TO.N,NRST*%
X125150000Y-80010000D02*
X125460000Y-79700000D01*
X110825000Y-94500000D02*
X109462000Y-94500000D01*
X123698000Y-80010000D02*
X125150000Y-80010000D01*
X109462000Y-94500000D02*
X108204000Y-95758000D01*
%TO.N,I2C1_SCL*%
X116625000Y-84855000D02*
X116625000Y-75700000D01*
X115750000Y-89575000D02*
X115750000Y-87971642D01*
X116230000Y-85250000D02*
X116625000Y-84855000D01*
X115750000Y-87971642D02*
X116230000Y-87491642D01*
X116230000Y-87491642D02*
X116230000Y-85250000D01*
%TO.N,IC21_SDA*%
X115379520Y-87635694D02*
X115379520Y-85639520D01*
X115250000Y-89575000D02*
X115250000Y-87765214D01*
X115375000Y-84865000D02*
X115375000Y-75700000D01*
X115379520Y-85639520D02*
X114990000Y-85250000D01*
X114990000Y-85250000D02*
X115375000Y-84865000D01*
X115250000Y-87765214D02*
X115379520Y-87635694D01*
%TO.N,USART3_RX*%
X118750000Y-101800361D02*
X115125000Y-105425361D01*
X115125000Y-105425361D02*
X115125000Y-120300000D01*
X118750000Y-100925000D02*
X118750000Y-101800361D01*
%TO.N,USART3_TX*%
X119250000Y-100925000D02*
X119250000Y-102409283D01*
X119195480Y-102554520D02*
X116375000Y-105375000D01*
X119250000Y-102409283D02*
X119195480Y-102463803D01*
X119195480Y-102463803D02*
X119195480Y-102554520D01*
X116375000Y-105375000D02*
X116375000Y-120300000D01*
%TO.N,USB_CONN_D-*%
X143650000Y-97200000D02*
X144950000Y-95900000D01*
X144950000Y-95900000D02*
X145940000Y-95900000D01*
X142387500Y-97200000D02*
X143650000Y-97200000D01*
%TO.N,USB_CONN_D+*%
X144850000Y-95250000D02*
X145940000Y-95250000D01*
X144800000Y-95300000D02*
X144850000Y-95250000D01*
X142387500Y-95300000D02*
X144800000Y-95300000D01*
D60*
%TO.N,unconnected-(J5-Pad6)*%
X147712500Y-92762500D02*
X148600000Y-91875000D01*
X146025000Y-97737500D02*
X147712500Y-97737500D01*
X148600000Y-96400000D02*
X148600000Y-98625000D01*
X148600000Y-93700000D02*
X148600000Y-96400000D01*
X146025000Y-92762500D02*
X147712500Y-92762500D01*
X148600000Y-91875000D02*
X148600000Y-93700000D01*
X147712500Y-97737500D02*
X148600000Y-98625000D01*
D58*
%TO.N,Net-(R3-Pad1)*%
X136575000Y-118750000D02*
X136575000Y-116750000D01*
X136575000Y-116750000D02*
X137000000Y-116325000D01*
%TO.N,BOOT0*%
X114750000Y-87260000D02*
X114750000Y-89575000D01*
X114760000Y-87250000D02*
X114750000Y-87260000D01*
%TO.N,Net-(R7-Pad2)*%
X113740000Y-88086000D02*
X113792000Y-88138000D01*
X113740000Y-87250000D02*
X113740000Y-88086000D01*
X105918000Y-108204000D02*
X104226000Y-108204000D01*
X104226000Y-108204000D02*
X104180000Y-108250000D01*
%TO.N,HSE_OUT*%
X108950000Y-94000000D02*
X110825000Y-94000000D01*
X108900000Y-94050000D02*
X108950000Y-94000000D01*
%TO.N,USB_D-*%
X129750000Y-93500000D02*
X122175000Y-93500000D01*
X131750000Y-93750000D02*
X130000000Y-93750000D01*
X140112500Y-97200000D02*
X138300000Y-97200000D01*
X138300000Y-97200000D02*
X137750000Y-97750000D01*
X135750000Y-97750000D02*
X131750000Y-93750000D01*
X137750000Y-97750000D02*
X135750000Y-97750000D01*
X130000000Y-93750000D02*
X129750000Y-93500000D01*
%TO.N,USB_D+*%
X140112500Y-95300000D02*
X137812500Y-93000000D01*
X137812500Y-93000000D02*
X122175000Y-93000000D01*
%TO.N,Net-(FB1-Pad1)*%
X132412500Y-97187500D02*
X132500000Y-97100000D01*
X128500000Y-97187500D02*
X132412500Y-97187500D01*
%TD*%
M02*
