%TF.GenerationSoftware,KiCad,Pcbnew,(6.0.4)*%
%TF.CreationDate,2022-04-20T17:17:17+03:00*%
%TF.ProjectId,STM32F4_Buck_Converter,53544d33-3246-4345-9f42-75636b5f436f,rev?*%
%TF.SameCoordinates,Original*%
%TF.FileFunction,Copper,L2,Inr*%
%TF.FilePolarity,Positive*%
%FSLAX46Y46*%
G04 Gerber Fmt 4.6, Leading zero omitted, Abs format (unit mm)*
G04 Created by KiCad (PCBNEW (6.0.4)) date 2022-04-20 17:17:17*
%MOMM*%
%LPD*%
G01*
G04 APERTURE LIST*
G04 Aperture macros list*
%AMRoundRect*
0 Rectangle with rounded corners*
0 $1 Rounding radius*
0 $2 $3 $4 $5 $6 $7 $8 $9 X,Y pos of 4 corners*
0 Add a 4 corners polygon primitive as box body*
4,1,4,$2,$3,$4,$5,$6,$7,$8,$9,$2,$3,0*
0 Add four circle primitives for the rounded corners*
1,1,$1+$1,$2,$3*
1,1,$1+$1,$4,$5*
1,1,$1+$1,$6,$7*
1,1,$1+$1,$8,$9*
0 Add four rect primitives between the rounded corners*
20,1,$1+$1,$2,$3,$4,$5,0*
20,1,$1+$1,$4,$5,$6,$7,0*
20,1,$1+$1,$6,$7,$8,$9,0*
20,1,$1+$1,$8,$9,$2,$3,0*%
G04 Aperture macros list end*
%TA.AperFunction,ComponentPad*%
%ADD10C,0.900000*%
%TD*%
%TA.AperFunction,ComponentPad*%
%ADD11C,8.600000*%
%TD*%
%TA.AperFunction,ComponentPad*%
%ADD12R,2.600000X2.600000*%
%TD*%
%TA.AperFunction,ComponentPad*%
%ADD13C,2.600000*%
%TD*%
%TA.AperFunction,ComponentPad*%
%ADD14RoundRect,0.200000X0.200000X0.450000X-0.200000X0.450000X-0.200000X-0.450000X0.200000X-0.450000X0*%
%TD*%
%TA.AperFunction,ComponentPad*%
%ADD15O,0.800000X1.300000*%
%TD*%
%TA.AperFunction,ComponentPad*%
%ADD16RoundRect,0.200000X-0.200000X-0.450000X0.200000X-0.450000X0.200000X0.450000X-0.200000X0.450000X0*%
%TD*%
%TA.AperFunction,ViaPad*%
%ADD17C,0.800000*%
%TD*%
%TA.AperFunction,Conductor*%
%ADD18C,0.300000*%
%TD*%
G04 APERTURE END LIST*
D10*
%TO.N,GND*%
%TO.C,H4*%
X148750000Y-79725000D03*
X151030419Y-74219581D03*
D11*
X148750000Y-76500000D03*
D10*
X145525000Y-76500000D03*
X151030419Y-78780419D03*
X151975000Y-76500000D03*
X146469581Y-78780419D03*
X148750000Y-73275000D03*
X146469581Y-74219581D03*
%TD*%
D12*
%TO.N,+12V*%
%TO.C,J1*%
X149805000Y-112750000D03*
D13*
%TO.N,GND*%
X149805000Y-107750000D03*
%TD*%
D14*
%TO.N,+3V3*%
%TO.C,J3*%
X117875000Y-75700000D03*
D15*
%TO.N,I2C1_SCL*%
X116625000Y-75700000D03*
%TO.N,IC21_SDA*%
X115375000Y-75700000D03*
%TO.N,GND*%
X114125000Y-75700000D03*
%TD*%
D10*
%TO.N,GND*%
%TO.C,H3*%
X146469581Y-119469581D03*
D11*
X148750000Y-121750000D03*
D10*
X145525000Y-121750000D03*
X146469581Y-124030419D03*
X151975000Y-121750000D03*
X148750000Y-124975000D03*
X148750000Y-118525000D03*
X151030419Y-119469581D03*
X151030419Y-124030419D03*
%TD*%
D16*
%TO.N,+3V3*%
%TO.C,J4*%
X113875000Y-120300000D03*
D15*
%TO.N,USART3_RX*%
X115125000Y-120300000D03*
%TO.N,USART3_TX*%
X116375000Y-120300000D03*
%TO.N,GND*%
X117625000Y-120300000D03*
%TD*%
D10*
%TO.N,GND*%
%TO.C,H2*%
X101225000Y-76500000D03*
X100280419Y-74219581D03*
X94775000Y-76500000D03*
X95719581Y-78780419D03*
X100280419Y-78780419D03*
X98000000Y-73275000D03*
D11*
X98000000Y-76500000D03*
D10*
X98000000Y-79725000D03*
X95719581Y-74219581D03*
%TD*%
%TO.N,GND*%
%TO.C,H1*%
X101225000Y-121750000D03*
X98000000Y-124975000D03*
X100280419Y-119469581D03*
X98000000Y-118525000D03*
X100280419Y-124030419D03*
D11*
X98000000Y-121750000D03*
D10*
X95719581Y-124030419D03*
X95719581Y-119469581D03*
X94775000Y-121750000D03*
%TD*%
D17*
%TO.N,GND*%
X112522000Y-92456000D03*
X139207192Y-108747872D03*
X105918000Y-109728000D03*
X140462000Y-93726000D03*
X107696000Y-86360000D03*
X137668000Y-102362000D03*
X113538000Y-78994000D03*
X126492000Y-92250500D03*
X140200000Y-110562500D03*
X105918000Y-106680000D03*
X120396000Y-104648000D03*
X138176000Y-106426000D03*
X110744000Y-104648000D03*
%TO.N,+3V3*%
X125476000Y-90424000D03*
X122936000Y-85344000D03*
X109499500Y-88900000D03*
X107696000Y-91440000D03*
%TO.N,SWO*%
X119888000Y-83820000D03*
X117348000Y-87630000D03*
%TO.N,NRST*%
X123698000Y-80010000D03*
X108204000Y-95758000D03*
%TO.N,Net-(R7-Pad2)*%
X113792000Y-88138000D03*
X105918000Y-108204000D03*
%TD*%
D18*
%TO.N,GND*%
X140462000Y-93726000D02*
X137668000Y-96520000D01*
X139207192Y-108747872D02*
X139207192Y-109569692D01*
X137668000Y-96520000D02*
X137668000Y-102362000D01*
X113538000Y-80518000D02*
X113538000Y-78994000D01*
X110744000Y-104648000D02*
X120396000Y-104648000D01*
X107696000Y-86360000D02*
X113538000Y-80518000D01*
X138176000Y-107716680D02*
X138176000Y-106426000D01*
X139207192Y-108747872D02*
X138176000Y-107716680D01*
X139207192Y-109569692D02*
X140200000Y-110562500D01*
%TO.N,+3V3*%
X125476000Y-87884000D02*
X125476000Y-90424000D01*
X107696000Y-91440000D02*
X107696000Y-90703500D01*
X122936000Y-85344000D02*
X125476000Y-87884000D01*
X107696000Y-90703500D02*
X109499500Y-88900000D01*
%TO.N,SWO*%
X119888000Y-83820000D02*
X119888000Y-85090000D01*
X119888000Y-85090000D02*
X117348000Y-87630000D01*
%TO.N,NRST*%
X120860030Y-80010000D02*
X123698000Y-80010000D01*
X108204000Y-92666030D02*
X120860030Y-80010000D01*
X108204000Y-95758000D02*
X108204000Y-92666030D01*
%TO.N,Net-(R7-Pad2)*%
X113792000Y-100330000D02*
X105918000Y-108204000D01*
X113792000Y-88138000D02*
X113792000Y-100330000D01*
%TD*%
%TA.AperFunction,Conductor*%
%TO.N,GND*%
G36*
X146512166Y-72028502D02*
G01*
X146558659Y-72082158D01*
X146568763Y-72152432D01*
X146539269Y-72217012D01*
X146506759Y-72243784D01*
X146173581Y-72434984D01*
X146168848Y-72437987D01*
X145822420Y-72680109D01*
X145817979Y-72683517D01*
X145546476Y-72911739D01*
X145538031Y-72924456D01*
X145544139Y-72934929D01*
X145943493Y-73334283D01*
X146469580Y-73860371D01*
X147354878Y-74745668D01*
X151030419Y-78421209D01*
X151915717Y-79306506D01*
X152312145Y-79702934D01*
X152325903Y-79710446D01*
X152335263Y-79703989D01*
X152504244Y-79511303D01*
X152507744Y-79506935D01*
X152757073Y-79165645D01*
X152760168Y-79160987D01*
X152978160Y-78798903D01*
X152980841Y-78793964D01*
X153002204Y-78750067D01*
X153049998Y-78697567D01*
X153118589Y-78679241D01*
X153186199Y-78700907D01*
X153231362Y-78755686D01*
X153241500Y-78805203D01*
X153241500Y-119450412D01*
X153221498Y-119518533D01*
X153167842Y-119565026D01*
X153097568Y-119575130D01*
X153032988Y-119545636D01*
X153004300Y-119509662D01*
X152893936Y-119302535D01*
X152891085Y-119297713D01*
X152659974Y-118943865D01*
X152656692Y-118939297D01*
X152395030Y-118607380D01*
X152391382Y-118603155D01*
X152338103Y-118546715D01*
X152324389Y-118538705D01*
X152323517Y-118538742D01*
X152315438Y-118543772D01*
X151915717Y-118943493D01*
X151030419Y-119828790D01*
X150504332Y-120354878D01*
X147354879Y-123504331D01*
X146469581Y-124389628D01*
X145943494Y-124915716D01*
X145546736Y-125312474D01*
X145539122Y-125326418D01*
X145539171Y-125327110D01*
X145544617Y-125335274D01*
X145622268Y-125407812D01*
X145626507Y-125411433D01*
X145959802Y-125671363D01*
X145964359Y-125674602D01*
X146319448Y-125903880D01*
X146324267Y-125906696D01*
X146509196Y-126003992D01*
X146560169Y-126053411D01*
X146576332Y-126122543D01*
X146552553Y-126189440D01*
X146496383Y-126232860D01*
X146450529Y-126241500D01*
X100299988Y-126241500D01*
X100231867Y-126221498D01*
X100185374Y-126167842D01*
X100175270Y-126097568D01*
X100204764Y-126032988D01*
X100240156Y-126004612D01*
X100469131Y-125881063D01*
X100473935Y-125878188D01*
X100826563Y-125645231D01*
X100831126Y-125641916D01*
X101161658Y-125378529D01*
X101165873Y-125374852D01*
X101203823Y-125338649D01*
X101211763Y-125324890D01*
X101211713Y-125323843D01*
X101206822Y-125316032D01*
X100806507Y-124915717D01*
X99921210Y-124030419D01*
X99395122Y-123504332D01*
X97641922Y-121751132D01*
X98364408Y-121751132D01*
X98364539Y-121752965D01*
X98368790Y-121759580D01*
X99754331Y-123145121D01*
X100257399Y-123648190D01*
X100280418Y-123671209D01*
X101165716Y-124556506D01*
X101562142Y-124952932D01*
X101575903Y-124960446D01*
X101585263Y-124953989D01*
X101754244Y-124761303D01*
X101757744Y-124756935D01*
X102007073Y-124415645D01*
X102010168Y-124410987D01*
X102228160Y-124048903D01*
X102230841Y-124043964D01*
X102415779Y-123663946D01*
X102418014Y-123658780D01*
X102568442Y-123263815D01*
X102570201Y-123258496D01*
X102684920Y-122851730D01*
X102686204Y-122846259D01*
X102764315Y-122430883D01*
X102765102Y-122425346D01*
X102806035Y-122004102D01*
X102806308Y-121999665D01*
X102812788Y-121752233D01*
X102812746Y-121747762D01*
X102807360Y-121626825D01*
X143938855Y-121626825D01*
X143946600Y-122049410D01*
X143946950Y-122054976D01*
X143992231Y-122475208D01*
X143993078Y-122480746D01*
X144075535Y-122895286D01*
X144076864Y-122900698D01*
X144195852Y-123306289D01*
X144197658Y-123311564D01*
X144352219Y-123704948D01*
X144354501Y-123710072D01*
X144543416Y-124088150D01*
X144546140Y-124093043D01*
X144767917Y-124452833D01*
X144771068Y-124457469D01*
X145023955Y-124796127D01*
X145027488Y-124800444D01*
X145163222Y-124951988D01*
X145176717Y-124960351D01*
X145186128Y-124954662D01*
X145584283Y-124556507D01*
X146469581Y-123671210D01*
X146492600Y-123648191D01*
X146995668Y-123145122D01*
X148377978Y-121762812D01*
X148385592Y-121748868D01*
X148385461Y-121747035D01*
X148381210Y-121740420D01*
X146995669Y-120354879D01*
X146110372Y-119469581D01*
X145584284Y-118943494D01*
X145185561Y-118544771D01*
X145172253Y-118537504D01*
X145162214Y-118544626D01*
X144918223Y-118837994D01*
X144914828Y-118842467D01*
X144674528Y-119190152D01*
X144671549Y-119194902D01*
X144463106Y-119562575D01*
X144460562Y-119567568D01*
X144285629Y-119952312D01*
X144283538Y-119957511D01*
X144143498Y-120356290D01*
X144141877Y-120361659D01*
X144037840Y-120771303D01*
X144036706Y-120776776D01*
X143969496Y-121194054D01*
X143968851Y-121199632D01*
X143939002Y-121621204D01*
X143938855Y-121626825D01*
X102807360Y-121626825D01*
X102793917Y-121324973D01*
X102793419Y-121319386D01*
X102737155Y-120900499D01*
X102736162Y-120894976D01*
X102642883Y-120482748D01*
X102641410Y-120477361D01*
X102511847Y-120075025D01*
X102509910Y-120069815D01*
X102392848Y-119793365D01*
X112966500Y-119793365D01*
X112966501Y-120806634D01*
X112973247Y-120880062D01*
X112975246Y-120886440D01*
X112975246Y-120886441D01*
X112986251Y-120921556D01*
X113024528Y-121043699D01*
X113113361Y-121190381D01*
X113234619Y-121311639D01*
X113381301Y-121400472D01*
X113388548Y-121402743D01*
X113388550Y-121402744D01*
X113431198Y-121416109D01*
X113544938Y-121451753D01*
X113618365Y-121458500D01*
X113621263Y-121458500D01*
X113875665Y-121458499D01*
X114131634Y-121458499D01*
X114134492Y-121458236D01*
X114134501Y-121458236D01*
X114170004Y-121454974D01*
X114205062Y-121451753D01*
X114211447Y-121449752D01*
X114361450Y-121402744D01*
X114361452Y-121402743D01*
X114368699Y-121400472D01*
X114505018Y-121317915D01*
X114573648Y-121299736D01*
X114644350Y-121323755D01*
X114662308Y-121336802D01*
X114668248Y-121341118D01*
X114674276Y-121343802D01*
X114674278Y-121343803D01*
X114821844Y-121409503D01*
X114842712Y-121418794D01*
X114936112Y-121438647D01*
X115023056Y-121457128D01*
X115023061Y-121457128D01*
X115029513Y-121458500D01*
X115220487Y-121458500D01*
X115226939Y-121457128D01*
X115226944Y-121457128D01*
X115313888Y-121438647D01*
X115407288Y-121418794D01*
X115428156Y-121409503D01*
X115575722Y-121343803D01*
X115575724Y-121343802D01*
X115581752Y-121341118D01*
X115587693Y-121336802D01*
X115675939Y-121272687D01*
X115742807Y-121248828D01*
X115811958Y-121264909D01*
X115824061Y-121272687D01*
X115912308Y-121336802D01*
X115918248Y-121341118D01*
X115924276Y-121343802D01*
X115924278Y-121343803D01*
X116071844Y-121409503D01*
X116092712Y-121418794D01*
X116186112Y-121438647D01*
X116273056Y-121457128D01*
X116273061Y-121457128D01*
X116279513Y-121458500D01*
X116470487Y-121458500D01*
X116476939Y-121457128D01*
X116476944Y-121457128D01*
X116563888Y-121438647D01*
X116657288Y-121418794D01*
X116678156Y-121409503D01*
X116825722Y-121343803D01*
X116825724Y-121343802D01*
X116831752Y-121341118D01*
X116926366Y-121272377D01*
X116993230Y-121248520D01*
X117062382Y-121264600D01*
X117074485Y-121272378D01*
X117163157Y-121336802D01*
X117174529Y-121343368D01*
X117336839Y-121415633D01*
X117349325Y-121419690D01*
X117353278Y-121420530D01*
X117367341Y-121419457D01*
X117371000Y-121409503D01*
X117371000Y-121406182D01*
X117879000Y-121406182D01*
X117882973Y-121419713D01*
X117893468Y-121421222D01*
X117900675Y-121419690D01*
X117913161Y-121415633D01*
X118075471Y-121343368D01*
X118086843Y-121336802D01*
X118230574Y-121232376D01*
X118240337Y-121223585D01*
X118359214Y-121091558D01*
X118366938Y-121080927D01*
X118455765Y-120927074D01*
X118461111Y-120915066D01*
X118516011Y-120746102D01*
X118518741Y-120733261D01*
X118532656Y-120600862D01*
X118533000Y-120594302D01*
X118533000Y-120572115D01*
X118528525Y-120556876D01*
X118527135Y-120555671D01*
X118519452Y-120554000D01*
X117897115Y-120554000D01*
X117881876Y-120558475D01*
X117880671Y-120559865D01*
X117879000Y-120567548D01*
X117879000Y-121406182D01*
X117371000Y-121406182D01*
X117371000Y-120027885D01*
X117879000Y-120027885D01*
X117883475Y-120043124D01*
X117884865Y-120044329D01*
X117892548Y-120046000D01*
X118514885Y-120046000D01*
X118530124Y-120041525D01*
X118531329Y-120040135D01*
X118533000Y-120032452D01*
X118533000Y-120005698D01*
X118532656Y-119999138D01*
X118518741Y-119866739D01*
X118516011Y-119853898D01*
X118461111Y-119684934D01*
X118455765Y-119672926D01*
X118366938Y-119519073D01*
X118359214Y-119508442D01*
X118240337Y-119376415D01*
X118230574Y-119367624D01*
X118086843Y-119263198D01*
X118075471Y-119256632D01*
X117913161Y-119184367D01*
X117900675Y-119180310D01*
X117896722Y-119179470D01*
X117882659Y-119180543D01*
X117879000Y-119190497D01*
X117879000Y-120027885D01*
X117371000Y-120027885D01*
X117371000Y-119193818D01*
X117367027Y-119180287D01*
X117356532Y-119178778D01*
X117349325Y-119180310D01*
X117336839Y-119184367D01*
X117174529Y-119256632D01*
X117163157Y-119263198D01*
X117074485Y-119327622D01*
X117007617Y-119351481D01*
X116938466Y-119335400D01*
X116926380Y-119327634D01*
X116831752Y-119258882D01*
X116825724Y-119256198D01*
X116825722Y-119256197D01*
X116663319Y-119183891D01*
X116663318Y-119183891D01*
X116657288Y-119181206D01*
X116563888Y-119161353D01*
X116476944Y-119142872D01*
X116476939Y-119142872D01*
X116470487Y-119141500D01*
X116279513Y-119141500D01*
X116273061Y-119142872D01*
X116273056Y-119142872D01*
X116186112Y-119161353D01*
X116092712Y-119181206D01*
X116086682Y-119183891D01*
X116086681Y-119183891D01*
X115924278Y-119256197D01*
X115924276Y-119256198D01*
X115918248Y-119258882D01*
X115912907Y-119262762D01*
X115912906Y-119262763D01*
X115824061Y-119327313D01*
X115757193Y-119351172D01*
X115688042Y-119335091D01*
X115675939Y-119327313D01*
X115587094Y-119262763D01*
X115587093Y-119262762D01*
X115581752Y-119258882D01*
X115575724Y-119256198D01*
X115575722Y-119256197D01*
X115413319Y-119183891D01*
X115413318Y-119183891D01*
X115407288Y-119181206D01*
X115313888Y-119161353D01*
X115226944Y-119142872D01*
X115226939Y-119142872D01*
X115220487Y-119141500D01*
X115029513Y-119141500D01*
X115023061Y-119142872D01*
X115023056Y-119142872D01*
X114936112Y-119161353D01*
X114842712Y-119181206D01*
X114836682Y-119183891D01*
X114836681Y-119183891D01*
X114674278Y-119256197D01*
X114674276Y-119256198D01*
X114668248Y-119258882D01*
X114662908Y-119262762D01*
X114662906Y-119262763D01*
X114644350Y-119276245D01*
X114577482Y-119300103D01*
X114505018Y-119282085D01*
X114495375Y-119276245D01*
X114368699Y-119199528D01*
X114361452Y-119197257D01*
X114361450Y-119197256D01*
X114295164Y-119176483D01*
X114205062Y-119148247D01*
X114131635Y-119141500D01*
X114128737Y-119141500D01*
X113874335Y-119141501D01*
X113618366Y-119141501D01*
X113615508Y-119141764D01*
X113615499Y-119141764D01*
X113579996Y-119145026D01*
X113544938Y-119148247D01*
X113538560Y-119150246D01*
X113538559Y-119150246D01*
X113388550Y-119197256D01*
X113388548Y-119197257D01*
X113381301Y-119199528D01*
X113234619Y-119288361D01*
X113113361Y-119409619D01*
X113024528Y-119556301D01*
X113022257Y-119563548D01*
X113022256Y-119563550D01*
X113020997Y-119567568D01*
X112973247Y-119719938D01*
X112966500Y-119793365D01*
X102392848Y-119793365D01*
X102345098Y-119680599D01*
X102342683Y-119675536D01*
X102143936Y-119302535D01*
X102141085Y-119297713D01*
X101909974Y-118943865D01*
X101906692Y-118939297D01*
X101645030Y-118607380D01*
X101641382Y-118603155D01*
X101588103Y-118546715D01*
X101574389Y-118538705D01*
X101573517Y-118538742D01*
X101565438Y-118543772D01*
X101165717Y-118943493D01*
X100280419Y-119828790D01*
X99754332Y-120354878D01*
X98372022Y-121737188D01*
X98364408Y-121751132D01*
X97641922Y-121751132D01*
X96245669Y-120354879D01*
X95360372Y-119469581D01*
X94834284Y-118943494D01*
X94435561Y-118544771D01*
X94422253Y-118537504D01*
X94412214Y-118544626D01*
X94168223Y-118837994D01*
X94164828Y-118842467D01*
X93924528Y-119190152D01*
X93921549Y-119194902D01*
X93744111Y-119507885D01*
X93693114Y-119557280D01*
X93623509Y-119571264D01*
X93557392Y-119545395D01*
X93515757Y-119487889D01*
X93508500Y-119445744D01*
X93508500Y-118174456D01*
X94788031Y-118174456D01*
X94794139Y-118184929D01*
X95193493Y-118584283D01*
X95711209Y-119102000D01*
X95719580Y-119110371D01*
X96604878Y-119995668D01*
X97987188Y-121377978D01*
X98001132Y-121385592D01*
X98002965Y-121385461D01*
X98009580Y-121381210D01*
X99395121Y-119995669D01*
X100280419Y-119110372D01*
X100288790Y-119102001D01*
X100806506Y-118584284D01*
X101202754Y-118188036D01*
X101210169Y-118174456D01*
X145538031Y-118174456D01*
X145544139Y-118184929D01*
X145943493Y-118584283D01*
X146461209Y-119102000D01*
X146469580Y-119110371D01*
X147354878Y-119995668D01*
X148737188Y-121377978D01*
X148751132Y-121385592D01*
X148752965Y-121385461D01*
X148759580Y-121381210D01*
X150145121Y-119995669D01*
X151030419Y-119110372D01*
X151038790Y-119102001D01*
X151556506Y-118584284D01*
X151952754Y-118188036D01*
X151960316Y-118174187D01*
X151953987Y-118164962D01*
X151780928Y-118011582D01*
X151776561Y-118008046D01*
X151436600Y-117756948D01*
X151431947Y-117753821D01*
X151070995Y-117533926D01*
X151066094Y-117531232D01*
X150687027Y-117344297D01*
X150681904Y-117342048D01*
X150287707Y-117189545D01*
X150282417Y-117187765D01*
X149876218Y-117070904D01*
X149870794Y-117069602D01*
X149455822Y-116989316D01*
X149450293Y-116988500D01*
X149029828Y-116945420D01*
X149024247Y-116945098D01*
X148601635Y-116939566D01*
X148596024Y-116939742D01*
X148174593Y-116971800D01*
X148169036Y-116972472D01*
X147752128Y-117041864D01*
X147746631Y-117043032D01*
X147337547Y-117149209D01*
X147332181Y-117150861D01*
X146934153Y-117292983D01*
X146928965Y-117295100D01*
X146545133Y-117472050D01*
X146540164Y-117474614D01*
X146173581Y-117684984D01*
X146168848Y-117687987D01*
X145822420Y-117930109D01*
X145817979Y-117933517D01*
X145546476Y-118161739D01*
X145538031Y-118174456D01*
X101210169Y-118174456D01*
X101210316Y-118174187D01*
X101203987Y-118164962D01*
X101030928Y-118011582D01*
X101026561Y-118008046D01*
X100686600Y-117756948D01*
X100681947Y-117753821D01*
X100320995Y-117533926D01*
X100316094Y-117531232D01*
X99937027Y-117344297D01*
X99931904Y-117342048D01*
X99537707Y-117189545D01*
X99532417Y-117187765D01*
X99126218Y-117070904D01*
X99120794Y-117069602D01*
X98705822Y-116989316D01*
X98700293Y-116988500D01*
X98279828Y-116945420D01*
X98274247Y-116945098D01*
X97851635Y-116939566D01*
X97846024Y-116939742D01*
X97424593Y-116971800D01*
X97419036Y-116972472D01*
X97002128Y-117041864D01*
X96996631Y-117043032D01*
X96587547Y-117149209D01*
X96582181Y-117150861D01*
X96184153Y-117292983D01*
X96178965Y-117295100D01*
X95795133Y-117472050D01*
X95790164Y-117474614D01*
X95423581Y-117684984D01*
X95418848Y-117687987D01*
X95072420Y-117930109D01*
X95067979Y-117933517D01*
X94796476Y-118161739D01*
X94788031Y-118174456D01*
X93508500Y-118174456D01*
X93508500Y-114098134D01*
X147996500Y-114098134D01*
X148003255Y-114160316D01*
X148054385Y-114296705D01*
X148141739Y-114413261D01*
X148258295Y-114500615D01*
X148394684Y-114551745D01*
X148456866Y-114558500D01*
X151153134Y-114558500D01*
X151215316Y-114551745D01*
X151351705Y-114500615D01*
X151468261Y-114413261D01*
X151555615Y-114296705D01*
X151606745Y-114160316D01*
X151613500Y-114098134D01*
X151613500Y-111401866D01*
X151606745Y-111339684D01*
X151555615Y-111203295D01*
X151468261Y-111086739D01*
X151351705Y-110999385D01*
X151215316Y-110948255D01*
X151153134Y-110941500D01*
X148456866Y-110941500D01*
X148394684Y-110948255D01*
X148258295Y-110999385D01*
X148141739Y-111086739D01*
X148054385Y-111203295D01*
X148003255Y-111339684D01*
X147996500Y-111401866D01*
X147996500Y-114098134D01*
X93508500Y-114098134D01*
X93508500Y-109047064D01*
X101457707Y-109047064D01*
X101486825Y-109239599D01*
X101489028Y-109245585D01*
X101489029Y-109245591D01*
X101551860Y-109416360D01*
X101551862Y-109416365D01*
X101554063Y-109422346D01*
X101656674Y-109587840D01*
X101790466Y-109729322D01*
X101949975Y-109841011D01*
X101955838Y-109843548D01*
X102122825Y-109915810D01*
X102122829Y-109915811D01*
X102128684Y-109918345D01*
X102134931Y-109919650D01*
X102134934Y-109919651D01*
X102314557Y-109957176D01*
X102314562Y-109957177D01*
X102319293Y-109958165D01*
X102325685Y-109958500D01*
X102468663Y-109958500D01*
X102537951Y-109951462D01*
X102607378Y-109944410D01*
X102607379Y-109944410D01*
X102613727Y-109943765D01*
X102694843Y-109918345D01*
X102793451Y-109887444D01*
X102793456Y-109887442D01*
X102799541Y-109885535D01*
X102886475Y-109837346D01*
X102964271Y-109794223D01*
X102964274Y-109794221D01*
X102969850Y-109791130D01*
X102974691Y-109786981D01*
X102974695Y-109786978D01*
X103112855Y-109668560D01*
X103117698Y-109664409D01*
X103237046Y-109510547D01*
X103241172Y-109502163D01*
X103320200Y-109341556D01*
X103323018Y-109335829D01*
X103336308Y-109284809D01*
X103359726Y-109194906D01*
X148724839Y-109194906D01*
X148733553Y-109206427D01*
X148840452Y-109284809D01*
X148848351Y-109289745D01*
X149077905Y-109410519D01*
X149086454Y-109414236D01*
X149331327Y-109499749D01*
X149340336Y-109502163D01*
X149595166Y-109550544D01*
X149604423Y-109551598D01*
X149863607Y-109561783D01*
X149872921Y-109561457D01*
X150130753Y-109533220D01*
X150139930Y-109531519D01*
X150390758Y-109465481D01*
X150399574Y-109462445D01*
X150637880Y-109360062D01*
X150646167Y-109355748D01*
X150866718Y-109219266D01*
X150874268Y-109213780D01*
X150879559Y-109209301D01*
X150887997Y-109196497D01*
X150881935Y-109186145D01*
X149817812Y-108122022D01*
X149803868Y-108114408D01*
X149802035Y-108114539D01*
X149795420Y-108118790D01*
X148731497Y-109182713D01*
X148724839Y-109194906D01*
X103359726Y-109194906D01*
X103370492Y-109153575D01*
X103370492Y-109153572D01*
X103372102Y-109147393D01*
X103379942Y-108997803D01*
X103381959Y-108959317D01*
X103381959Y-108959313D01*
X103382293Y-108952936D01*
X103353175Y-108760401D01*
X103350972Y-108754415D01*
X103350971Y-108754409D01*
X103288140Y-108583640D01*
X103288138Y-108583635D01*
X103285937Y-108577654D01*
X103183326Y-108412160D01*
X103139302Y-108365605D01*
X103053919Y-108275315D01*
X103049534Y-108270678D01*
X103004175Y-108238917D01*
X102954308Y-108204000D01*
X105004496Y-108204000D01*
X105005186Y-108210565D01*
X105018857Y-108340634D01*
X105024458Y-108393928D01*
X105083473Y-108575556D01*
X105178960Y-108740944D01*
X105183378Y-108745851D01*
X105183379Y-108745852D01*
X105256805Y-108827400D01*
X105306747Y-108882866D01*
X105461248Y-108995118D01*
X105467276Y-108997802D01*
X105467278Y-108997803D01*
X105629681Y-109070109D01*
X105635712Y-109072794D01*
X105729113Y-109092647D01*
X105816056Y-109111128D01*
X105816061Y-109111128D01*
X105822513Y-109112500D01*
X106013487Y-109112500D01*
X106019939Y-109111128D01*
X106019944Y-109111128D01*
X106106888Y-109092647D01*
X106200288Y-109072794D01*
X106206319Y-109070109D01*
X106368722Y-108997803D01*
X106368724Y-108997802D01*
X106374752Y-108995118D01*
X106529253Y-108882866D01*
X106579195Y-108827400D01*
X106652621Y-108745852D01*
X106652622Y-108745851D01*
X106657040Y-108740944D01*
X106752527Y-108575556D01*
X106811542Y-108393928D01*
X106824755Y-108268213D01*
X106851768Y-108202558D01*
X106860970Y-108192290D01*
X107346049Y-107707211D01*
X147992775Y-107707211D01*
X148005220Y-107966288D01*
X148006356Y-107975543D01*
X148056961Y-108229945D01*
X148059449Y-108238917D01*
X148147095Y-108483033D01*
X148150895Y-108491568D01*
X148273658Y-108720042D01*
X148278666Y-108727904D01*
X148348720Y-108821716D01*
X148359979Y-108830165D01*
X148372397Y-108823393D01*
X149432978Y-107762812D01*
X149439356Y-107751132D01*
X150169408Y-107751132D01*
X150169539Y-107752965D01*
X150173790Y-107759580D01*
X151241094Y-108826884D01*
X151253474Y-108833644D01*
X151261815Y-108827400D01*
X151395832Y-108619048D01*
X151400275Y-108610864D01*
X151506807Y-108374370D01*
X151509997Y-108365605D01*
X151580402Y-108115972D01*
X151582262Y-108106830D01*
X151615187Y-107848019D01*
X151615668Y-107841733D01*
X151617987Y-107753160D01*
X151617836Y-107746851D01*
X151598501Y-107486663D01*
X151597125Y-107477457D01*
X151539878Y-107224467D01*
X151537154Y-107215556D01*
X151443143Y-106973806D01*
X151439132Y-106965397D01*
X151310422Y-106740202D01*
X151305211Y-106732476D01*
X151261996Y-106677658D01*
X151250071Y-106669187D01*
X151238537Y-106675673D01*
X150177022Y-107737188D01*
X150169408Y-107751132D01*
X149439356Y-107751132D01*
X149440592Y-107748868D01*
X149440461Y-107747035D01*
X149436210Y-107740420D01*
X148370816Y-106675026D01*
X148357507Y-106667758D01*
X148347472Y-106674878D01*
X148331937Y-106693556D01*
X148326531Y-106701135D01*
X148191965Y-106922891D01*
X148187736Y-106931192D01*
X148087432Y-107170389D01*
X148084471Y-107179239D01*
X148020628Y-107430625D01*
X148019006Y-107439822D01*
X147993020Y-107697885D01*
X147992775Y-107707211D01*
X107346049Y-107707211D01*
X108750571Y-106302689D01*
X148722102Y-106302689D01*
X148726675Y-106312465D01*
X149792188Y-107377978D01*
X149806132Y-107385592D01*
X149807965Y-107385461D01*
X149814580Y-107381210D01*
X150879349Y-106316441D01*
X150885733Y-106304751D01*
X150876321Y-106292641D01*
X150729045Y-106190471D01*
X150721010Y-106185738D01*
X150488376Y-106071016D01*
X150479743Y-106067528D01*
X150232703Y-105988450D01*
X150223643Y-105986274D01*
X149967630Y-105944580D01*
X149958343Y-105943768D01*
X149698992Y-105940373D01*
X149689681Y-105940943D01*
X149432682Y-105975919D01*
X149423546Y-105977860D01*
X149174543Y-106050439D01*
X149165800Y-106053707D01*
X148930252Y-106162296D01*
X148922097Y-106166816D01*
X148731240Y-106291947D01*
X148722102Y-106302689D01*
X108750571Y-106302689D01*
X114199605Y-100853655D01*
X114208385Y-100845665D01*
X114208387Y-100845663D01*
X114215080Y-100841416D01*
X114263605Y-100789742D01*
X114266359Y-100786901D01*
X114286927Y-100766333D01*
X114289647Y-100762826D01*
X114297353Y-100753804D01*
X114323544Y-100725913D01*
X114328972Y-100720133D01*
X114332794Y-100713181D01*
X114339303Y-100701342D01*
X114350157Y-100684818D01*
X114358445Y-100674132D01*
X114363304Y-100667868D01*
X114366452Y-100660594D01*
X114381654Y-100625465D01*
X114386876Y-100614805D01*
X114405305Y-100581284D01*
X114405306Y-100581282D01*
X114409124Y-100574337D01*
X114414459Y-100553559D01*
X114420858Y-100534869D01*
X114429380Y-100515176D01*
X114436606Y-100469552D01*
X114439013Y-100457929D01*
X114448528Y-100420868D01*
X114450500Y-100413188D01*
X114450500Y-100391741D01*
X114452051Y-100372031D01*
X114454166Y-100358677D01*
X114455406Y-100350848D01*
X114451059Y-100304859D01*
X114450500Y-100293004D01*
X114450500Y-88812759D01*
X114470502Y-88744638D01*
X114482864Y-88728449D01*
X114526621Y-88679852D01*
X114526622Y-88679851D01*
X114531040Y-88674944D01*
X114626527Y-88509556D01*
X114685542Y-88327928D01*
X114687138Y-88312749D01*
X114704814Y-88144565D01*
X114705504Y-88138000D01*
X114694280Y-88031206D01*
X114686232Y-87954635D01*
X114686232Y-87954633D01*
X114685542Y-87948072D01*
X114626527Y-87766444D01*
X114622567Y-87759584D01*
X114571110Y-87670460D01*
X114547751Y-87630000D01*
X116434496Y-87630000D01*
X116435186Y-87636565D01*
X116444670Y-87726796D01*
X116454458Y-87819928D01*
X116513473Y-88001556D01*
X116608960Y-88166944D01*
X116613378Y-88171851D01*
X116613379Y-88171852D01*
X116657753Y-88221134D01*
X116736747Y-88308866D01*
X116891248Y-88421118D01*
X116897276Y-88423802D01*
X116897278Y-88423803D01*
X117059681Y-88496109D01*
X117065712Y-88498794D01*
X117159113Y-88518647D01*
X117246056Y-88537128D01*
X117246061Y-88537128D01*
X117252513Y-88538500D01*
X117443487Y-88538500D01*
X117449939Y-88537128D01*
X117449944Y-88537128D01*
X117536887Y-88518647D01*
X117630288Y-88498794D01*
X117636319Y-88496109D01*
X117798722Y-88423803D01*
X117798724Y-88423802D01*
X117804752Y-88421118D01*
X117959253Y-88308866D01*
X118038247Y-88221134D01*
X118082621Y-88171852D01*
X118082622Y-88171851D01*
X118087040Y-88166944D01*
X118182527Y-88001556D01*
X118224729Y-87871673D01*
X118239502Y-87826207D01*
X118239502Y-87826205D01*
X118241542Y-87819928D01*
X118254755Y-87694213D01*
X118281768Y-87628558D01*
X118290970Y-87618290D01*
X120295600Y-85613659D01*
X120304381Y-85605669D01*
X120304390Y-85605661D01*
X120311080Y-85601416D01*
X120359621Y-85549725D01*
X120362375Y-85546884D01*
X120382926Y-85526333D01*
X120385638Y-85522837D01*
X120393349Y-85513808D01*
X120419544Y-85485913D01*
X120424972Y-85480133D01*
X120435301Y-85461345D01*
X120446158Y-85444816D01*
X120454447Y-85434131D01*
X120454448Y-85434129D01*
X120459304Y-85427869D01*
X120477657Y-85385456D01*
X120482868Y-85374819D01*
X120499812Y-85344000D01*
X122022496Y-85344000D01*
X122023186Y-85350565D01*
X122040799Y-85518139D01*
X122042458Y-85533928D01*
X122101473Y-85715556D01*
X122196960Y-85880944D01*
X122324747Y-86022866D01*
X122479248Y-86135118D01*
X122485276Y-86137802D01*
X122485278Y-86137803D01*
X122647681Y-86210109D01*
X122653712Y-86212794D01*
X122747113Y-86232647D01*
X122834056Y-86251128D01*
X122834061Y-86251128D01*
X122840513Y-86252500D01*
X122861050Y-86252500D01*
X122929171Y-86272502D01*
X122950145Y-86289405D01*
X124780595Y-88119854D01*
X124814620Y-88182166D01*
X124817500Y-88208949D01*
X124817500Y-89749241D01*
X124797498Y-89817362D01*
X124785136Y-89833551D01*
X124736960Y-89887056D01*
X124641473Y-90052444D01*
X124582458Y-90234072D01*
X124581768Y-90240633D01*
X124581768Y-90240635D01*
X124578650Y-90270299D01*
X124562496Y-90424000D01*
X124563186Y-90430565D01*
X124578427Y-90575571D01*
X124582458Y-90613928D01*
X124641473Y-90795556D01*
X124736960Y-90960944D01*
X124864747Y-91102866D01*
X125019248Y-91215118D01*
X125025276Y-91217802D01*
X125025278Y-91217803D01*
X125097756Y-91250072D01*
X125193712Y-91292794D01*
X125287112Y-91312647D01*
X125374056Y-91331128D01*
X125374061Y-91331128D01*
X125380513Y-91332500D01*
X125571487Y-91332500D01*
X125577939Y-91331128D01*
X125577944Y-91331128D01*
X125664888Y-91312647D01*
X125758288Y-91292794D01*
X125854244Y-91250072D01*
X125926722Y-91217803D01*
X125926724Y-91217802D01*
X125932752Y-91215118D01*
X126087253Y-91102866D01*
X126215040Y-90960944D01*
X126310527Y-90795556D01*
X126369542Y-90613928D01*
X126373574Y-90575571D01*
X126388814Y-90430565D01*
X126389504Y-90424000D01*
X126373350Y-90270299D01*
X126370232Y-90240635D01*
X126370232Y-90240633D01*
X126369542Y-90234072D01*
X126310527Y-90052444D01*
X126215040Y-89887056D01*
X126166864Y-89833551D01*
X126136146Y-89769544D01*
X126134500Y-89749241D01*
X126134500Y-87966056D01*
X126135059Y-87954200D01*
X126135059Y-87954197D01*
X126136788Y-87946463D01*
X126134562Y-87875631D01*
X126134500Y-87871673D01*
X126134500Y-87842568D01*
X126133944Y-87838168D01*
X126133012Y-87826330D01*
X126131811Y-87788094D01*
X126131562Y-87780169D01*
X126125580Y-87759579D01*
X126121570Y-87740216D01*
X126119875Y-87726796D01*
X126119875Y-87726795D01*
X126118882Y-87718936D01*
X126115966Y-87711571D01*
X126115965Y-87711567D01*
X126101876Y-87675982D01*
X126098031Y-87664753D01*
X126093699Y-87649841D01*
X126085145Y-87620399D01*
X126074230Y-87601943D01*
X126065531Y-87584187D01*
X126065182Y-87583307D01*
X126057635Y-87564244D01*
X126030480Y-87526868D01*
X126023965Y-87516949D01*
X126004492Y-87484023D01*
X126004489Y-87484019D01*
X126000452Y-87477193D01*
X125985291Y-87462032D01*
X125972449Y-87446997D01*
X125967418Y-87440072D01*
X125959841Y-87429643D01*
X125924241Y-87400192D01*
X125915462Y-87392203D01*
X123878970Y-85355710D01*
X123844944Y-85293398D01*
X123842755Y-85279786D01*
X123830232Y-85160636D01*
X123830232Y-85160635D01*
X123829542Y-85154072D01*
X123825563Y-85141824D01*
X123772569Y-84978729D01*
X123770527Y-84972444D01*
X123675040Y-84807056D01*
X123547253Y-84665134D01*
X123392752Y-84552882D01*
X123386724Y-84550198D01*
X123386722Y-84550197D01*
X123224319Y-84477891D01*
X123224318Y-84477891D01*
X123218288Y-84475206D01*
X123124888Y-84455353D01*
X123037944Y-84436872D01*
X123037939Y-84436872D01*
X123031487Y-84435500D01*
X122840513Y-84435500D01*
X122834061Y-84436872D01*
X122834056Y-84436872D01*
X122747112Y-84455353D01*
X122653712Y-84475206D01*
X122647682Y-84477891D01*
X122647681Y-84477891D01*
X122485278Y-84550197D01*
X122485276Y-84550198D01*
X122479248Y-84552882D01*
X122324747Y-84665134D01*
X122196960Y-84807056D01*
X122101473Y-84972444D01*
X122042458Y-85154072D01*
X122041768Y-85160633D01*
X122041768Y-85160635D01*
X122029245Y-85279786D01*
X122022496Y-85344000D01*
X120499812Y-85344000D01*
X120505124Y-85334337D01*
X120510457Y-85313566D01*
X120516859Y-85294864D01*
X120525379Y-85275177D01*
X120532605Y-85229552D01*
X120535013Y-85217926D01*
X120544529Y-85180865D01*
X120544529Y-85180864D01*
X120546500Y-85173188D01*
X120546500Y-85151742D01*
X120548051Y-85132031D01*
X120550166Y-85118678D01*
X120551406Y-85110849D01*
X120547059Y-85064864D01*
X120546500Y-85053006D01*
X120546500Y-84494759D01*
X120566502Y-84426638D01*
X120578864Y-84410449D01*
X120622621Y-84361852D01*
X120622622Y-84361851D01*
X120627040Y-84356944D01*
X120722527Y-84191556D01*
X120781542Y-84009928D01*
X120801504Y-83820000D01*
X120781542Y-83630072D01*
X120722527Y-83448444D01*
X120627040Y-83283056D01*
X120499253Y-83141134D01*
X120344752Y-83028882D01*
X120338724Y-83026198D01*
X120338722Y-83026197D01*
X120176319Y-82953891D01*
X120176318Y-82953891D01*
X120170288Y-82951206D01*
X120076888Y-82931353D01*
X119989944Y-82912872D01*
X119989939Y-82912872D01*
X119983487Y-82911500D01*
X119792513Y-82911500D01*
X119786061Y-82912872D01*
X119786056Y-82912872D01*
X119699112Y-82931353D01*
X119605712Y-82951206D01*
X119599682Y-82953891D01*
X119599681Y-82953891D01*
X119437278Y-83026197D01*
X119437276Y-83026198D01*
X119431248Y-83028882D01*
X119276747Y-83141134D01*
X119148960Y-83283056D01*
X119053473Y-83448444D01*
X118994458Y-83630072D01*
X118974496Y-83820000D01*
X118994458Y-84009928D01*
X119053473Y-84191556D01*
X119148960Y-84356944D01*
X119153378Y-84361851D01*
X119153379Y-84361852D01*
X119197136Y-84410449D01*
X119227854Y-84474456D01*
X119229500Y-84494759D01*
X119229500Y-84765051D01*
X119209498Y-84833172D01*
X119192595Y-84854146D01*
X117362145Y-86684595D01*
X117299833Y-86718621D01*
X117273050Y-86721500D01*
X117252513Y-86721500D01*
X117246061Y-86722872D01*
X117246056Y-86722872D01*
X117159113Y-86741353D01*
X117065712Y-86761206D01*
X117059682Y-86763891D01*
X117059681Y-86763891D01*
X116897278Y-86836197D01*
X116897276Y-86836198D01*
X116891248Y-86838882D01*
X116736747Y-86951134D01*
X116608960Y-87093056D01*
X116513473Y-87258444D01*
X116454458Y-87440072D01*
X116453768Y-87446633D01*
X116453768Y-87446635D01*
X116445335Y-87526868D01*
X116434496Y-87630000D01*
X114547751Y-87630000D01*
X114531040Y-87601056D01*
X114454312Y-87515841D01*
X114423595Y-87451833D01*
X114432360Y-87381380D01*
X114458854Y-87342436D01*
X121095884Y-80705405D01*
X121158196Y-80671379D01*
X121184979Y-80668500D01*
X123017776Y-80668500D01*
X123085897Y-80688502D01*
X123091834Y-80692562D01*
X123241248Y-80801118D01*
X123247276Y-80803802D01*
X123247278Y-80803803D01*
X123409681Y-80876109D01*
X123415712Y-80878794D01*
X123509112Y-80898647D01*
X123596056Y-80917128D01*
X123596061Y-80917128D01*
X123602513Y-80918500D01*
X123793487Y-80918500D01*
X123799939Y-80917128D01*
X123799944Y-80917128D01*
X123886888Y-80898647D01*
X123980288Y-80878794D01*
X123986319Y-80876109D01*
X124148722Y-80803803D01*
X124148724Y-80803802D01*
X124154752Y-80801118D01*
X124309253Y-80688866D01*
X124437040Y-80546944D01*
X124532527Y-80381556D01*
X124591542Y-80199928D01*
X124603593Y-80085274D01*
X124604524Y-80076418D01*
X145539122Y-80076418D01*
X145539171Y-80077110D01*
X145544617Y-80085274D01*
X145622268Y-80157812D01*
X145626507Y-80161433D01*
X145959802Y-80421363D01*
X145964359Y-80424602D01*
X146319448Y-80653880D01*
X146324250Y-80656686D01*
X146698316Y-80853491D01*
X146703374Y-80855871D01*
X147093435Y-81018638D01*
X147098690Y-81020561D01*
X147501676Y-81148008D01*
X147507075Y-81149455D01*
X147919796Y-81240575D01*
X147925307Y-81241537D01*
X148344501Y-81295610D01*
X148350064Y-81296077D01*
X148772405Y-81312670D01*
X148777997Y-81312641D01*
X149200125Y-81291626D01*
X149205708Y-81291098D01*
X149624305Y-81232640D01*
X149629792Y-81231623D01*
X150041543Y-81136185D01*
X150046929Y-81134681D01*
X150448567Y-81003018D01*
X150453784Y-81001046D01*
X150842126Y-80834202D01*
X150847169Y-80831764D01*
X151219131Y-80631063D01*
X151223935Y-80628188D01*
X151576563Y-80395231D01*
X151581126Y-80391916D01*
X151911658Y-80128529D01*
X151915873Y-80124852D01*
X151953823Y-80088649D01*
X151961763Y-80074890D01*
X151961713Y-80073843D01*
X151956822Y-80066032D01*
X151556507Y-79665717D01*
X150671210Y-78780419D01*
X150145122Y-78254332D01*
X148762812Y-76872022D01*
X148748868Y-76864408D01*
X148747035Y-76864539D01*
X148740420Y-76868790D01*
X147354879Y-78254331D01*
X146469581Y-79139628D01*
X145943494Y-79665716D01*
X145546736Y-80062474D01*
X145539122Y-80076418D01*
X124604524Y-80076418D01*
X124610814Y-80016565D01*
X124611504Y-80010000D01*
X124591542Y-79820072D01*
X124532527Y-79638444D01*
X124437040Y-79473056D01*
X124389692Y-79420470D01*
X124313675Y-79336045D01*
X124313674Y-79336044D01*
X124309253Y-79331134D01*
X124154752Y-79218882D01*
X124148724Y-79216198D01*
X124148722Y-79216197D01*
X123986319Y-79143891D01*
X123986318Y-79143891D01*
X123980288Y-79141206D01*
X123886887Y-79121353D01*
X123799944Y-79102872D01*
X123799939Y-79102872D01*
X123793487Y-79101500D01*
X123602513Y-79101500D01*
X123596061Y-79102872D01*
X123596056Y-79102872D01*
X123509113Y-79121353D01*
X123415712Y-79141206D01*
X123409682Y-79143891D01*
X123409681Y-79143891D01*
X123247278Y-79216197D01*
X123247276Y-79216198D01*
X123241248Y-79218882D01*
X123092092Y-79327251D01*
X123091837Y-79327436D01*
X123024969Y-79351294D01*
X123017776Y-79351500D01*
X120942086Y-79351500D01*
X120930230Y-79350941D01*
X120930227Y-79350941D01*
X120922493Y-79349212D01*
X120867476Y-79350941D01*
X120851661Y-79351438D01*
X120847703Y-79351500D01*
X120818598Y-79351500D01*
X120814198Y-79352056D01*
X120802366Y-79352988D01*
X120756199Y-79354438D01*
X120735609Y-79360420D01*
X120716248Y-79364430D01*
X120709260Y-79365312D01*
X120702826Y-79366125D01*
X120702825Y-79366125D01*
X120694966Y-79367118D01*
X120687601Y-79370034D01*
X120687597Y-79370035D01*
X120652009Y-79384126D01*
X120640799Y-79387965D01*
X120596430Y-79400855D01*
X120577973Y-79411771D01*
X120560223Y-79420466D01*
X120540274Y-79428365D01*
X120533863Y-79433023D01*
X120533861Y-79433024D01*
X120502894Y-79455523D01*
X120492976Y-79462038D01*
X120453223Y-79485548D01*
X120438066Y-79500705D01*
X120423033Y-79513546D01*
X120405673Y-79526159D01*
X120400621Y-79532266D01*
X120376223Y-79561758D01*
X120368233Y-79570538D01*
X110544770Y-89394000D01*
X110482458Y-89428026D01*
X110411643Y-89422961D01*
X110354807Y-89380414D01*
X110329996Y-89313894D01*
X110335842Y-89265971D01*
X110393042Y-89089928D01*
X110406384Y-88962991D01*
X110412314Y-88906565D01*
X110413004Y-88900000D01*
X110396675Y-88744638D01*
X110393732Y-88716635D01*
X110393732Y-88716633D01*
X110393042Y-88710072D01*
X110334027Y-88528444D01*
X110238540Y-88363056D01*
X110212564Y-88334206D01*
X110115175Y-88226045D01*
X110115174Y-88226044D01*
X110110753Y-88221134D01*
X109996329Y-88138000D01*
X109961594Y-88112763D01*
X109961593Y-88112762D01*
X109956252Y-88108882D01*
X109950224Y-88106198D01*
X109950222Y-88106197D01*
X109787819Y-88033891D01*
X109787818Y-88033891D01*
X109781788Y-88031206D01*
X109669221Y-88007279D01*
X109601444Y-87992872D01*
X109601439Y-87992872D01*
X109594987Y-87991500D01*
X109404013Y-87991500D01*
X109397561Y-87992872D01*
X109397556Y-87992872D01*
X109329779Y-88007279D01*
X109217212Y-88031206D01*
X109211182Y-88033891D01*
X109211181Y-88033891D01*
X109048778Y-88106197D01*
X109048776Y-88106198D01*
X109042748Y-88108882D01*
X109037407Y-88112762D01*
X109037406Y-88112763D01*
X109002671Y-88138000D01*
X108888247Y-88221134D01*
X108883826Y-88226044D01*
X108883825Y-88226045D01*
X108786437Y-88334206D01*
X108760460Y-88363056D01*
X108664973Y-88528444D01*
X108605958Y-88710072D01*
X108605268Y-88716635D01*
X108605268Y-88716636D01*
X108592745Y-88835786D01*
X108565732Y-88901442D01*
X108556530Y-88911710D01*
X107288395Y-90179845D01*
X107279615Y-90187835D01*
X107279613Y-90187837D01*
X107272920Y-90192084D01*
X107267494Y-90197862D01*
X107267493Y-90197863D01*
X107224396Y-90243757D01*
X107221641Y-90246599D01*
X107201073Y-90267167D01*
X107198356Y-90270670D01*
X107190648Y-90279695D01*
X107159028Y-90313367D01*
X107155207Y-90320318D01*
X107155206Y-90320319D01*
X107148697Y-90332158D01*
X107137843Y-90348682D01*
X107130018Y-90358771D01*
X107124696Y-90365632D01*
X107121549Y-90372904D01*
X107121548Y-90372906D01*
X107106346Y-90408035D01*
X107101124Y-90418695D01*
X107098208Y-90424000D01*
X107078876Y-90459163D01*
X107073541Y-90479941D01*
X107067142Y-90498631D01*
X107058620Y-90518324D01*
X107057380Y-90526155D01*
X107051394Y-90563948D01*
X107048987Y-90575571D01*
X107037500Y-90620312D01*
X107037500Y-90641759D01*
X107035949Y-90661469D01*
X107032594Y-90682652D01*
X107033340Y-90690543D01*
X107036941Y-90728638D01*
X107037500Y-90740496D01*
X107037500Y-90765241D01*
X107017498Y-90833362D01*
X107005136Y-90849551D01*
X106956960Y-90903056D01*
X106861473Y-91068444D01*
X106802458Y-91250072D01*
X106801768Y-91256633D01*
X106801768Y-91256635D01*
X106783186Y-91433435D01*
X106782496Y-91440000D01*
X106802458Y-91629928D01*
X106861473Y-91811556D01*
X106956960Y-91976944D01*
X107084747Y-92118866D01*
X107239248Y-92231118D01*
X107245276Y-92233802D01*
X107245278Y-92233803D01*
X107407681Y-92306109D01*
X107413712Y-92308794D01*
X107420167Y-92310166D01*
X107420176Y-92310169D01*
X107473154Y-92321430D01*
X107535627Y-92355158D01*
X107569948Y-92417308D01*
X107568023Y-92477612D01*
X107566620Y-92480854D01*
X107565380Y-92488686D01*
X107559394Y-92526478D01*
X107556987Y-92538101D01*
X107545500Y-92582842D01*
X107545500Y-92604289D01*
X107543949Y-92623999D01*
X107540594Y-92645182D01*
X107541340Y-92653073D01*
X107544941Y-92691168D01*
X107545500Y-92703026D01*
X107545500Y-95083241D01*
X107525498Y-95151362D01*
X107513136Y-95167551D01*
X107464960Y-95221056D01*
X107369473Y-95386444D01*
X107310458Y-95568072D01*
X107290496Y-95758000D01*
X107310458Y-95947928D01*
X107369473Y-96129556D01*
X107464960Y-96294944D01*
X107592747Y-96436866D01*
X107747248Y-96549118D01*
X107753276Y-96551802D01*
X107753278Y-96551803D01*
X107915681Y-96624109D01*
X107921712Y-96626794D01*
X108015112Y-96646647D01*
X108102056Y-96665128D01*
X108102061Y-96665128D01*
X108108513Y-96666500D01*
X108299487Y-96666500D01*
X108305939Y-96665128D01*
X108305944Y-96665128D01*
X108392887Y-96646647D01*
X108486288Y-96626794D01*
X108492319Y-96624109D01*
X108654722Y-96551803D01*
X108654724Y-96551802D01*
X108660752Y-96549118D01*
X108815253Y-96436866D01*
X108943040Y-96294944D01*
X109038527Y-96129556D01*
X109097542Y-95947928D01*
X109117504Y-95758000D01*
X109097542Y-95568072D01*
X109038527Y-95386444D01*
X108943040Y-95221056D01*
X108894864Y-95167551D01*
X108864146Y-95103544D01*
X108862500Y-95083241D01*
X108862500Y-92990980D01*
X108882502Y-92922859D01*
X108899405Y-92901885D01*
X112918405Y-88882885D01*
X112980717Y-88848859D01*
X113051532Y-88853924D01*
X113108368Y-88896471D01*
X113133179Y-88962991D01*
X113133500Y-88971980D01*
X113133500Y-100005050D01*
X113113498Y-100073171D01*
X113096595Y-100094145D01*
X105932145Y-107258595D01*
X105869833Y-107292621D01*
X105843050Y-107295500D01*
X105822513Y-107295500D01*
X105816061Y-107296872D01*
X105816056Y-107296872D01*
X105729113Y-107315353D01*
X105635712Y-107335206D01*
X105629682Y-107337891D01*
X105629681Y-107337891D01*
X105467278Y-107410197D01*
X105467276Y-107410198D01*
X105461248Y-107412882D01*
X105306747Y-107525134D01*
X105178960Y-107667056D01*
X105083473Y-107832444D01*
X105024458Y-108014072D01*
X105023768Y-108020633D01*
X105023768Y-108020635D01*
X105019826Y-108058144D01*
X105004496Y-108204000D01*
X102954308Y-108204000D01*
X102895259Y-108162654D01*
X102890025Y-108158989D01*
X102804599Y-108122022D01*
X102717175Y-108084190D01*
X102717171Y-108084189D01*
X102711316Y-108081655D01*
X102705069Y-108080350D01*
X102705066Y-108080349D01*
X102525443Y-108042824D01*
X102525438Y-108042823D01*
X102520707Y-108041835D01*
X102514315Y-108041500D01*
X102371337Y-108041500D01*
X102302049Y-108048538D01*
X102232622Y-108055590D01*
X102232621Y-108055590D01*
X102226273Y-108056235D01*
X102169939Y-108073889D01*
X102046549Y-108112556D01*
X102046544Y-108112558D01*
X102040459Y-108114465D01*
X101964713Y-108156452D01*
X101875729Y-108205777D01*
X101875726Y-108205779D01*
X101870150Y-108208870D01*
X101865309Y-108213019D01*
X101865305Y-108213022D01*
X101802311Y-108267015D01*
X101722302Y-108335591D01*
X101718391Y-108340633D01*
X101718390Y-108340634D01*
X101666503Y-108407526D01*
X101602954Y-108489453D01*
X101600138Y-108495176D01*
X101600136Y-108495179D01*
X101557770Y-108581279D01*
X101516982Y-108664171D01*
X101515373Y-108670349D01*
X101515372Y-108670351D01*
X101472838Y-108833644D01*
X101467898Y-108852607D01*
X101467564Y-108858986D01*
X101460289Y-108997803D01*
X101457707Y-109047064D01*
X93508500Y-109047064D01*
X93508500Y-106047064D01*
X101457707Y-106047064D01*
X101486825Y-106239599D01*
X101489028Y-106245585D01*
X101489029Y-106245591D01*
X101551860Y-106416360D01*
X101551862Y-106416365D01*
X101554063Y-106422346D01*
X101656674Y-106587840D01*
X101661055Y-106592473D01*
X101661056Y-106592474D01*
X101738981Y-106674878D01*
X101790466Y-106729322D01*
X101949975Y-106841011D01*
X101955838Y-106843548D01*
X102122825Y-106915810D01*
X102122829Y-106915811D01*
X102128684Y-106918345D01*
X102134931Y-106919650D01*
X102134934Y-106919651D01*
X102314557Y-106957176D01*
X102314562Y-106957177D01*
X102319293Y-106958165D01*
X102325685Y-106958500D01*
X102468663Y-106958500D01*
X102537951Y-106951462D01*
X102607378Y-106944410D01*
X102607379Y-106944410D01*
X102613727Y-106943765D01*
X102694843Y-106918345D01*
X102793451Y-106887444D01*
X102793456Y-106887442D01*
X102799541Y-106885535D01*
X102886475Y-106837346D01*
X102964271Y-106794223D01*
X102964274Y-106794221D01*
X102969850Y-106791130D01*
X102974691Y-106786981D01*
X102974695Y-106786978D01*
X103112855Y-106668560D01*
X103117698Y-106664409D01*
X103237046Y-106510547D01*
X103277779Y-106427768D01*
X103320200Y-106341556D01*
X103323018Y-106335829D01*
X103331113Y-106304751D01*
X103370492Y-106153575D01*
X103370492Y-106153572D01*
X103372102Y-106147393D01*
X103382293Y-105952936D01*
X103353175Y-105760401D01*
X103350972Y-105754415D01*
X103350971Y-105754409D01*
X103288140Y-105583640D01*
X103288138Y-105583635D01*
X103285937Y-105577654D01*
X103183326Y-105412160D01*
X103049534Y-105270678D01*
X102890025Y-105158989D01*
X102842013Y-105138212D01*
X102717175Y-105084190D01*
X102717171Y-105084189D01*
X102711316Y-105081655D01*
X102705069Y-105080350D01*
X102705066Y-105080349D01*
X102525443Y-105042824D01*
X102525438Y-105042823D01*
X102520707Y-105041835D01*
X102514315Y-105041500D01*
X102371337Y-105041500D01*
X102302049Y-105048538D01*
X102232622Y-105055590D01*
X102232621Y-105055590D01*
X102226273Y-105056235D01*
X102169939Y-105073889D01*
X102046549Y-105112556D01*
X102046544Y-105112558D01*
X102040459Y-105114465D01*
X101964713Y-105156452D01*
X101875729Y-105205777D01*
X101875726Y-105205779D01*
X101870150Y-105208870D01*
X101865309Y-105213019D01*
X101865305Y-105213022D01*
X101802311Y-105267015D01*
X101722302Y-105335591D01*
X101602954Y-105489453D01*
X101600138Y-105495176D01*
X101600136Y-105495179D01*
X101556608Y-105583640D01*
X101516982Y-105664171D01*
X101515373Y-105670349D01*
X101515372Y-105670351D01*
X101493477Y-105754409D01*
X101467898Y-105852607D01*
X101467564Y-105858986D01*
X101461436Y-105975919D01*
X101457707Y-106047064D01*
X93508500Y-106047064D01*
X93508500Y-80076418D01*
X94789122Y-80076418D01*
X94789171Y-80077110D01*
X94794617Y-80085274D01*
X94872268Y-80157812D01*
X94876507Y-80161433D01*
X95209802Y-80421363D01*
X95214359Y-80424602D01*
X95569448Y-80653880D01*
X95574250Y-80656686D01*
X95948316Y-80853491D01*
X95953374Y-80855871D01*
X96343435Y-81018638D01*
X96348690Y-81020561D01*
X96751676Y-81148008D01*
X96757075Y-81149455D01*
X97169796Y-81240575D01*
X97175307Y-81241537D01*
X97594501Y-81295610D01*
X97600064Y-81296077D01*
X98022405Y-81312670D01*
X98027997Y-81312641D01*
X98450125Y-81291626D01*
X98455708Y-81291098D01*
X98874305Y-81232640D01*
X98879792Y-81231623D01*
X99291543Y-81136185D01*
X99296929Y-81134681D01*
X99698567Y-81003018D01*
X99703784Y-81001046D01*
X100092126Y-80834202D01*
X100097169Y-80831764D01*
X100469131Y-80631063D01*
X100473935Y-80628188D01*
X100826563Y-80395231D01*
X100831126Y-80391916D01*
X101161658Y-80128529D01*
X101165873Y-80124852D01*
X101203823Y-80088649D01*
X101211763Y-80074890D01*
X101211713Y-80073843D01*
X101206822Y-80066032D01*
X100806507Y-79665717D01*
X99921210Y-78780419D01*
X99395122Y-78254332D01*
X98012812Y-76872022D01*
X97998868Y-76864408D01*
X97997035Y-76864539D01*
X97990420Y-76868790D01*
X96604879Y-78254331D01*
X95719581Y-79139628D01*
X95193494Y-79665716D01*
X94796736Y-80062474D01*
X94789122Y-80076418D01*
X93508500Y-80076418D01*
X93508500Y-78802002D01*
X93528502Y-78733881D01*
X93582158Y-78687388D01*
X93652432Y-78677284D01*
X93717012Y-78706778D01*
X93747213Y-78745683D01*
X93793416Y-78838150D01*
X93796140Y-78843043D01*
X94017917Y-79202833D01*
X94021068Y-79207469D01*
X94273955Y-79546127D01*
X94277488Y-79550444D01*
X94413222Y-79701988D01*
X94426717Y-79710351D01*
X94436128Y-79704662D01*
X94834283Y-79306507D01*
X95719581Y-78421210D01*
X95729378Y-78411413D01*
X96245668Y-77895122D01*
X97639658Y-76501132D01*
X98364408Y-76501132D01*
X98364539Y-76502965D01*
X98368790Y-76509580D01*
X99754331Y-77895121D01*
X100270621Y-78411412D01*
X100280418Y-78421209D01*
X101165716Y-79306506D01*
X101562142Y-79702932D01*
X101575903Y-79710446D01*
X101585263Y-79703989D01*
X101754244Y-79511303D01*
X101757744Y-79506935D01*
X102007073Y-79165645D01*
X102010168Y-79160987D01*
X102228160Y-78798903D01*
X102230841Y-78793964D01*
X102415779Y-78413946D01*
X102418014Y-78408780D01*
X102568442Y-78013815D01*
X102570201Y-78008496D01*
X102684920Y-77601730D01*
X102686204Y-77596259D01*
X102764315Y-77180883D01*
X102765102Y-77175346D01*
X102806035Y-76754102D01*
X102806308Y-76749665D01*
X102812788Y-76502233D01*
X102812746Y-76497762D01*
X102793917Y-76074973D01*
X102793419Y-76069386D01*
X102783334Y-75994302D01*
X113217000Y-75994302D01*
X113217344Y-76000862D01*
X113231259Y-76133261D01*
X113233989Y-76146102D01*
X113288889Y-76315066D01*
X113294235Y-76327074D01*
X113383062Y-76480927D01*
X113390786Y-76491558D01*
X113509663Y-76623585D01*
X113519426Y-76632376D01*
X113663157Y-76736802D01*
X113674529Y-76743368D01*
X113836839Y-76815633D01*
X113849325Y-76819690D01*
X113853278Y-76820530D01*
X113867341Y-76819457D01*
X113871000Y-76809503D01*
X113871000Y-76806182D01*
X114379000Y-76806182D01*
X114382973Y-76819713D01*
X114393468Y-76821222D01*
X114400675Y-76819690D01*
X114413161Y-76815633D01*
X114575471Y-76743368D01*
X114586843Y-76736802D01*
X114675515Y-76672378D01*
X114742383Y-76648519D01*
X114811534Y-76664600D01*
X114823620Y-76672366D01*
X114918248Y-76741118D01*
X114924276Y-76743802D01*
X114924278Y-76743803D01*
X115071844Y-76809503D01*
X115092712Y-76818794D01*
X115186113Y-76838647D01*
X115273056Y-76857128D01*
X115273061Y-76857128D01*
X115279513Y-76858500D01*
X115470487Y-76858500D01*
X115476939Y-76857128D01*
X115476944Y-76857128D01*
X115563887Y-76838647D01*
X115657288Y-76818794D01*
X115678156Y-76809503D01*
X115825722Y-76743803D01*
X115825724Y-76743802D01*
X115831752Y-76741118D01*
X115837693Y-76736802D01*
X115925939Y-76672687D01*
X115992807Y-76648828D01*
X116061958Y-76664909D01*
X116074061Y-76672687D01*
X116162308Y-76736802D01*
X116168248Y-76741118D01*
X116174276Y-76743802D01*
X116174278Y-76743803D01*
X116321844Y-76809503D01*
X116342712Y-76818794D01*
X116436113Y-76838647D01*
X116523056Y-76857128D01*
X116523061Y-76857128D01*
X116529513Y-76858500D01*
X116720487Y-76858500D01*
X116726939Y-76857128D01*
X116726944Y-76857128D01*
X116813887Y-76838647D01*
X116907288Y-76818794D01*
X116928156Y-76809503D01*
X117075722Y-76743803D01*
X117075724Y-76743802D01*
X117081752Y-76741118D01*
X117087693Y-76736802D01*
X117105650Y-76723755D01*
X117172518Y-76699897D01*
X117244982Y-76717915D01*
X117381301Y-76800472D01*
X117388548Y-76802743D01*
X117388550Y-76802744D01*
X117431198Y-76816109D01*
X117544938Y-76851753D01*
X117618365Y-76858500D01*
X117621263Y-76858500D01*
X117875665Y-76858499D01*
X118131634Y-76858499D01*
X118134492Y-76858236D01*
X118134501Y-76858236D01*
X118170004Y-76854974D01*
X118205062Y-76851753D01*
X118211447Y-76849752D01*
X118361450Y-76802744D01*
X118361452Y-76802743D01*
X118368699Y-76800472D01*
X118515381Y-76711639D01*
X118636639Y-76590381D01*
X118725472Y-76443699D01*
X118746429Y-76376825D01*
X143938855Y-76376825D01*
X143946600Y-76799410D01*
X143946950Y-76804976D01*
X143992231Y-77225208D01*
X143993078Y-77230746D01*
X144075535Y-77645286D01*
X144076864Y-77650698D01*
X144195852Y-78056289D01*
X144197658Y-78061564D01*
X144352219Y-78454948D01*
X144354501Y-78460072D01*
X144543416Y-78838150D01*
X144546140Y-78843043D01*
X144767917Y-79202833D01*
X144771068Y-79207469D01*
X145023955Y-79546127D01*
X145027488Y-79550444D01*
X145163222Y-79701988D01*
X145176717Y-79710351D01*
X145186128Y-79704662D01*
X145584283Y-79306507D01*
X146469581Y-78421210D01*
X146479378Y-78411413D01*
X146995668Y-77895122D01*
X148377978Y-76512812D01*
X148385592Y-76498868D01*
X148385461Y-76497035D01*
X148381210Y-76490420D01*
X146995669Y-75104879D01*
X146110372Y-74219581D01*
X145584284Y-73693494D01*
X145185561Y-73294771D01*
X145172253Y-73287504D01*
X145162214Y-73294626D01*
X144918223Y-73587994D01*
X144914828Y-73592467D01*
X144674528Y-73940152D01*
X144671549Y-73944902D01*
X144463106Y-74312575D01*
X144460562Y-74317568D01*
X144285629Y-74702312D01*
X144283538Y-74707511D01*
X144143498Y-75106290D01*
X144141877Y-75111659D01*
X144037840Y-75521303D01*
X144036706Y-75526776D01*
X143969496Y-75944054D01*
X143968851Y-75949632D01*
X143939002Y-76371204D01*
X143938855Y-76376825D01*
X118746429Y-76376825D01*
X118776753Y-76280062D01*
X118783500Y-76206635D01*
X118783499Y-75193366D01*
X118776753Y-75119938D01*
X118772034Y-75104879D01*
X118727744Y-74963550D01*
X118727743Y-74963548D01*
X118725472Y-74956301D01*
X118636639Y-74809619D01*
X118515381Y-74688361D01*
X118368699Y-74599528D01*
X118361452Y-74597257D01*
X118361450Y-74597256D01*
X118295164Y-74576483D01*
X118205062Y-74548247D01*
X118131635Y-74541500D01*
X118128737Y-74541500D01*
X117874335Y-74541501D01*
X117618366Y-74541501D01*
X117615508Y-74541764D01*
X117615499Y-74541764D01*
X117579996Y-74545026D01*
X117544938Y-74548247D01*
X117538560Y-74550246D01*
X117538559Y-74550246D01*
X117388550Y-74597256D01*
X117388548Y-74597257D01*
X117381301Y-74599528D01*
X117254625Y-74676245D01*
X117244982Y-74682085D01*
X117176352Y-74700264D01*
X117105650Y-74676245D01*
X117087094Y-74662763D01*
X117087092Y-74662762D01*
X117081752Y-74658882D01*
X117075724Y-74656198D01*
X117075722Y-74656197D01*
X116913319Y-74583891D01*
X116913318Y-74583891D01*
X116907288Y-74581206D01*
X116813888Y-74561353D01*
X116726944Y-74542872D01*
X116726939Y-74542872D01*
X116720487Y-74541500D01*
X116529513Y-74541500D01*
X116523061Y-74542872D01*
X116523056Y-74542872D01*
X116436112Y-74561353D01*
X116342712Y-74581206D01*
X116336682Y-74583891D01*
X116336681Y-74583891D01*
X116174278Y-74656197D01*
X116174276Y-74656198D01*
X116168248Y-74658882D01*
X116162907Y-74662762D01*
X116162906Y-74662763D01*
X116074061Y-74727313D01*
X116007193Y-74751172D01*
X115938042Y-74735091D01*
X115925939Y-74727313D01*
X115837094Y-74662763D01*
X115837093Y-74662762D01*
X115831752Y-74658882D01*
X115825724Y-74656198D01*
X115825722Y-74656197D01*
X115663319Y-74583891D01*
X115663318Y-74583891D01*
X115657288Y-74581206D01*
X115563888Y-74561353D01*
X115476944Y-74542872D01*
X115476939Y-74542872D01*
X115470487Y-74541500D01*
X115279513Y-74541500D01*
X115273061Y-74542872D01*
X115273056Y-74542872D01*
X115186112Y-74561353D01*
X115092712Y-74581206D01*
X115086682Y-74583891D01*
X115086681Y-74583891D01*
X114924278Y-74656197D01*
X114924276Y-74656198D01*
X114918248Y-74658882D01*
X114823634Y-74727623D01*
X114756770Y-74751480D01*
X114687618Y-74735400D01*
X114675515Y-74727622D01*
X114586843Y-74663198D01*
X114575471Y-74656632D01*
X114413161Y-74584367D01*
X114400675Y-74580310D01*
X114396722Y-74579470D01*
X114382659Y-74580543D01*
X114379000Y-74590497D01*
X114379000Y-76806182D01*
X113871000Y-76806182D01*
X113871000Y-75972115D01*
X113866525Y-75956876D01*
X113865135Y-75955671D01*
X113857452Y-75954000D01*
X113235115Y-75954000D01*
X113219876Y-75958475D01*
X113218671Y-75959865D01*
X113217000Y-75967548D01*
X113217000Y-75994302D01*
X102783334Y-75994302D01*
X102737155Y-75650499D01*
X102736162Y-75644976D01*
X102687039Y-75427885D01*
X113217000Y-75427885D01*
X113221475Y-75443124D01*
X113222865Y-75444329D01*
X113230548Y-75446000D01*
X113852885Y-75446000D01*
X113868124Y-75441525D01*
X113869329Y-75440135D01*
X113871000Y-75432452D01*
X113871000Y-74593818D01*
X113867027Y-74580287D01*
X113856532Y-74578778D01*
X113849325Y-74580310D01*
X113836839Y-74584367D01*
X113674529Y-74656632D01*
X113663157Y-74663198D01*
X113519426Y-74767624D01*
X113509663Y-74776415D01*
X113390786Y-74908442D01*
X113383062Y-74919073D01*
X113294235Y-75072926D01*
X113288889Y-75084934D01*
X113233989Y-75253898D01*
X113231259Y-75266739D01*
X113217344Y-75399138D01*
X113217000Y-75405698D01*
X113217000Y-75427885D01*
X102687039Y-75427885D01*
X102642883Y-75232748D01*
X102641410Y-75227361D01*
X102511847Y-74825025D01*
X102509910Y-74819815D01*
X102345098Y-74430599D01*
X102342683Y-74425536D01*
X102143936Y-74052535D01*
X102141085Y-74047713D01*
X101909974Y-73693865D01*
X101906692Y-73689297D01*
X101645030Y-73357380D01*
X101641382Y-73353155D01*
X101588103Y-73296715D01*
X101574389Y-73288705D01*
X101573517Y-73288742D01*
X101565438Y-73293772D01*
X101165717Y-73693493D01*
X100280419Y-74578790D01*
X99754332Y-75104878D01*
X98372022Y-76487188D01*
X98364408Y-76501132D01*
X97639658Y-76501132D01*
X99395121Y-74745669D01*
X100280419Y-73860372D01*
X100806506Y-73334284D01*
X101202754Y-72938036D01*
X101210316Y-72924187D01*
X101203987Y-72914962D01*
X101030928Y-72761582D01*
X101026561Y-72758046D01*
X100686600Y-72506948D01*
X100681947Y-72503821D01*
X100320995Y-72283926D01*
X100316094Y-72281232D01*
X100247704Y-72247506D01*
X100195455Y-72199438D01*
X100177488Y-72130752D01*
X100199507Y-72063256D01*
X100254522Y-72018380D01*
X100303432Y-72008500D01*
X146444045Y-72008500D01*
X146512166Y-72028502D01*
G37*
%TD.AperFunction*%
%TA.AperFunction,Conductor*%
G36*
X150548365Y-123205257D02*
G01*
X150593428Y-123234217D01*
X151030419Y-123671209D01*
X151826622Y-124467411D01*
X151860647Y-124529723D01*
X151855582Y-124600539D01*
X151826622Y-124645601D01*
X151736112Y-124736112D01*
X151736111Y-124736113D01*
X151645601Y-124826622D01*
X151583289Y-124860647D01*
X151512473Y-124855581D01*
X151467410Y-124826621D01*
X150671209Y-124030419D01*
X150234216Y-123593427D01*
X150200191Y-123531115D01*
X150205256Y-123460299D01*
X150234216Y-123415237D01*
X150324726Y-123324726D01*
X150324727Y-123324725D01*
X150415237Y-123234216D01*
X150477549Y-123200191D01*
X150548365Y-123205257D01*
G37*
%TD.AperFunction*%
%TA.AperFunction,Conductor*%
G36*
X96289701Y-123205256D02*
G01*
X96334763Y-123234216D01*
X96425274Y-123324726D01*
X96425275Y-123324727D01*
X96515784Y-123415237D01*
X96549809Y-123477549D01*
X96544743Y-123548365D01*
X96515783Y-123593428D01*
X95719581Y-124389629D01*
X95282589Y-124826622D01*
X95220277Y-124860647D01*
X95149461Y-124855582D01*
X95104399Y-124826622D01*
X95013888Y-124736112D01*
X95013887Y-124736111D01*
X94923378Y-124645601D01*
X94889353Y-124583289D01*
X94894419Y-124512473D01*
X94923379Y-124467410D01*
X95719581Y-123671209D01*
X96156573Y-123234216D01*
X96218885Y-123200191D01*
X96289701Y-123205256D01*
G37*
%TD.AperFunction*%
%TA.AperFunction,Conductor*%
G36*
X151600539Y-73394418D02*
G01*
X151645601Y-73423378D01*
X151736112Y-73513888D01*
X151736113Y-73513889D01*
X151826622Y-73604399D01*
X151860647Y-73666711D01*
X151855581Y-73737527D01*
X151826621Y-73782590D01*
X151030419Y-74578791D01*
X150593427Y-75015784D01*
X150531115Y-75049809D01*
X150460299Y-75044744D01*
X150415237Y-75015784D01*
X150324726Y-74925274D01*
X150324725Y-74925273D01*
X150234216Y-74834763D01*
X150200191Y-74772451D01*
X150205257Y-74701635D01*
X150234217Y-74656572D01*
X151030419Y-73860371D01*
X151467411Y-73423378D01*
X151529723Y-73389353D01*
X151600539Y-73394418D01*
G37*
%TD.AperFunction*%
%TA.AperFunction,Conductor*%
G36*
X95237527Y-73394419D02*
G01*
X95282590Y-73423379D01*
X95719581Y-73860371D01*
X96515784Y-74656573D01*
X96549809Y-74718885D01*
X96544744Y-74789701D01*
X96515784Y-74834763D01*
X96425274Y-74925274D01*
X96425273Y-74925275D01*
X96334763Y-75015784D01*
X96272451Y-75049809D01*
X96201635Y-75044743D01*
X96156572Y-75015783D01*
X95360371Y-74219581D01*
X94923378Y-73782589D01*
X94889353Y-73720277D01*
X94894418Y-73649461D01*
X94923378Y-73604399D01*
X95013888Y-73513888D01*
X95013889Y-73513887D01*
X95104399Y-73423378D01*
X95166711Y-73389353D01*
X95237527Y-73394419D01*
G37*
%TD.AperFunction*%
%TD*%
M02*
