%TF.GenerationSoftware,KiCad,Pcbnew,(6.0.4)*%
%TF.CreationDate,2022-04-20T17:17:18+03:00*%
%TF.ProjectId,STM32F4_Buck_Converter,53544d33-3246-4345-9f42-75636b5f436f,rev?*%
%TF.SameCoordinates,Original*%
%TF.FileFunction,Paste,Top*%
%TF.FilePolarity,Positive*%
%FSLAX46Y46*%
G04 Gerber Fmt 4.6, Leading zero omitted, Abs format (unit mm)*
G04 Created by KiCad (PCBNEW (6.0.4)) date 2022-04-20 17:17:18*
%MOMM*%
%LPD*%
G01*
G04 APERTURE LIST*
G04 Aperture macros list*
%AMRoundRect*
0 Rectangle with rounded corners*
0 $1 Rounding radius*
0 $2 $3 $4 $5 $6 $7 $8 $9 X,Y pos of 4 corners*
0 Add a 4 corners polygon primitive as box body*
4,1,4,$2,$3,$4,$5,$6,$7,$8,$9,$2,$3,0*
0 Add four circle primitives for the rounded corners*
1,1,$1+$1,$2,$3*
1,1,$1+$1,$4,$5*
1,1,$1+$1,$6,$7*
1,1,$1+$1,$8,$9*
0 Add four rect primitives between the rounded corners*
20,1,$1+$1,$2,$3,$4,$5,0*
20,1,$1+$1,$4,$5,$6,$7,0*
20,1,$1+$1,$6,$7,$8,$9,0*
20,1,$1+$1,$8,$9,$2,$3,0*%
G04 Aperture macros list end*
%ADD10RoundRect,0.200000X0.200000X0.275000X-0.200000X0.275000X-0.200000X-0.275000X0.200000X-0.275000X0*%
%ADD11RoundRect,0.250000X0.325000X0.650000X-0.325000X0.650000X-0.325000X-0.650000X0.325000X-0.650000X0*%
%ADD12RoundRect,0.200000X-0.275000X0.200000X-0.275000X-0.200000X0.275000X-0.200000X0.275000X0.200000X0*%
%ADD13RoundRect,0.075000X-0.700000X-0.075000X0.700000X-0.075000X0.700000X0.075000X-0.700000X0.075000X0*%
%ADD14RoundRect,0.075000X-0.075000X-0.700000X0.075000X-0.700000X0.075000X0.700000X-0.075000X0.700000X0*%
%ADD15RoundRect,0.140000X0.140000X0.170000X-0.140000X0.170000X-0.140000X-0.170000X0.140000X-0.170000X0*%
%ADD16RoundRect,0.237500X0.300000X0.237500X-0.300000X0.237500X-0.300000X-0.237500X0.300000X-0.237500X0*%
%ADD17RoundRect,0.218750X0.218750X0.256250X-0.218750X0.256250X-0.218750X-0.256250X0.218750X-0.256250X0*%
%ADD18RoundRect,0.150000X0.512500X0.150000X-0.512500X0.150000X-0.512500X-0.150000X0.512500X-0.150000X0*%
%ADD19RoundRect,0.225000X0.250000X-0.225000X0.250000X0.225000X-0.250000X0.225000X-0.250000X-0.225000X0*%
%ADD20RoundRect,0.150000X-0.150000X0.587500X-0.150000X-0.587500X0.150000X-0.587500X0.150000X0.587500X0*%
%ADD21R,1.200000X0.900000*%
%ADD22RoundRect,0.135000X-0.185000X0.135000X-0.185000X-0.135000X0.185000X-0.135000X0.185000X0.135000X0*%
%ADD23RoundRect,0.250000X-0.325000X-0.650000X0.325000X-0.650000X0.325000X0.650000X-0.325000X0.650000X0*%
%ADD24RoundRect,0.200000X-0.200000X-0.275000X0.200000X-0.275000X0.200000X0.275000X-0.200000X0.275000X0*%
%ADD25RoundRect,0.135000X0.135000X0.185000X-0.135000X0.185000X-0.135000X-0.185000X0.135000X-0.185000X0*%
%ADD26RoundRect,0.079500X0.100500X-0.079500X0.100500X0.079500X-0.100500X0.079500X-0.100500X-0.079500X0*%
%ADD27RoundRect,0.135000X-0.135000X-0.185000X0.135000X-0.185000X0.135000X0.185000X-0.135000X0.185000X0*%
%ADD28R,0.800000X1.000000*%
%ADD29R,1.500000X0.700000*%
%ADD30RoundRect,0.079500X-0.079500X-0.100500X0.079500X-0.100500X0.079500X0.100500X-0.079500X0.100500X0*%
%ADD31RoundRect,0.250000X0.625000X-0.375000X0.625000X0.375000X-0.625000X0.375000X-0.625000X-0.375000X0*%
%ADD32RoundRect,0.140000X0.170000X-0.140000X0.170000X0.140000X-0.170000X0.140000X-0.170000X-0.140000X0*%
%ADD33R,1.200000X1.400000*%
%ADD34RoundRect,0.140000X-0.140000X-0.170000X0.140000X-0.170000X0.140000X0.170000X-0.140000X0.170000X0*%
%ADD35RoundRect,0.218750X0.256250X-0.218750X0.256250X0.218750X-0.256250X0.218750X-0.256250X-0.218750X0*%
%ADD36RoundRect,0.218750X-0.381250X0.218750X-0.381250X-0.218750X0.381250X-0.218750X0.381250X0.218750X0*%
%ADD37RoundRect,0.200000X0.275000X-0.200000X0.275000X0.200000X-0.275000X0.200000X-0.275000X-0.200000X0*%
%ADD38R,0.900000X1.200000*%
%ADD39RoundRect,0.140000X-0.170000X0.140000X-0.170000X-0.140000X0.170000X-0.140000X0.170000X0.140000X0*%
%ADD40RoundRect,0.150000X0.150000X-0.512500X0.150000X0.512500X-0.150000X0.512500X-0.150000X-0.512500X0*%
%ADD41RoundRect,0.147500X-0.147500X-0.172500X0.147500X-0.172500X0.147500X0.172500X-0.147500X0.172500X0*%
%ADD42R,1.380000X0.450000*%
%ADD43R,1.550000X1.425000*%
%ADD44R,1.300000X1.650000*%
%ADD45R,1.900000X1.000000*%
%ADD46R,1.900000X1.800000*%
%ADD47RoundRect,0.375000X-0.725000X0.375000X-0.725000X-0.375000X0.725000X-0.375000X0.725000X0.375000X0*%
%ADD48R,0.740000X2.400000*%
%ADD49RoundRect,0.250000X-0.625000X0.375000X-0.625000X-0.375000X0.625000X-0.375000X0.625000X0.375000X0*%
G04 APERTURE END LIST*
D10*
%TO.C,R2*%
X134825000Y-107750000D03*
X133175000Y-107750000D03*
%TD*%
D11*
%TO.C,C2*%
X131475000Y-116000000D03*
X128525000Y-116000000D03*
%TD*%
D12*
%TO.C,R4*%
X140250000Y-106675000D03*
X140250000Y-108325000D03*
%TD*%
D13*
%TO.C,U2*%
X110825000Y-91500000D03*
X110825000Y-92000000D03*
X110825000Y-92500000D03*
X110825000Y-93000000D03*
X110825000Y-93500000D03*
X110825000Y-94000000D03*
X110825000Y-94500000D03*
X110825000Y-95000000D03*
X110825000Y-95500000D03*
X110825000Y-96000000D03*
X110825000Y-96500000D03*
X110825000Y-97000000D03*
X110825000Y-97500000D03*
X110825000Y-98000000D03*
X110825000Y-98500000D03*
X110825000Y-99000000D03*
D14*
X112750000Y-100925000D03*
X113250000Y-100925000D03*
X113750000Y-100925000D03*
X114250000Y-100925000D03*
X114750000Y-100925000D03*
X115250000Y-100925000D03*
X115750000Y-100925000D03*
X116250000Y-100925000D03*
X116750000Y-100925000D03*
X117250000Y-100925000D03*
X117750000Y-100925000D03*
X118250000Y-100925000D03*
X118750000Y-100925000D03*
X119250000Y-100925000D03*
X119750000Y-100925000D03*
X120250000Y-100925000D03*
D13*
X122175000Y-99000000D03*
X122175000Y-98500000D03*
X122175000Y-98000000D03*
X122175000Y-97500000D03*
X122175000Y-97000000D03*
X122175000Y-96500000D03*
X122175000Y-96000000D03*
X122175000Y-95500000D03*
X122175000Y-95000000D03*
X122175000Y-94500000D03*
X122175000Y-94000000D03*
X122175000Y-93500000D03*
X122175000Y-93000000D03*
X122175000Y-92500000D03*
X122175000Y-92000000D03*
X122175000Y-91500000D03*
D14*
X120250000Y-89575000D03*
X119750000Y-89575000D03*
X119250000Y-89575000D03*
X118750000Y-89575000D03*
X118250000Y-89575000D03*
X117750000Y-89575000D03*
X117250000Y-89575000D03*
X116750000Y-89575000D03*
X116250000Y-89575000D03*
X115750000Y-89575000D03*
X115250000Y-89575000D03*
X114750000Y-89575000D03*
X114250000Y-89575000D03*
X113750000Y-89575000D03*
X113250000Y-89575000D03*
X112750000Y-89575000D03*
%TD*%
D15*
%TO.C,C10*%
X110000000Y-86000000D03*
X109040000Y-86000000D03*
%TD*%
D16*
%TO.C,C5*%
X110500000Y-87500000D03*
X108775000Y-87500000D03*
%TD*%
D17*
%TO.C,D3*%
X128537500Y-89000000D03*
X126962500Y-89000000D03*
%TD*%
D15*
%TO.C,C16*%
X105900000Y-95800000D03*
X104940000Y-95800000D03*
%TD*%
D18*
%TO.C,U3*%
X142387500Y-97200000D03*
X142387500Y-96250000D03*
X142387500Y-95300000D03*
X140112500Y-95300000D03*
X140112500Y-96250000D03*
X140112500Y-97200000D03*
%TD*%
D15*
%TO.C,C7*%
X114210000Y-103000000D03*
X113250000Y-103000000D03*
%TD*%
D19*
%TO.C,C4*%
X128500000Y-106800000D03*
X128500000Y-105250000D03*
%TD*%
D20*
%TO.C,Q1*%
X140200000Y-110562500D03*
X138300000Y-110562500D03*
X139250000Y-112437500D03*
%TD*%
D21*
%TO.C,D1*%
X136750000Y-99900000D03*
X136750000Y-96600000D03*
%TD*%
D22*
%TO.C,R11*%
X108000000Y-101740000D03*
X108000000Y-102760000D03*
%TD*%
D23*
%TO.C,C1*%
X131525000Y-102250000D03*
X134475000Y-102250000D03*
%TD*%
D24*
%TO.C,R6*%
X126925000Y-91250000D03*
X128575000Y-91250000D03*
%TD*%
D25*
%TO.C,R7*%
X114760000Y-87250000D03*
X113740000Y-87250000D03*
%TD*%
D11*
%TO.C,C3*%
X131475000Y-119000000D03*
X128525000Y-119000000D03*
%TD*%
D26*
%TO.C,C14*%
X124000000Y-91845000D03*
X124000000Y-91155000D03*
%TD*%
D27*
%TO.C,R8*%
X107880000Y-94050000D03*
X108900000Y-94050000D03*
%TD*%
D28*
%TO.C,SW1*%
X103530000Y-111150000D03*
X103530000Y-103850000D03*
X101320000Y-103850000D03*
X101320000Y-111150000D03*
D29*
X104180000Y-105250000D03*
X104180000Y-108250000D03*
X104180000Y-109750000D03*
%TD*%
D30*
%TO.C,C13*%
X120440000Y-102750000D03*
X119750000Y-102750000D03*
%TD*%
D27*
%TO.C,R9*%
X116230000Y-85250000D03*
X117250000Y-85250000D03*
%TD*%
D31*
%TO.C,F1*%
X132500000Y-99900000D03*
X132500000Y-97100000D03*
%TD*%
D32*
%TO.C,C9*%
X122750000Y-89980000D03*
X122750000Y-89020000D03*
%TD*%
D33*
%TO.C,Y1*%
X104550000Y-91800000D03*
X104550000Y-94000000D03*
X106250000Y-94000000D03*
X106250000Y-91800000D03*
%TD*%
D34*
%TO.C,C15*%
X104940000Y-90050000D03*
X105900000Y-90050000D03*
%TD*%
D35*
%TO.C,D4*%
X109750000Y-102537500D03*
X109750000Y-100962500D03*
%TD*%
D36*
%TO.C,FB1*%
X128500000Y-97187500D03*
X128500000Y-99312500D03*
%TD*%
D37*
%TO.C,R3*%
X137000000Y-116325000D03*
X137000000Y-114675000D03*
%TD*%
D32*
%TO.C,C6*%
X108750000Y-91460000D03*
X108750000Y-90500000D03*
%TD*%
D38*
%TO.C,D2*%
X131350000Y-105500000D03*
X134650000Y-105500000D03*
%TD*%
D39*
%TO.C,C8*%
X122000000Y-101770000D03*
X122000000Y-102730000D03*
%TD*%
D40*
%TO.C,U1*%
X133050000Y-112137500D03*
X134000000Y-112137500D03*
X134950000Y-112137500D03*
X134950000Y-109862500D03*
X134000000Y-109862500D03*
X133050000Y-109862500D03*
%TD*%
D41*
%TO.C,L2*%
X105780000Y-99250000D03*
X106750000Y-99250000D03*
%TD*%
D25*
%TO.C,R10*%
X114990000Y-85250000D03*
X113970000Y-85250000D03*
%TD*%
D12*
%TO.C,R1*%
X135000000Y-114675000D03*
X135000000Y-116325000D03*
%TD*%
D32*
%TO.C,C12*%
X109000000Y-97980000D03*
X109000000Y-97020000D03*
%TD*%
D42*
%TO.C,J5*%
X145940000Y-96550000D03*
X145940000Y-95900000D03*
X145940000Y-95250000D03*
X145940000Y-94600000D03*
X145940000Y-93950000D03*
D43*
X146025000Y-97737500D03*
X146025000Y-92762500D03*
D44*
X148600000Y-98625000D03*
X148600000Y-91875000D03*
D45*
X148600000Y-93700000D03*
D46*
X148600000Y-96400000D03*
%TD*%
D47*
%TO.C,L1*%
X125500000Y-108250000D03*
X125500000Y-113750000D03*
%TD*%
D24*
%TO.C,R5*%
X134925000Y-118750000D03*
X136575000Y-118750000D03*
%TD*%
D48*
%TO.C,J2*%
X130540000Y-75800000D03*
X130540000Y-79700000D03*
X129270000Y-75800000D03*
X129270000Y-79700000D03*
X128000000Y-75800000D03*
X128000000Y-79700000D03*
X126730000Y-75800000D03*
X126730000Y-79700000D03*
X125460000Y-75800000D03*
X125460000Y-79700000D03*
%TD*%
D49*
%TO.C,F1*%
X139500000Y-114850000D03*
X139500000Y-117650000D03*
%TD*%
D32*
%TO.C,C11*%
X107750000Y-97980000D03*
X107750000Y-97020000D03*
%TD*%
M02*
